<svg width="18" height="16" viewBox="0 0 18 16" fill="none" xmlns="http://www.w3.org/2000/svg">
<path d="M17.5359 0.0982143C17.7446 0.241071 17.83 0.431548 17.792 0.669643L15.3635 14.3839C15.3319 14.5565 15.2307 14.6905 15.0599 14.7857C14.9714 14.8333 14.8734 14.8571 14.7659 14.8571C14.6963 14.8571 14.6204 14.8423 14.5382 14.8125L10.2408 13.1607L7.94511 15.7946C7.83128 15.9315 7.67633 16 7.48028 16C7.39806 16 7.3285 15.9881 7.27158 15.9643C7.15142 15.9226 7.05497 15.8527 6.98224 15.7545C6.90951 15.6563 6.87315 15.5476 6.87315 15.4286L6.87315 12.3125L15.0694 2.85714L4.92843 11.1161L1.18129 9.66964C0.947294 9.58631 0.820808 9.42262 0.801835 9.17857C0.789187 8.94048 0.890375 8.76488 1.1054 8.65179L16.8908 0.0803571C16.9857 0.0267857 17.0869 0 17.1944 0C17.3209 0 17.4347 0.0327381 17.5359 0.0982143Z" fill="white"/>
</svg>
