<svg width="365" height="296" viewBox="0 0 365 296" fill="none" xmlns="http://www.w3.org/2000/svg">
<g clip-path="url(#clip0_864_3156)">
<path d="M180.532 99.2151C180.532 97.8382 179.599 96.6857 178.337 96.3265V81.5341C179.599 81.1749 180.532 80.0225 180.532 78.6455C180.532 77.2685 179.599 76.1161 178.337 75.7569V43.0989L171.043 36.5982C171.053 36.5084 171.068 36.4286 171.068 36.3388C171.068 34.6725 169.716 33.3205 168.049 33.3205C167.955 33.3205 167.865 33.3404 167.775 33.3504L164.717 29.439L152.828 30.6464C152.329 29.6735 151.326 29 150.154 29C148.822 29 147.704 29.8681 147.305 31.0654L137.976 31.5394L97.4552 51.9294L98.5677 67.2456C97.4751 67.6448 96.6819 68.6525 96.602 69.8649L78.9909 73.6116L58.7406 134.013L63.999 142.45C63.6946 142.789 63.4651 143.193 63.3354 143.647L63.3155 143.717C63.2506 143.956 63.2107 144.206 63.2107 144.47C63.2107 145.259 63.52 145.967 64.0089 146.501L58.7256 155.087L70.0706 183.544C69.6714 183.968 69.397 184.502 69.2923 185.096H69.2474L69.2923 185.126C69.2673 185.285 69.2424 185.44 69.2424 185.605C69.2424 187.271 70.5944 188.623 72.2607 188.623C72.9891 188.623 73.6477 188.353 74.1665 187.924L89.6374 196.81C89.5775 197.044 89.5376 197.284 89.5376 197.538C89.5376 198.371 89.8769 199.125 90.4207 199.669L85.8059 207.905L108.286 235.849L122.255 242.294C122.3 243.467 123.014 244.465 124.027 244.924L124.296 245.018C124.441 245.068 124.585 245.113 124.735 245.138L119.641 255.495L137.607 264.805H161.18C161.539 266.067 162.691 267 164.068 267C165.445 267 166.598 266.067 166.957 264.805L166.997 264.675C167.052 264.451 167.087 264.221 167.087 263.982C167.087 263.183 166.772 262.465 166.268 261.926L176.78 243.652C177.015 243.711 177.254 243.751 177.509 243.751C179.175 243.751 180.527 242.399 180.527 240.733C180.527 239.356 179.594 238.204 178.332 237.844V220.996C179.594 220.637 180.527 219.485 180.527 218.108C180.527 216.731 179.594 215.578 178.332 215.219V171.835C179.594 171.476 180.527 170.323 180.527 168.946C180.527 167.569 179.594 166.417 178.332 166.058V133.779C179.594 133.42 180.527 132.267 180.527 130.89C180.527 129.513 179.594 128.361 178.332 128.002V102.099C179.594 101.74 180.527 100.587 180.527 99.2101L180.532 99.2151ZM69.1127 143.647C69.0877 143.557 69.0628 143.467 69.0329 143.383L90.8847 126.909L117.072 107.168C117.481 107.477 117.965 107.681 118.499 107.746L123.602 141.726C122.804 142.091 122.201 142.789 121.956 143.647H69.1127ZM116.753 102.633C116.204 103.181 115.865 103.935 115.865 104.768C115.865 105.152 115.944 105.516 116.074 105.855L68.2845 141.886L99.1614 73.0478C99.3061 73.0678 99.4458 73.0927 99.5954 73.0927C99.8349 73.0927 100.059 73.0578 100.284 73.0079L105.837 82.9959L116.758 102.638L116.753 102.633ZM126.955 180.98L151.346 194.964C151.286 195.198 151.247 195.438 151.247 195.687C151.247 196.466 151.546 197.164 152.03 197.698L125.967 239.251C125.867 239.226 125.768 239.216 125.668 239.201V181.708C126.157 181.568 126.596 181.319 126.95 180.975L126.955 180.98ZM159.808 237.999C158.964 238.383 158.331 239.141 158.116 240.069L128.217 241.596C128.103 241.002 127.813 240.479 127.404 240.064L153.427 198.576C153.576 198.621 153.726 198.651 153.881 198.671L154.065 199.883L159.808 238.004V237.999ZM127.768 179.548C127.828 179.313 127.868 179.074 127.868 178.825C127.868 178.575 127.828 178.326 127.768 178.086L127.629 177.642C127.274 176.814 126.556 176.185 125.678 175.936V147.558L152.045 193.467L127.773 179.548H127.768ZM125.334 141.502C125.299 141.497 125.264 141.497 125.234 141.492L120.13 107.512C121.173 107.038 121.901 105.99 121.901 104.768C121.901 104.538 121.871 104.314 121.821 104.099L144.152 91.8913L149.85 88.7781C149.904 88.833 149.969 88.8779 150.024 88.9278L139.931 110.41L125.329 141.497L125.334 141.502ZM175.279 97.1996L154.963 87.2066C154.993 87.032 155.018 86.8524 155.018 86.6678C155.018 86.6379 155.008 86.6129 155.008 86.583L174.989 80.2968C175.383 80.8905 175.982 81.3296 176.685 81.5291V96.3215C176.137 96.4762 175.653 96.7805 175.279 97.1946V97.1996ZM148.996 86.578C148.996 86.6079 148.987 86.6379 148.987 86.6678C148.987 86.8973 149.016 87.1218 149.066 87.3363L146.033 88.9927L121.033 102.658C120.484 102.099 119.726 101.755 118.883 101.755C118.643 101.755 118.419 101.789 118.194 101.839L106.196 80.2619L101.721 72.2097C101.865 72.065 101.995 71.9054 102.11 71.7357L125.683 79.1993L148.996 86.578ZM69.2574 145.293H121.961C122.245 146.291 123.029 147.075 124.027 147.359V175.936C123.548 176.071 123.119 176.315 122.764 176.649L72.7048 147.314L69.2574 145.293ZM75.2392 185.999L120.908 180.157L94.6513 195.378C94.1075 194.854 93.3742 194.525 92.556 194.525C91.7378 194.525 90.9944 194.854 90.4506 195.383L75.1045 186.572C75.1643 186.388 75.2092 186.198 75.2342 185.999H75.2392ZM164.073 260.968C163.265 260.968 162.537 261.288 161.998 261.806L129.809 243.312L158.466 242.265C158.989 243.158 159.947 243.761 161.06 243.761C162.247 243.761 163.265 243.068 163.759 242.07L174.66 241.671C174.805 242.115 175.039 242.519 175.358 242.848L164.866 261.093C164.612 261.023 164.353 260.978 164.078 260.978L164.073 260.968ZM174.625 239.92H163.949C163.624 238.777 162.646 237.919 161.444 237.764L156.565 205.396L155.517 198.436C155.607 198.396 155.692 198.341 155.782 198.292L157.927 200.362L174.869 216.706C174.645 217.13 174.505 217.604 174.505 218.118C174.505 219.495 175.438 220.647 176.7 221.006V237.854C175.703 238.139 174.919 238.922 174.635 239.92H174.625ZM176.007 215.519L156.919 197.109C157.144 196.685 157.288 196.211 157.288 195.697C157.288 195.089 157.104 194.525 156.794 194.051L160.795 189.451L176.241 171.685C176.386 171.755 176.541 171.805 176.695 171.85V215.234C176.451 215.304 176.221 215.399 176.007 215.524V215.519ZM174.5 168.951C174.5 169.56 174.685 170.124 174.994 170.598L155.547 192.968C155.158 192.784 154.729 192.674 154.27 192.674C154.015 192.674 153.776 192.714 153.541 192.774L127.01 146.576C127.524 146.047 127.843 145.333 127.863 144.545L174.919 132.412C175.308 133.075 175.937 133.569 176.69 133.784V166.063C175.428 166.422 174.495 167.574 174.495 168.951H174.5ZM174.51 130.82L127.454 142.954C127.289 142.669 127.08 142.42 126.835 142.205L141.613 110.75L151.531 89.6362C151.691 89.6612 151.85 89.6861 152.015 89.6861C152.903 89.6861 153.691 89.297 154.245 88.6833L174.56 98.6763C174.53 98.8509 174.505 99.0305 174.505 99.2151C174.505 100.592 175.438 101.745 176.7 102.104V128.007C175.458 128.361 174.545 129.478 174.515 130.82H174.51ZM176.695 43.8373V75.7519C175.433 76.1111 174.5 77.2635 174.5 78.6405C174.5 78.6704 174.51 78.6954 174.51 78.7253L154.529 85.0114C154.3 84.6672 154.005 84.3679 153.656 84.1434L163.724 51.7448L167.59 39.3073C167.745 39.3322 167.895 39.3522 168.054 39.3522C169.002 39.3522 169.841 38.9032 170.394 38.2197L176.695 43.8373ZM166.189 33.984C165.495 34.5378 165.036 35.3809 165.036 36.3388C165.036 37.2967 165.445 38.055 166.084 38.6038L162.038 51.6251L152.085 83.6544C152.06 83.6544 152.035 83.6495 152.01 83.6495C150.957 83.6495 150.034 84.1883 149.495 85.0065L127.06 77.9021L102.609 70.1592C102.609 70.1293 102.619 70.0993 102.619 70.0694C102.619 69.6803 102.539 69.3161 102.409 68.9768L127.304 50.1034L148.183 34.2734C148.712 34.7373 149.401 35.0317 150.164 35.0317C151.745 35.0317 153.028 33.8094 153.157 32.2628L163.993 31.1652L166.199 33.979L166.189 33.984ZM138.235 33.1758L147.23 32.7168C147.245 32.7767 147.265 32.8315 147.285 32.8914L125.249 49.5996L101.406 67.6747C101.057 67.4103 100.653 67.2157 100.209 67.1209L99.1814 52.9073L138.23 33.1708L138.235 33.1758ZM80.2481 75.0335L96.9413 71.4813C97.1259 71.8255 97.3654 72.1249 97.6597 72.3743L66.6581 141.497C66.5184 141.477 66.3737 141.452 66.224 141.452C65.9347 141.452 65.6603 141.507 65.3959 141.582L60.5466 133.804L80.2481 75.0335ZM65.4108 147.359C65.6703 147.434 65.9397 147.484 66.224 147.484C67.0323 147.484 67.7656 147.159 68.3094 146.641L70.3499 147.838L121.941 178.071C121.916 178.171 121.896 178.271 121.881 178.376L75.0047 184.372C74.5307 183.33 73.483 182.596 72.2607 182.596C71.9963 182.596 71.7469 182.641 71.5074 182.701L60.5615 155.247L65.4108 147.364V147.359ZM87.7865 207.741L91.8625 200.467C92.087 200.522 92.3165 200.557 92.561 200.557C94.2273 200.557 95.5793 199.205 95.5793 197.538C95.5793 197.284 95.5394 197.039 95.4795 196.8L122.764 180.985C123.114 181.324 123.553 181.568 124.037 181.708V239.431C123.458 239.69 122.984 240.129 122.67 240.673L109.334 234.517L87.7915 207.741H87.7865ZM121.831 254.777L126.741 244.794C127.105 244.589 127.419 244.31 127.669 243.981L161.055 263.163H138.011L121.831 254.782V254.777Z" fill="url(#paint0_radial_864_3156)"/>
<path d="M186.663 102.104V128.007C185.401 128.366 184.468 129.518 184.468 130.895C184.468 132.272 185.401 133.425 186.663 133.784V166.063C185.401 166.422 184.468 167.574 184.468 168.951C184.468 170.328 185.401 171.481 186.663 171.84V215.224C185.401 215.583 184.468 216.736 184.468 218.113C184.468 219.49 185.401 220.642 186.663 221.001V237.849C185.401 238.209 184.468 239.361 184.468 240.738C184.468 242.404 185.82 243.756 187.486 243.756C187.741 243.756 187.98 243.716 188.215 243.656L198.726 261.931C198.222 262.47 197.908 263.188 197.908 263.987C197.908 264.226 197.943 264.456 197.998 264.68L198.038 264.81C198.397 266.072 199.55 267.005 200.926 267.005C202.303 267.005 203.456 266.072 203.815 264.81H227.388L245.353 255.5L240.26 245.143C240.409 245.118 240.554 245.073 240.699 245.023L240.968 244.929C241.981 244.47 242.689 243.472 242.739 242.299L256.708 235.854L279.189 207.91L274.574 199.674C275.118 199.13 275.457 198.376 275.457 197.543C275.457 197.289 275.417 197.049 275.357 196.815L290.828 187.929C291.347 188.358 292.006 188.628 292.734 188.628C294.4 188.628 295.752 187.276 295.752 185.61C295.752 185.445 295.727 185.285 295.702 185.131L295.747 185.106H295.702C295.598 184.502 295.323 183.968 294.924 183.544L306.269 155.087L300.986 146.501C301.48 145.962 301.784 145.254 301.784 144.47C301.784 144.211 301.739 143.961 301.679 143.717L301.659 143.647C301.53 143.198 301.305 142.789 300.996 142.45L306.254 134.013L286.004 73.6166L268.393 69.8698C268.313 68.6575 267.52 67.6497 266.427 67.2506L267.54 51.9344L227.024 31.5394L217.694 31.0654C217.295 29.8681 216.178 29 214.846 29C213.678 29 212.676 29.6735 212.172 30.6464L200.283 29.439L197.225 33.3504C197.135 33.3404 197.045 33.3205 196.95 33.3205C195.284 33.3205 193.932 34.6725 193.932 36.3388C193.932 36.4286 193.952 36.5134 193.957 36.5982L186.663 43.0989V75.7569C185.401 76.1161 184.468 77.2685 184.468 78.6455C184.468 80.0225 185.401 81.1749 186.663 81.5341V96.3265C185.401 96.6857 184.468 97.8382 184.468 99.2151C184.468 100.592 185.401 101.745 186.663 102.104ZM243.034 143.647C242.789 142.789 242.185 142.091 241.387 141.726L246.491 107.746C247.025 107.676 247.509 107.477 247.918 107.168L274.105 126.909L295.957 143.383C295.922 143.467 295.902 143.557 295.877 143.647H243.029H243.034ZM259.158 82.9909L264.711 73.0029C264.93 73.0528 265.16 73.0877 265.399 73.0877C265.549 73.0877 265.689 73.0628 265.833 73.0428L296.71 141.881L248.921 105.85C249.05 105.511 249.13 105.147 249.13 104.763C249.13 103.93 248.791 103.171 248.242 102.628L259.163 82.9859L259.158 82.9909ZM239.322 181.708V239.201C239.222 239.216 239.122 239.231 239.022 239.251L212.96 197.698C213.444 197.164 213.743 196.461 213.743 195.687C213.743 195.438 213.703 195.193 213.643 194.964L238.035 180.98C238.389 181.324 238.828 181.573 239.317 181.713L239.322 181.708ZM210.929 199.873L211.114 198.661C211.269 198.641 211.418 198.611 211.568 198.566L237.591 240.054C237.181 240.469 236.897 240.997 236.777 241.586L206.878 240.059C206.669 239.136 206.035 238.378 205.187 237.989L210.929 199.868V199.873ZM212.955 193.457L239.322 147.548V175.926C238.444 176.175 237.725 176.804 237.371 177.632L237.231 178.076C237.172 178.316 237.132 178.56 237.132 178.815C237.132 179.069 237.172 179.308 237.231 179.538L212.96 193.457H212.955ZM225.058 110.405L214.966 88.9228C215.025 88.8729 215.085 88.828 215.14 88.7731L220.838 91.8863L243.168 104.094C243.118 104.309 243.088 104.533 243.088 104.763C243.088 105.985 243.817 107.033 244.86 107.507L239.756 141.487C239.721 141.487 239.686 141.487 239.656 141.497L225.053 110.41L225.058 110.405ZM188.309 96.3165V81.5241C189.013 81.3246 189.611 80.8855 190.006 80.2919L209.986 86.578C209.986 86.6079 209.977 86.6329 209.977 86.6628C209.977 86.8474 210.001 87.027 210.031 87.2016L189.716 97.1946C189.342 96.7805 188.858 96.4762 188.309 96.3215V96.3165ZM239.317 79.1893L262.89 71.7258C263.005 71.8954 263.129 72.055 263.279 72.1997L258.804 80.2519L246.805 101.829C246.586 101.779 246.356 101.745 246.117 101.745C245.274 101.745 244.515 102.094 243.967 102.648L218.967 88.9827L215.933 87.3263C215.983 87.1118 216.013 86.8873 216.013 86.6578C216.013 86.6279 216.003 86.5979 216.003 86.568L239.317 79.1893ZM292.295 147.304L242.23 176.639C241.881 176.305 241.447 176.061 240.968 175.926V147.349C241.966 147.065 242.749 146.281 243.034 145.283H295.737L292.29 147.304H292.295ZM289.895 186.562L274.549 195.373C274.005 194.844 273.262 194.515 272.444 194.515C271.626 194.515 270.892 194.839 270.348 195.368L244.091 180.147L289.761 185.989C289.785 186.188 289.83 186.378 289.89 186.562H289.895ZM200.138 261.073L189.646 242.828C189.966 242.499 190.2 242.1 190.345 241.651L201.246 242.05C201.74 243.048 202.757 243.741 203.945 243.741C205.052 243.741 206.015 243.138 206.539 242.245L235.196 243.292L203.007 261.786C202.468 261.273 201.74 260.948 200.931 260.948C200.657 260.948 200.398 260.998 200.143 261.063L200.138 261.073ZM188.309 237.839V220.991C189.572 220.632 190.504 219.48 190.504 218.103C190.504 217.589 190.365 217.115 190.14 216.691L207.083 200.347L209.228 198.277C209.313 198.326 209.398 198.376 209.493 198.421L208.445 205.381L203.566 237.75C202.358 237.904 201.385 238.762 201.061 239.905H190.385C190.1 238.907 189.317 238.124 188.319 237.839H188.309ZM188.309 215.209V171.825C188.464 171.78 188.619 171.73 188.763 171.66L204.209 189.426L208.21 194.026C207.901 194.5 207.716 195.064 207.716 195.672C207.716 196.186 207.856 196.66 208.086 197.084L188.998 215.494C188.783 215.369 188.554 215.274 188.309 215.204V215.209ZM188.309 166.048V133.769C189.063 133.554 189.691 133.06 190.08 132.397L237.137 144.53C237.157 145.318 237.476 146.032 237.99 146.561L211.458 192.759C211.224 192.699 210.984 192.659 210.73 192.659C210.271 192.659 209.842 192.769 209.453 192.953L190.006 170.583C190.315 170.109 190.499 169.545 190.499 168.936C190.499 167.559 189.567 166.407 188.304 166.048H188.309ZM188.309 127.992V102.089C189.572 101.73 190.504 100.577 190.504 99.2001C190.504 99.0156 190.48 98.836 190.45 98.6613L210.765 88.6684C211.319 89.277 212.107 89.6712 212.995 89.6712C213.159 89.6712 213.319 89.6462 213.479 89.6213L223.397 110.735L238.174 142.19C237.93 142.405 237.72 142.654 237.556 142.939L190.499 130.805C190.465 129.458 189.552 128.346 188.314 127.992H188.309ZM194.61 38.2097C195.164 38.8932 196.002 39.3422 196.95 39.3422C197.11 39.3422 197.265 39.3172 197.414 39.2973L201.281 51.7348L211.348 84.1334C210.999 84.3629 210.705 84.6572 210.475 85.0015L190.494 78.7153C190.494 78.6854 190.504 78.6605 190.504 78.6305C190.504 77.2536 189.572 76.1011 188.309 75.7419V43.8373L194.61 38.2197V38.2097ZM201.021 31.1552L211.857 32.2528C211.987 33.7994 213.269 35.0217 214.851 35.0217C215.614 35.0217 216.303 34.7324 216.831 34.2634L237.71 50.0935L262.605 68.9668C262.471 69.3061 262.396 69.6753 262.396 70.0594C262.396 70.0894 262.406 70.1193 262.406 70.1492L237.955 77.8922L215.519 84.9965C214.98 84.1783 214.057 83.6395 213.005 83.6395C212.98 83.6395 212.955 83.6445 212.93 83.6445L202.977 51.6151L198.931 38.5938C199.564 38.0401 199.979 37.2368 199.979 36.3288C199.979 35.3709 199.525 34.5278 198.826 33.974L201.031 31.1602L201.021 31.1552ZM265.823 52.8923L264.796 67.1059C264.352 67.1957 263.947 67.3953 263.598 67.6597L239.756 49.5846L217.719 32.8914C217.739 32.8315 217.759 32.7767 217.774 32.7168L226.769 33.1758L265.823 52.9073V52.8923ZM304.453 133.794L299.604 141.572C299.339 141.497 299.065 141.442 298.776 141.442C298.626 141.442 298.486 141.467 298.342 141.487L267.335 72.3643C267.629 72.1149 267.874 71.8156 268.053 71.4713L284.747 75.0235L304.448 133.794H304.453ZM304.438 155.237L293.492 182.691C293.248 182.626 292.998 182.586 292.739 182.586C291.517 182.586 290.469 183.315 289.995 184.362L243.118 178.366C243.103 178.261 243.083 178.161 243.059 178.061L294.65 147.828L296.69 146.631C297.234 147.149 297.962 147.474 298.776 147.474C299.06 147.474 299.329 147.424 299.589 147.349L304.438 155.232V155.237ZM255.671 234.512L242.335 240.668C242.021 240.124 241.547 239.685 240.968 239.426V181.703C241.452 181.563 241.886 181.319 242.24 180.98L269.525 196.795C269.465 197.034 269.425 197.279 269.425 197.533C269.425 199.2 270.777 200.552 272.444 200.552C272.683 200.552 272.918 200.517 273.142 200.462L277.218 207.736L255.676 234.512H255.671ZM226.984 263.153H203.94L237.326 243.971C237.576 244.305 237.89 244.579 238.254 244.784L243.163 254.767L226.984 263.148V263.153Z" fill="url(#paint1_radial_864_3156)"/>
</g>
<rect x="29" y="43" width="303" height="240" fill="url(#paint2_linear_864_3156)"/>
<rect x="154" y="124" width="60" height="48" rx="24" fill="url(#paint3_radial_864_3156)"/>
<path d="M175.291 155L181.091 141H182.951L188.711 155H187.031L185.271 150.6H178.671L176.891 155H175.291ZM179.211 149.28H184.731L181.971 142.42L179.211 149.28ZM190.045 155V144.98H191.525V155H190.045ZM190.785 143.06C190.518 143.06 190.285 142.96 190.085 142.76C189.885 142.56 189.785 142.327 189.785 142.06C189.785 141.78 189.885 141.547 190.085 141.36C190.285 141.16 190.518 141.06 190.785 141.06C191.065 141.06 191.298 141.16 191.485 141.36C191.685 141.547 191.785 141.78 191.785 142.06C191.785 142.327 191.685 142.56 191.485 142.76C191.298 142.96 191.065 143.06 190.785 143.06Z" fill="white"/>
<defs>
<radialGradient id="paint0_radial_864_3156" cx="0" cy="0" r="1" gradientUnits="userSpaceOnUse" gradientTransform="translate(119.981 16.25) rotate(-4.21008) scale(57.891 112.522)">
<stop stop-color="#C3A5E9"/>
<stop offset="1" stop-color="#A16FFF"/>
</radialGradient>
<radialGradient id="paint1_radial_864_3156" cx="0" cy="0" r="1" gradientUnits="userSpaceOnUse" gradientTransform="translate(245.72 16.2497) rotate(-4.21034) scale(57.8886 112.524)">
<stop stop-color="#C3A5E9"/>
<stop offset="1" stop-color="#A16FFF"/>
</radialGradient>
<linearGradient id="paint2_linear_864_3156" x1="180.5" y1="43" x2="180.5" y2="283" gradientUnits="userSpaceOnUse">
<stop stop-color="white" stop-opacity="0"/>
<stop offset="1" stop-color="white"/>
</linearGradient>
<radialGradient id="paint3_radial_864_3156" cx="0" cy="0" r="1" gradientUnits="userSpaceOnUse" gradientTransform="translate(184.173 121.429) rotate(-1.72633) scale(28.4522 22.7445)">
<stop stop-color="#C3A5E9"/>
<stop offset="1" stop-color="#A16FFF"/>
</radialGradient>
<clipPath id="clip0_864_3156">
<rect width="247.549" height="238" fill="white" transform="translate(58.7256 29)"/>
</clipPath>
</defs>
</svg>
