<svg width="33" height="30" viewBox="0 0 33 30" fill="none" xmlns="http://www.w3.org/2000/svg">
<ellipse cx="16.2924" cy="15.002" rx="15.9799" ry="15" fill="#F1F1F1"/>
<path d="M22.064 10.8315C21.0295 10.4411 19.938 10.1624 18.8165 10.0025C18.8064 10.0011 18.7959 10.0023 18.7867 10.006C18.7774 10.0097 18.7697 10.0156 18.7647 10.023C18.6241 10.228 18.4686 10.4961 18.3599 10.706C17.1511 10.5552 15.9215 10.5552 14.7126 10.706C14.5914 10.4722 14.4543 10.2442 14.3018 10.023C14.2967 10.0157 14.289 10.0098 14.2798 10.0062C14.2705 10.0025 14.2601 10.0012 14.25 10.0025C13.1283 10.1616 12.0365 10.4404 11.0026 10.8315C10.9937 10.8343 10.9863 10.8395 10.9816 10.8462C8.91372 13.3872 8.34639 15.8659 8.62457 18.3134C8.62557 18.3249 8.63454 18.3364 8.64551 18.3438C9.84968 19.0773 11.1966 19.6374 12.6288 20.0001C12.6389 20.0027 12.6498 20.0026 12.6598 19.9998C12.6698 19.997 12.6785 19.9916 12.6846 19.9845C12.9917 19.6401 13.2649 19.2769 13.5002 18.8948C13.5051 18.8869 13.5068 18.8779 13.505 18.8692C13.5032 18.8605 13.498 18.8525 13.4902 18.8464C13.4851 18.8424 13.479 18.8393 13.4723 18.8374C13.0427 18.7016 12.6267 18.5385 12.228 18.3495C12.2168 18.3443 12.2085 18.3358 12.2048 18.3257C12.2011 18.3157 12.2023 18.3048 12.208 18.2954C12.2114 18.2893 12.2165 18.2839 12.223 18.2798C12.3067 18.2282 12.3905 18.174 12.4702 18.1199C12.4773 18.1153 12.4857 18.1123 12.4947 18.1113C12.5037 18.1103 12.5128 18.1113 12.5211 18.1142C15.1324 19.0948 17.9591 19.0948 20.5385 18.1142C20.5471 18.1111 20.5566 18.11 20.5659 18.111C20.5752 18.1121 20.584 18.1151 20.5913 18.1199C20.6711 18.174 20.7548 18.2282 20.8386 18.2798C20.8454 18.2839 20.8508 18.2893 20.8545 18.2955C20.8581 18.3018 20.8598 18.3086 20.8594 18.3155C20.859 18.3225 20.8565 18.3292 20.8522 18.3351C20.8479 18.341 20.8418 18.346 20.8346 18.3495C20.4368 18.5402 20.0202 18.7031 19.5893 18.8366C19.5824 18.8386 19.5762 18.8419 19.571 18.8461C19.5658 18.8504 19.5618 18.8555 19.5594 18.8612C19.5571 18.8666 19.5561 18.8724 19.5566 18.8782C19.5572 18.884 19.5591 18.8896 19.5624 18.8948C19.8016 19.276 20.0758 19.6401 20.377 19.9845C20.383 19.9916 20.3917 19.997 20.4018 19.9998C20.4118 20.0026 20.4227 20.0027 20.4328 20.0001C21.8674 19.6385 23.2165 19.0784 24.422 18.3438C24.4281 18.3403 24.4331 18.3358 24.4367 18.3306C24.4403 18.3253 24.4425 18.3195 24.443 18.3134C24.776 15.4838 23.8856 13.0256 22.0839 10.8471C22.0821 10.8435 22.0794 10.8402 22.076 10.8375C22.0725 10.8349 22.0684 10.8328 22.064 10.8315ZM13.8901 16.8228C13.1034 16.8228 12.4563 16.2291 12.4563 15.501C12.4563 14.7721 13.0914 14.1785 13.8901 14.1785C14.6947 14.1785 15.3358 14.777 15.3238 15.501C15.3238 16.2291 14.6887 16.8228 13.8901 16.8228ZM19.1904 16.8228C18.4048 16.8228 17.7567 16.2291 17.7567 15.501C17.7567 14.7721 18.3918 14.1785 19.1904 14.1785C19.9951 14.1785 20.6372 14.777 20.6242 15.501C20.6242 16.2291 19.9951 16.8228 19.1904 16.8228Z" fill="#1E1D28"/>
</svg>
