<svg width="76" height="95" viewBox="0 0 76 95" fill="none" xmlns="http://www.w3.org/2000/svg">
<path d="M22.5579 4.26011C17.6512 7.29665 14.0782 12.411 12.8663 18.0887C12.0091 21.7109 12.301 25.4525 12.253 29.1344C8.1702 29.1419 4.08372 29.1344 0.000923709 29.1344C0.000923709 35.0695 -0.00277113 41.0008 0.00461854 46.9284C4.08741 46.9284 8.1702 46.9358 12.253 46.9209C12.2382 62.9318 12.2752 78.9426 12.2345 94.9572C19.4653 95.0281 26.6998 94.9945 33.9343 94.9722C33.9158 78.9576 33.9232 62.943 33.9269 46.9284C40.7808 46.9284 47.6347 46.9284 54.4887 46.9284C54.4887 62.9504 54.4887 78.9688 54.4887 94.9908C61.6566 94.9983 68.8283 94.9983 76 94.9908C75.9963 73.0412 76 51.0952 76 29.1456C61.9707 29.1344 47.9451 29.1456 33.9232 29.1381C34.0636 26.5903 33.4577 23.8372 34.725 21.4871C36.0145 19.0549 38.8263 17.8686 41.457 17.8201C45.7984 17.7865 50.1435 17.8201 54.4887 17.8052C54.4628 11.8701 54.5404 5.93133 54.448 0C48.806 0.0559559 43.164 0 37.522 0.0261128C32.3012 0.167868 26.9954 1.41009 22.5542 4.26384" fill="white"/>
</svg>
