<svg width="173" height="56" viewBox="0 0 173 56" fill="none" xmlns="http://www.w3.org/2000/svg">
<path d="M0 27C0 12.0883 12.0883 0 27 0H146C160.912 0 173 12.0883 173 27V29C173 43.9117 160.912 56 146 56H27C12.0883 56 0 43.9117 0 29V27Z" fill="url(#paint0_radial_741_2897)"/>
<path d="M45.1905 33.1664C44.4242 33.1664 43.7082 33.0252 43.0427 32.7429C42.3873 32.4605 41.8075 32.0723 41.3034 31.5782C40.8093 31.0741 40.4211 30.4943 40.1387 29.8389C39.8564 29.1734 39.7152 28.4625 39.7152 27.7062C39.7152 26.95 39.8514 26.2442 40.1236 25.5887C40.406 24.9232 40.7942 24.3435 41.2882 23.8494C41.7924 23.3452 42.3722 22.952 43.0276 22.6696C43.6931 22.3873 44.409 22.2461 45.1754 22.2461C45.9921 22.2461 46.7635 22.3974 47.4895 22.6999C48.2155 23.0024 48.8356 23.4309 49.3499 23.9855L48.5634 24.7871C48.16 24.3233 47.6559 23.9653 47.0509 23.7132C46.456 23.4511 45.8308 23.32 45.1754 23.32C44.5704 23.32 44.0057 23.4309 43.4814 23.6527C42.9671 23.8746 42.5134 24.1872 42.1201 24.5905C41.737 24.9837 41.4345 25.4476 41.2126 25.982C41.0009 26.5063 40.895 27.0811 40.895 27.7062C40.895 28.3213 41.0009 28.8961 41.2126 29.4305C41.4345 29.9649 41.737 30.4338 42.1201 30.8371C42.5134 31.2304 42.9671 31.5379 43.4814 31.7597C44.0057 31.9816 44.5704 32.0925 45.1754 32.0925C45.8913 32.0925 46.5366 31.9362 47.1114 31.6236C47.6962 31.311 48.1651 30.8825 48.518 30.338C48.881 29.7935 49.0927 29.1784 49.1532 28.4927H45.3569V27.4642H50.333V27.9331C50.333 28.6692 50.2019 29.3549 49.9397 29.9901C49.6776 30.6254 49.3146 31.18 48.8507 31.6539C48.3869 32.1278 47.8424 32.5009 47.2172 32.7731C46.5921 33.0353 45.9165 33.1664 45.1905 33.1664ZM55.4768 33.1361C54.7508 33.1361 54.0903 32.9647 53.4954 32.6219C52.9106 32.269 52.4417 31.795 52.0888 31.2001C51.746 30.6052 51.5745 29.9397 51.5745 29.2036C51.5745 28.4776 51.7409 27.8222 52.0737 27.2374C52.4064 26.6425 52.8551 26.1736 53.4198 25.8307C53.9845 25.4778 54.6147 25.3014 55.3104 25.3014C55.986 25.3014 56.591 25.4778 57.1254 25.8307C57.6699 26.1736 58.0985 26.6425 58.411 27.2374C58.7337 27.8222 58.895 28.4776 58.895 29.2036V29.5515H52.6787C52.7392 30.0456 52.8955 30.4892 53.1475 30.8825C53.4097 31.2757 53.7475 31.5883 54.1609 31.8202C54.5743 32.0421 55.0281 32.153 55.5222 32.153C55.9154 32.153 56.2986 32.0925 56.6717 31.9715C57.0448 31.8505 57.3573 31.6791 57.6094 31.4572L58.3052 32.1984C57.8817 32.511 57.438 32.7479 56.9742 32.9092C56.5204 33.0605 56.0213 33.1361 55.4768 33.1361ZM52.7089 28.6591H57.7758C57.7153 28.2054 57.564 27.802 57.322 27.4491C57.0901 27.0861 56.7977 26.8038 56.4448 26.6021C56.0919 26.3904 55.7037 26.2845 55.2802 26.2845C54.8466 26.2845 54.4483 26.3853 54.0853 26.587C53.7223 26.7887 53.4198 27.071 53.1778 27.434C52.9358 27.7869 52.7795 28.1953 52.7089 28.6591ZM63.2178 33.1513C62.5624 33.1513 62.0583 32.995 61.7053 32.6824C61.3524 32.3698 61.176 31.916 61.176 31.3211V26.3752H59.5425V25.4224H61.176V23.5015L62.2801 23.2141V25.4224H64.564V26.3752H62.2801V31.0337C62.2801 31.4371 62.3708 31.7295 62.5523 31.911C62.7338 32.0824 63.0313 32.1681 63.4447 32.1681C63.6565 32.1681 63.843 32.153 64.0043 32.1227C64.1758 32.0925 64.3573 32.0421 64.5488 31.9715V32.9546C64.3573 33.0252 64.1405 33.0756 63.8985 33.1059C63.6665 33.1361 63.4397 33.1513 63.2178 33.1513ZM69.0119 33V25.4224H70.1311V33H69.0119ZM69.5715 23.9704C69.3699 23.9704 69.1934 23.8947 69.0421 23.7435C68.8909 23.5922 68.8153 23.4158 68.8153 23.2141C68.8153 23.0024 68.8909 22.8259 69.0421 22.6847C69.1934 22.5335 69.3699 22.4579 69.5715 22.4579C69.7833 22.4579 69.9597 22.5335 70.1009 22.6847C70.2521 22.8259 70.3278 23.0024 70.3278 23.2141C70.3278 23.4158 70.2521 23.5922 70.1009 23.7435C69.9597 23.8947 69.7833 23.9704 69.5715 23.9704ZM72.0399 33V25.4224H73.1591V26.3147C73.754 25.619 74.5506 25.2711 75.5489 25.2711C76.1236 25.2711 76.6278 25.3972 77.0614 25.6492C77.505 25.8912 77.8479 26.2341 78.0899 26.6777C78.3419 27.1113 78.468 27.6205 78.468 28.2054V33H77.3639V28.4322C77.3639 27.7567 77.1723 27.2273 76.7891 26.8441C76.416 26.4509 75.9018 26.2542 75.2464 26.2542C74.7926 26.2542 74.3893 26.3551 74.0364 26.5567C73.6834 26.7584 73.391 27.0458 73.1591 27.4189V33H72.0399ZM87.0994 33.1361C86.3835 33.1361 85.7331 32.9647 85.1483 32.6219C84.5634 32.269 84.0996 31.795 83.7568 31.2001C83.4139 30.6052 83.2425 29.9397 83.2425 29.2036C83.2425 28.4675 83.4139 27.8071 83.7568 27.2222C84.0996 26.6273 84.5634 26.1534 85.1483 25.8005C85.7331 25.4476 86.3835 25.2711 87.0994 25.2711C87.654 25.2711 88.1884 25.377 88.7026 25.5887C89.2169 25.7904 89.6706 26.0828 90.0639 26.466L89.353 27.2827C89.0505 26.9601 88.7026 26.7181 88.3094 26.5567C87.9262 26.3853 87.5279 26.2996 87.1145 26.2996C86.6003 26.2996 86.1314 26.4307 85.7079 26.6929C85.2945 26.945 84.9617 27.2928 84.7096 27.7365C84.4676 28.1701 84.3466 28.6591 84.3466 29.2036C84.3466 29.7481 84.4676 30.2422 84.7096 30.6859C84.9617 31.1295 85.2995 31.4825 85.723 31.7446C86.1465 31.9967 86.6154 32.1227 87.1296 32.1227C87.5431 32.1227 87.9313 32.0421 88.2943 31.8807C88.6673 31.7194 89.0152 31.4825 89.3379 31.1699L90.0336 31.9261C89.6303 32.3093 89.1766 32.6068 88.6724 32.8185C88.1682 33.0303 87.6439 33.1361 87.0994 33.1361ZM94.6475 33.1513C93.9316 33.1513 93.2761 32.9798 92.6812 32.637C92.0964 32.2841 91.6326 31.8102 91.2897 31.2152C90.9469 30.6203 90.7755 29.9548 90.7755 29.2188C90.7755 28.4827 90.9469 27.8172 91.2897 27.2222C91.6326 26.6273 92.0964 26.1585 92.6812 25.8156C93.2761 25.4627 93.9316 25.2862 94.6475 25.2862C95.3735 25.2862 96.0289 25.4627 96.6137 25.8156C97.1986 26.1585 97.6624 26.6273 98.0052 27.2222C98.3481 27.8172 98.5195 28.4827 98.5195 29.2188C98.5195 29.9548 98.3481 30.6203 98.0052 31.2152C97.6624 31.8102 97.1986 32.2841 96.6137 32.637C96.0289 32.9798 95.3735 33.1513 94.6475 33.1513ZM94.6475 32.153C95.1617 32.153 95.6256 32.0219 96.039 31.7597C96.4625 31.4976 96.7952 31.1447 97.0372 30.701C97.2893 30.2573 97.4153 29.7632 97.4153 29.2188C97.4153 28.6642 97.2893 28.1701 97.0372 27.7365C96.7952 27.2928 96.4625 26.9399 96.039 26.6777C95.6256 26.4156 95.1617 26.2845 94.6475 26.2845C94.1332 26.2845 93.6643 26.4156 93.2408 26.6777C92.8274 26.9399 92.4947 27.2928 92.2426 27.7365C92.0006 28.1701 91.8796 28.6642 91.8796 29.2188C91.8796 29.7632 92.0006 30.2573 92.2426 30.701C92.4947 31.1447 92.8274 31.4976 93.2408 31.7597C93.6643 32.0219 94.1332 32.153 94.6475 32.153ZM100.074 33V25.4224H101.194V26.3147C101.788 25.619 102.585 25.2711 103.583 25.2711C104.158 25.2711 104.662 25.3972 105.096 25.6492C105.539 25.8912 105.882 26.2341 106.124 26.6777C106.376 27.1113 106.502 27.6205 106.502 28.2054V33H105.398V28.4322C105.398 27.7567 105.207 27.2273 104.824 26.8441C104.45 26.4509 103.936 26.2542 103.281 26.2542C102.827 26.2542 102.424 26.3551 102.071 26.5567C101.718 26.7584 101.425 27.0458 101.194 27.4189V33H100.074ZM111.133 33.1513C110.478 33.1513 109.974 32.995 109.621 32.6824C109.268 32.3698 109.091 31.916 109.091 31.3211V26.3752H107.458V25.4224H109.091V23.5015L110.196 23.2141V25.4224H112.479V26.3752H110.196V31.0337C110.196 31.4371 110.286 31.7295 110.468 31.911C110.649 32.0824 110.947 32.1681 111.36 32.1681C111.572 32.1681 111.759 32.153 111.92 32.1227C112.091 32.0925 112.273 32.0421 112.464 31.9715V32.9546C112.273 33.0252 112.056 33.0756 111.814 33.1059C111.582 33.1361 111.355 33.1513 111.133 33.1513ZM116.068 33.1361C115.513 33.1361 115.024 33.0403 114.601 32.8487C114.187 32.6572 113.859 32.39 113.617 32.0471C113.385 31.7043 113.27 31.306 113.27 30.8522C113.27 30.1363 113.542 29.5717 114.086 29.1582C114.631 28.7448 115.367 28.5381 116.295 28.5381C117.111 28.5381 117.852 28.7095 118.518 29.0524V28.0541C118.518 27.4491 118.346 26.9954 118.004 26.6929C117.661 26.3803 117.162 26.224 116.506 26.224C116.133 26.224 115.755 26.2795 115.372 26.3904C114.999 26.4912 114.585 26.6576 114.132 26.8895L113.708 26.0274C114.253 25.7652 114.757 25.5736 115.221 25.4526C115.684 25.3316 116.148 25.2711 116.612 25.2711C117.57 25.2711 118.306 25.498 118.82 25.9517C119.345 26.4055 119.607 27.0559 119.607 27.9029V33H118.518V32.2589C118.175 32.5513 117.797 32.7731 117.384 32.9244C116.98 33.0655 116.542 33.1361 116.068 33.1361ZM114.343 30.822C114.343 31.2455 114.52 31.5934 114.873 31.8656C115.236 32.1278 115.7 32.2589 116.264 32.2589C116.718 32.2589 117.131 32.1883 117.505 32.0471C117.878 31.906 118.215 31.6841 118.518 31.3816V29.9599C118.205 29.7481 117.873 29.5969 117.52 29.5061C117.167 29.4053 116.768 29.3549 116.325 29.3549C115.72 29.3549 115.236 29.491 114.873 29.7632C114.52 30.0254 114.343 30.3783 114.343 30.822ZM124.986 33.1361C124.27 33.1361 123.619 32.9647 123.035 32.6219C122.45 32.269 121.986 31.795 121.643 31.2001C121.3 30.6052 121.129 29.9397 121.129 29.2036C121.129 28.4675 121.3 27.8071 121.643 27.2222C121.986 26.6273 122.45 26.1534 123.035 25.8005C123.619 25.4476 124.27 25.2711 124.986 25.2711C125.54 25.2711 126.075 25.377 126.589 25.5887C127.103 25.7904 127.557 26.0828 127.95 26.466L127.239 27.2827C126.937 26.9601 126.589 26.7181 126.196 26.5567C125.813 26.3853 125.414 26.2996 125.001 26.2996C124.487 26.2996 124.018 26.4307 123.594 26.6929C123.181 26.945 122.848 27.2928 122.596 27.7365C122.354 28.1701 122.233 28.6591 122.233 29.2036C122.233 29.7481 122.354 30.2422 122.596 30.6859C122.848 31.1295 123.186 31.4825 123.609 31.7446C124.033 31.9967 124.502 32.1227 125.016 32.1227C125.429 32.1227 125.818 32.0421 126.181 31.8807C126.554 31.7194 126.902 31.4825 127.224 31.1699L127.92 31.9261C127.517 32.3093 127.063 32.6068 126.559 32.8185C126.055 33.0303 125.53 33.1361 124.986 33.1361ZM132.359 33.1513C131.703 33.1513 131.199 32.995 130.846 32.6824C130.493 32.3698 130.317 31.916 130.317 31.3211V26.3752H128.683V25.4224H130.317V23.5015L131.421 23.2141V25.4224H133.705V26.3752H131.421V31.0337C131.421 31.4371 131.512 31.7295 131.693 31.911C131.875 32.0824 132.172 32.1681 132.585 32.1681C132.797 32.1681 132.984 32.153 133.145 32.1227C133.317 32.0925 133.498 32.0421 133.69 31.9715V32.9546C133.498 33.0252 133.281 33.0756 133.039 33.1059C132.807 33.1361 132.58 33.1513 132.359 33.1513Z" fill="white"/>
<defs>
<radialGradient id="paint0_radial_741_2897" cx="0" cy="0" r="1" gradientUnits="userSpaceOnUse" gradientTransform="translate(87 -3) rotate(-0.698693) scale(82.0061 26.5453)">
<stop stop-color="#C3A5E9"/>
<stop offset="1" stop-color="#A16FFF"/>
</radialGradient>
</defs>
</svg>
