<svg width="25" height="24" viewBox="0 0 25 24" fill="none" xmlns="http://www.w3.org/2000/svg">
<path d="M17.4976 2H7.49756C4.73613 2 2.49756 4.23858 2.49756 7V17C2.49756 19.7614 4.73613 22 7.49756 22H17.4976C20.259 22 22.4976 19.7614 22.4976 17V7C22.4976 4.23858 20.259 2 17.4976 2Z" stroke="white" stroke-width="2" stroke-linecap="round" stroke-linejoin="round"/>
<path d="M16.4978 11.3698C16.6212 12.2021 16.479 13.052 16.0915 13.7988C15.704 14.5456 15.0909 15.1512 14.3394 15.5295C13.5879 15.9077 12.7362 16.0394 11.9055 15.9057C11.0749 15.7721 10.3075 15.3799 9.71259 14.785C9.11767 14.1901 8.72549 13.4227 8.59182 12.592C8.45816 11.7614 8.58982 10.9097 8.96808 10.1582C9.34634 9.40667 9.95194 8.79355 10.6987 8.40605C11.4455 8.01856 12.2955 7.8764 13.1278 7.99981C13.9767 8.1257 14.7626 8.52128 15.3694 9.12812C15.9763 9.73496 16.3719 10.5209 16.4978 11.3698Z" stroke="white" stroke-width="2" stroke-linecap="round" stroke-linejoin="round"/>
<path d="M17.9976 6.5H18.0076" stroke="white" stroke-width="2" stroke-linecap="round" stroke-linejoin="round"/>
</svg>
