<svg width="33" height="30" viewBox="0 0 33 30" fill="none" xmlns="http://www.w3.org/2000/svg">
<ellipse cx="16.7651" cy="15.002" rx="15.9799" ry="15" fill="#F1F1F1"/>
<path fill-rule="evenodd" clip-rule="evenodd" d="M13.817 7.04695C14.6676 7.01013 14.9388 7.00195 17.1055 7.00195C19.2722 7.00195 19.5434 7.01082 20.3933 7.04695C21.2432 7.08309 21.8233 7.21059 22.3309 7.39536C22.8624 7.58423 23.3446 7.87945 23.7435 8.26127C24.1495 8.63559 24.4628 9.08832 24.6629 9.58877C24.8602 10.066 24.9951 10.6115 25.0342 11.4092C25.0734 12.2104 25.0821 12.4654 25.0821 14.502C25.0821 16.5392 25.0727 16.7942 25.0342 17.594C24.9958 18.3917 24.8602 18.9372 24.6629 19.4145C24.4628 19.915 24.149 20.3685 23.7435 20.7433C23.3446 21.1251 22.8624 21.4197 22.3309 21.6079C21.8233 21.7933 21.2432 21.9201 20.3947 21.957C19.5434 21.9938 19.2722 22.002 17.1055 22.002C14.9388 22.002 14.6676 21.9931 13.817 21.957C12.9685 21.9208 12.3884 21.7933 11.8808 21.6079C11.3485 21.4197 10.8662 21.1246 10.4675 20.7433C10.0617 20.3688 9.74768 19.9155 9.54731 19.4151C9.3508 18.9379 9.21592 18.3924 9.17677 17.5947C9.13761 16.7935 9.12891 16.5385 9.12891 14.502C9.12891 12.4647 9.13833 12.2097 9.17677 11.4106C9.2152 10.6115 9.3508 10.066 9.54731 9.58877C9.74798 9.08837 10.0623 8.63512 10.4682 8.26059C10.8664 7.87911 11.3482 7.58385 11.8801 7.39536C12.3877 7.21059 12.9678 7.08377 13.8162 7.04695H13.817ZM20.3288 8.39695C19.4876 8.36082 19.2352 8.35332 17.1055 8.35332C14.9757 8.35332 14.7234 8.36082 13.8822 8.39695C13.1041 8.43036 12.6821 8.55241 12.4008 8.65536C12.0288 8.79173 11.7626 8.95332 11.4835 9.21582C11.2188 9.4579 11.0151 9.7526 10.8874 10.0783C10.7779 10.3429 10.6481 10.7397 10.6126 11.4713C10.5741 12.2622 10.5661 12.4995 10.5661 14.502C10.5661 16.5045 10.5741 16.7417 10.6126 17.5326C10.6481 18.2642 10.7779 18.661 10.8874 18.9256C11.015 19.2508 11.2188 19.546 11.4835 19.7881C11.7409 20.037 12.0549 20.2285 12.4008 20.3485C12.6821 20.4515 13.1041 20.5735 13.8822 20.607C14.7234 20.6431 14.975 20.6506 17.1055 20.6506C19.236 20.6506 19.4876 20.6431 20.3288 20.607C21.1068 20.5735 21.5289 20.4515 21.8102 20.3485C22.1822 20.2122 22.4484 20.0506 22.7275 19.7881C22.9922 19.546 23.196 19.2508 23.3236 18.9256C23.4331 18.661 23.5629 18.2642 23.5984 17.5326C23.6369 16.7417 23.6448 16.5045 23.6448 14.502C23.6448 12.4995 23.6369 12.2622 23.5984 11.4713C23.5629 10.7397 23.4331 10.3429 23.3236 10.0783C23.1786 9.72854 23.0067 9.47832 22.7275 9.21582C22.4701 8.967 22.1566 8.77551 21.8102 8.65536C21.5289 8.55241 21.1068 8.43036 20.3288 8.39695ZM16.0867 16.814C16.6557 17.0367 17.2892 17.0668 17.8792 16.899C18.4691 16.7313 18.9788 16.3762 19.3213 15.8944C19.6637 15.4126 19.8176 14.8339 19.7567 14.2573C19.6957 13.6806 19.4238 13.1417 18.9872 12.7326C18.709 12.4711 18.3725 12.2709 18.002 12.1464C17.6316 12.0218 17.2363 11.9761 16.8448 12.0124C16.4533 12.0487 16.0752 12.1662 15.7377 12.3564C15.4003 12.5466 15.1119 12.8047 14.8933 13.1123C14.6747 13.4199 14.5314 13.7692 14.4736 14.1351C14.4158 14.501 14.445 14.8744 14.5592 15.2284C14.6733 15.5825 14.8695 15.9083 15.1336 16.1824C15.3978 16.4566 15.7232 16.6723 16.0867 16.814ZM14.2064 11.776C14.5871 11.4181 15.0391 11.1341 15.5365 10.9404C16.0339 10.7466 16.5671 10.6469 17.1055 10.6469C17.6439 10.6469 18.1771 10.7466 18.6745 10.9404C19.1719 11.1341 19.6239 11.4181 20.0046 11.776C20.3853 12.134 20.6873 12.559 20.8934 13.0267C21.0994 13.4944 21.2055 13.9957 21.2055 14.502C21.2055 15.0082 21.0994 15.5095 20.8934 15.9772C20.6873 16.4449 20.3853 16.8699 20.0046 17.2279C19.2357 17.9508 18.1929 18.357 17.1055 18.357C16.0181 18.357 14.9753 17.9508 14.2064 17.2279C13.4375 16.5049 13.0055 15.5244 13.0055 14.502C13.0055 13.4795 13.4375 12.499 14.2064 11.776ZM22.1148 11.221C22.2091 11.1374 22.2847 11.0367 22.3369 10.9251C22.3891 10.8135 22.417 10.6932 22.4189 10.5712C22.4208 10.4493 22.3967 10.3282 22.3479 10.2152C22.2992 10.1022 22.2268 9.99957 22.1351 9.91334C22.0434 9.82711 21.9342 9.75906 21.814 9.71322C21.6938 9.66737 21.5651 9.64466 21.4354 9.64644C21.3057 9.64822 21.1777 9.67444 21.059 9.72356C20.9403 9.77268 20.8333 9.8437 20.7443 9.93241C20.5712 10.1049 20.4764 10.3341 20.4801 10.5712C20.4838 10.8084 20.5856 11.0348 20.764 11.2025C20.9423 11.3702 21.1832 11.466 21.4354 11.4694C21.6876 11.4729 21.9313 11.3838 22.1148 11.221Z" fill="#1E1D28"/>
</svg>
