<svg width="241" height="50" viewBox="0 0 241 50" fill="none" xmlns="http://www.w3.org/2000/svg">
<rect width="240" height="50" rx="25" transform="matrix(1 0 0 -1 0.300781 50)" fill="url(#paint0_radial_1157_2017)"/>
<path d="M61.3608 31.65C60.5308 31.65 59.7358 31.485 58.9758 31.155C58.2158 30.815 57.5458 30.33 56.9658 29.7L57.7308 28.905C58.2708 29.485 58.8458 29.92 59.4558 30.21C60.0758 30.5 60.7258 30.645 61.4058 30.645C61.9558 30.645 62.4408 30.56 62.8608 30.39C63.2908 30.21 63.6258 29.965 63.8658 29.655C64.1058 29.335 64.2258 28.975 64.2258 28.575C64.2258 28.035 64.0358 27.62 63.6558 27.33C63.2858 27.04 62.6708 26.825 61.8108 26.685L60.2958 26.445C59.2858 26.275 58.5408 25.975 58.0608 25.545C57.5808 25.115 57.3408 24.53 57.3408 23.79C57.3408 23.21 57.4958 22.7 57.8058 22.26C58.1158 21.82 58.5458 21.48 59.0958 21.24C59.6558 20.99 60.3008 20.865 61.0308 20.865C61.7708 20.865 62.4958 20.985 63.2058 21.225C63.9258 21.465 64.5808 21.81 65.1708 22.26L64.5108 23.16C63.3608 22.29 62.1858 21.855 60.9858 21.855C60.4858 21.855 60.0458 21.935 59.6658 22.095C59.2858 22.245 58.9908 22.46 58.7808 22.74C58.5708 23.01 58.4658 23.33 58.4658 23.7C58.4658 24.19 58.6308 24.565 58.9608 24.825C59.2908 25.085 59.8358 25.275 60.5958 25.395L62.0958 25.635C63.2458 25.825 64.0808 26.15 64.6008 26.61C65.1208 27.06 65.3808 27.695 65.3808 28.515C65.3808 29.125 65.2108 29.67 64.8708 30.15C64.5308 30.62 64.0558 30.99 63.4458 31.26C62.8458 31.52 62.1508 31.65 61.3608 31.65ZM70.4114 31.635C69.6914 31.635 69.0364 31.465 68.4464 31.125C67.8664 30.775 67.4014 30.305 67.0514 29.715C66.7114 29.125 66.5414 28.465 66.5414 27.735C66.5414 27.015 66.7064 26.365 67.0364 25.785C67.3664 25.195 67.8114 24.73 68.3714 24.39C68.9314 24.04 69.5564 23.865 70.2464 23.865C70.9164 23.865 71.5164 24.04 72.0464 24.39C72.5864 24.73 73.0114 25.195 73.3214 25.785C73.6414 26.365 73.8014 27.015 73.8014 27.735V28.08H67.6364C67.6964 28.57 67.8514 29.01 68.1014 29.4C68.3614 29.79 68.6964 30.1 69.1064 30.33C69.5164 30.55 69.9664 30.66 70.4564 30.66C70.8464 30.66 71.2264 30.6 71.5964 30.48C71.9664 30.36 72.2764 30.19 72.5264 29.97L73.2164 30.705C72.7964 31.015 72.3564 31.25 71.8964 31.41C71.4464 31.56 70.9514 31.635 70.4114 31.635ZM67.6664 27.195H72.6914C72.6314 26.745 72.4814 26.345 72.2414 25.995C72.0114 25.635 71.7214 25.355 71.3714 25.155C71.0214 24.945 70.6364 24.84 70.2164 24.84C69.7864 24.84 69.3914 24.94 69.0314 25.14C68.6714 25.34 68.3714 25.62 68.1314 25.98C67.8914 26.33 67.7364 26.735 67.6664 27.195ZM75.3532 31.5V23.985H76.4632V24.87C77.0532 24.18 77.8432 23.835 78.8332 23.835C79.4032 23.835 79.9032 23.96 80.3332 24.21C80.7732 24.45 81.1132 24.79 81.3532 25.23C81.6032 25.66 81.7282 26.165 81.7282 26.745V31.5H80.6332V26.97C80.6332 26.3 80.4432 25.775 80.0632 25.395C79.6932 25.005 79.1832 24.81 78.5332 24.81C78.0832 24.81 77.6832 24.91 77.3332 25.11C76.9832 25.31 76.6932 25.595 76.4632 25.965V31.5H75.3532ZM87.0206 31.62C86.3206 31.62 85.6806 31.45 85.1006 31.11C84.5306 30.76 84.0756 30.295 83.7356 29.715C83.4056 29.125 83.2406 28.465 83.2406 27.735C83.2406 27.005 83.4056 26.35 83.7356 25.77C84.0756 25.19 84.5306 24.73 85.1006 24.39C85.6806 24.04 86.3256 23.865 87.0356 23.865C87.4756 23.865 87.9006 23.94 88.3106 24.09C88.7206 24.23 89.0956 24.44 89.4356 24.72V21L90.5456 20.745V31.5H89.4506V30.705C88.7906 31.315 87.9806 31.62 87.0206 31.62ZM87.1256 30.645C87.5956 30.645 88.0306 30.555 88.4306 30.375C88.8406 30.185 89.1756 29.925 89.4356 29.595V25.875C89.1756 25.555 88.8406 25.305 88.4306 25.125C88.0306 24.935 87.5956 24.84 87.1256 24.84C86.6056 24.84 86.1306 24.965 85.7006 25.215C85.2806 25.465 84.9456 25.81 84.6956 26.25C84.4556 26.68 84.3356 27.17 84.3356 27.72C84.3356 28.27 84.4556 28.765 84.6956 29.205C84.9456 29.645 85.2806 29.995 85.7006 30.255C86.1306 30.515 86.6056 30.645 87.1256 30.645ZM95.8659 31.5V21H97.4859L101.071 28.455L104.641 21H106.261V31.5H105.166V22.32L101.056 30.75L96.9459 22.335V31.5H95.8659ZM111.881 31.635C111.161 31.635 110.506 31.465 109.916 31.125C109.336 30.775 108.871 30.305 108.521 29.715C108.181 29.125 108.011 28.465 108.011 27.735C108.011 27.015 108.176 26.365 108.506 25.785C108.836 25.195 109.281 24.73 109.841 24.39C110.401 24.04 111.026 23.865 111.716 23.865C112.386 23.865 112.986 24.04 113.516 24.39C114.056 24.73 114.481 25.195 114.791 25.785C115.111 26.365 115.271 27.015 115.271 27.735V28.08H109.106C109.166 28.57 109.321 29.01 109.571 29.4C109.831 29.79 110.166 30.1 110.576 30.33C110.986 30.55 111.436 30.66 111.926 30.66C112.316 30.66 112.696 30.6 113.066 30.48C113.436 30.36 113.746 30.19 113.996 29.97L114.686 30.705C114.266 31.015 113.826 31.25 113.366 31.41C112.916 31.56 112.421 31.635 111.881 31.635ZM109.136 27.195H114.161C114.101 26.745 113.951 26.345 113.711 25.995C113.481 25.635 113.191 25.355 112.841 25.155C112.491 24.945 112.106 24.84 111.686 24.84C111.256 24.84 110.861 24.94 110.501 25.14C110.141 25.34 109.841 25.62 109.601 25.98C109.361 26.33 109.206 26.735 109.136 27.195ZM119.296 31.65C118.676 31.65 118.091 31.55 117.541 31.35C117.001 31.14 116.531 30.85 116.131 30.48L116.806 29.76C117.156 30.08 117.541 30.33 117.961 30.51C118.381 30.68 118.811 30.765 119.251 30.765C119.851 30.765 120.341 30.64 120.721 30.39C121.101 30.14 121.291 29.815 121.291 29.415C121.291 29.085 121.176 28.83 120.946 28.65C120.726 28.46 120.376 28.33 119.896 28.26L118.591 28.08C117.841 27.97 117.281 27.745 116.911 27.405C116.551 27.065 116.371 26.605 116.371 26.025C116.371 25.605 116.491 25.23 116.731 24.9C116.971 24.57 117.301 24.31 117.721 24.12C118.151 23.93 118.641 23.835 119.191 23.835C119.741 23.835 120.256 23.915 120.736 24.075C121.216 24.235 121.686 24.485 122.146 24.825L121.561 25.575C121.141 25.285 120.731 25.075 120.331 24.945C119.941 24.805 119.541 24.735 119.131 24.735C118.611 24.735 118.191 24.85 117.871 25.08C117.551 25.31 117.391 25.61 117.391 25.98C117.391 26.32 117.501 26.58 117.721 26.76C117.941 26.93 118.296 27.05 118.786 27.12L120.091 27.3C120.841 27.4 121.401 27.62 121.771 27.96C122.151 28.3 122.341 28.765 122.341 29.355C122.341 29.785 122.206 30.175 121.936 30.525C121.666 30.875 121.301 31.15 120.841 31.35C120.391 31.55 119.876 31.65 119.296 31.65ZM125.991 31.65C125.371 31.65 124.786 31.55 124.236 31.35C123.696 31.14 123.226 30.85 122.826 30.48L123.501 29.76C123.851 30.08 124.236 30.33 124.656 30.51C125.076 30.68 125.506 30.765 125.946 30.765C126.546 30.765 127.036 30.64 127.416 30.39C127.796 30.14 127.986 29.815 127.986 29.415C127.986 29.085 127.871 28.83 127.641 28.65C127.421 28.46 127.071 28.33 126.591 28.26L125.286 28.08C124.536 27.97 123.976 27.745 123.606 27.405C123.246 27.065 123.066 26.605 123.066 26.025C123.066 25.605 123.186 25.23 123.426 24.9C123.666 24.57 123.996 24.31 124.416 24.12C124.846 23.93 125.336 23.835 125.886 23.835C126.436 23.835 126.951 23.915 127.431 24.075C127.911 24.235 128.381 24.485 128.841 24.825L128.256 25.575C127.836 25.285 127.426 25.075 127.026 24.945C126.636 24.805 126.236 24.735 125.826 24.735C125.306 24.735 124.886 24.85 124.566 25.08C124.246 25.31 124.086 25.61 124.086 25.98C124.086 26.32 124.196 26.58 124.416 26.76C124.636 26.93 124.991 27.05 125.481 27.12L126.786 27.3C127.536 27.4 128.096 27.62 128.466 27.96C128.846 28.3 129.036 28.765 129.036 29.355C129.036 29.785 128.901 30.175 128.631 30.525C128.361 30.875 127.996 31.15 127.536 31.35C127.086 31.55 126.571 31.65 125.991 31.65ZM132.728 31.635C132.178 31.635 131.693 31.54 131.273 31.35C130.863 31.16 130.538 30.895 130.298 30.555C130.068 30.215 129.953 29.82 129.953 29.37C129.953 28.66 130.223 28.1 130.763 27.69C131.303 27.28 132.033 27.075 132.953 27.075C133.763 27.075 134.498 27.245 135.158 27.585V26.595C135.158 25.995 134.988 25.545 134.648 25.245C134.308 24.935 133.813 24.78 133.163 24.78C132.793 24.78 132.418 24.835 132.038 24.945C131.668 25.045 131.258 25.21 130.808 25.44L130.388 24.585C130.928 24.325 131.428 24.135 131.888 24.015C132.348 23.895 132.808 23.835 133.268 23.835C134.218 23.835 134.948 24.06 135.458 24.51C135.978 24.96 136.238 25.605 136.238 26.445V31.5H135.158V30.765C134.818 31.055 134.443 31.275 134.033 31.425C133.633 31.565 133.198 31.635 132.728 31.635ZM131.018 29.34C131.018 29.76 131.193 30.105 131.543 30.375C131.903 30.635 132.363 30.765 132.923 30.765C133.373 30.765 133.783 30.695 134.153 30.555C134.523 30.415 134.858 30.195 135.158 29.895V28.485C134.848 28.275 134.518 28.125 134.168 28.035C133.818 27.935 133.423 27.885 132.983 27.885C132.383 27.885 131.903 28.02 131.543 28.29C131.193 28.55 131.018 28.9 131.018 29.34ZM141.752 34.71C141.232 34.71 140.717 34.64 140.207 34.5C139.697 34.37 139.232 34.18 138.812 33.93L139.292 33.06C139.742 33.3 140.157 33.475 140.537 33.585C140.927 33.695 141.317 33.75 141.707 33.75C142.417 33.75 142.957 33.58 143.327 33.24C143.697 32.9 143.882 32.4 143.882 31.74V30.69C143.192 31.27 142.397 31.56 141.497 31.56C140.807 31.56 140.177 31.39 139.607 31.05C139.037 30.71 138.582 30.25 138.242 29.67C137.912 29.08 137.747 28.425 137.747 27.705C137.747 26.985 137.912 26.335 138.242 25.755C138.582 25.165 139.037 24.7 139.607 24.36C140.177 24.02 140.817 23.85 141.527 23.85C141.957 23.85 142.372 23.925 142.772 24.075C143.182 24.225 143.557 24.445 143.897 24.735V23.985H144.992V31.725C144.992 32.685 144.712 33.42 144.152 33.93C143.592 34.45 142.792 34.71 141.752 34.71ZM141.587 30.585C142.067 30.585 142.507 30.495 142.907 30.315C143.307 30.135 143.632 29.88 143.882 29.55V25.86C143.632 25.54 143.302 25.29 142.892 25.11C142.492 24.93 142.057 24.84 141.587 24.84C141.067 24.84 140.597 24.965 140.177 25.215C139.767 25.465 139.442 25.81 139.202 26.25C138.962 26.68 138.842 27.165 138.842 27.705C138.842 28.245 138.962 28.735 139.202 29.175C139.452 29.605 139.782 29.95 140.192 30.21C140.612 30.46 141.077 30.585 141.587 30.585ZM150.407 31.635C149.687 31.635 149.032 31.465 148.442 31.125C147.862 30.775 147.397 30.305 147.047 29.715C146.707 29.125 146.537 28.465 146.537 27.735C146.537 27.015 146.702 26.365 147.032 25.785C147.362 25.195 147.807 24.73 148.367 24.39C148.927 24.04 149.552 23.865 150.242 23.865C150.912 23.865 151.512 24.04 152.042 24.39C152.582 24.73 153.007 25.195 153.317 25.785C153.637 26.365 153.797 27.015 153.797 27.735V28.08H147.632C147.692 28.57 147.847 29.01 148.097 29.4C148.357 29.79 148.692 30.1 149.102 30.33C149.512 30.55 149.962 30.66 150.452 30.66C150.842 30.66 151.222 30.6 151.592 30.48C151.962 30.36 152.272 30.19 152.522 29.97L153.212 30.705C152.792 31.015 152.352 31.25 151.892 31.41C151.442 31.56 150.947 31.635 150.407 31.635ZM147.662 27.195H152.687C152.627 26.745 152.477 26.345 152.237 25.995C152.007 25.635 151.717 25.355 151.367 25.155C151.017 24.945 150.632 24.84 150.212 24.84C149.782 24.84 149.387 24.94 149.027 25.14C148.667 25.34 148.367 25.62 148.127 25.98C147.887 26.33 147.732 26.735 147.662 27.195Z" fill="white"/>
<path d="M183.536 17.0982C183.745 17.2411 183.83 17.4315 183.792 17.6696L181.363 31.3839C181.332 31.5565 181.231 31.6905 181.06 31.7857C180.971 31.8333 180.873 31.8571 180.766 31.8571C180.696 31.8571 180.62 31.8423 180.538 31.8125L176.241 30.1607L173.945 32.7946C173.831 32.9315 173.676 33 173.48 33C173.398 33 173.328 32.9881 173.272 32.9643C173.151 32.9226 173.055 32.8527 172.982 32.7545C172.91 32.6563 172.873 32.5476 172.873 32.4286V29.3125L181.069 19.8571L170.928 28.1161L167.181 26.6696C166.947 26.5863 166.821 26.4226 166.802 26.1786C166.789 25.9405 166.89 25.7649 167.105 25.6518L182.891 17.0804C182.986 17.0268 183.087 17 183.194 17C183.321 17 183.435 17.0327 183.536 17.0982Z" fill="white"/>
<defs>
<radialGradient id="paint0_radial_1157_2017" cx="0" cy="0" r="1" gradientUnits="userSpaceOnUse" gradientTransform="translate(120.694 -2.67857) rotate(-0.449693) scale(113.761 23.7022)">
<stop stop-color="#C3A5E9"/>
<stop offset="1" stop-color="#A16FFF"/>
</radialGradient>
</defs>
</svg>
