<svg width="300" height="64" viewBox="0 0 300 64" fill="none" xmlns="http://www.w3.org/2000/svg">
<circle cx="32" cy="31.5" r="30" fill="url(#paint0_radial_491_1279)" stroke="white" stroke-width="3"/>
<circle cx="77" cy="32.5" r="30" fill="url(#paint1_radial_491_1279)" stroke="white" stroke-width="3"/>
<circle cx="126" cy="32.5" r="30" fill="url(#paint2_radial_491_1279)" stroke="white" stroke-width="3"/>
<circle cx="170" cy="32.5" r="30" fill="url(#paint3_radial_491_1279)" stroke="white" stroke-width="3"/>
<circle cx="218" cy="32.5" r="30" fill="url(#paint4_radial_491_1279)" stroke="white" stroke-width="3"/>
<circle cx="268" cy="32.5" r="30" fill="url(#paint5_radial_491_1279)" stroke="white" stroke-width="3"/>
<path d="M267.394 18.6542L257.357 24.3073C257.173 24.4082 257.02 24.5564 256.914 24.7364C256.807 24.9165 256.75 25.1218 256.75 25.331V36.6532C256.751 36.8627 256.807 37.0681 256.914 37.2485C257.02 37.4289 257.173 37.5777 257.356 37.6798L267.395 43.3413C267.581 43.4455 267.789 43.5002 268.002 43.5002C268.214 43.5002 268.423 43.4455 268.608 43.3413L278.644 37.6807C278.827 37.5786 278.98 37.4296 279.086 37.249C279.193 37.0685 279.249 36.8628 279.25 36.6532V25.3376C279.25 25.1282 279.193 24.9227 279.087 24.7425C278.98 24.5623 278.827 24.4139 278.643 24.3129L268.609 18.6588C268.424 18.5547 268.215 18.5 268.003 18.5C267.79 18.5 267.581 18.5547 267.396 18.6588L267.394 18.6542Z" fill="#388E3C"/>
<path d="M257.036 37.36C257.134 37.4848 257.255 37.5892 257.393 37.6675L266.004 42.5238L267.439 43.3319C267.651 43.4525 267.894 43.5067 268.137 43.4875C268.218 43.4805 268.297 43.4661 268.375 43.4444L278.962 24.5144C278.882 24.4283 278.789 24.3544 278.687 24.295L272.106 20.5882L268.633 18.6363C268.534 18.5813 268.429 18.5403 268.319 18.5144L257.036 37.36Z" fill="#4CAF50"/>
<path d="M279.143 37.3268C279.044 37.4509 278.921 37.5548 278.781 37.6328L270.029 42.4658L268.571 43.27C268.356 43.3901 268.108 43.444 267.861 43.4249C267.779 43.4179 267.698 43.4036 267.619 43.382L256.857 24.5409C256.94 24.4552 257.034 24.3816 257.139 24.3226L263.826 20.6353L267.356 18.6928C267.456 18.6381 267.564 18.5973 267.675 18.5715L279.143 37.3268Z" fill="#66BB6A"/>
<path d="M214.325 19.5C213.377 19.5 212.468 19.8767 211.797 20.5471C211.127 21.2175 210.75 22.1269 210.75 23.075V25.175H216.113C216.6 25.175 217 25.8875 217 26.375H208.075C207.127 26.375 206.218 26.7516 205.547 27.4221C204.877 28.0925 204.5 29.0019 204.5 29.95V34.6762C204.5 35.6244 204.877 36.5337 205.547 37.2042C206.218 37.8746 207.127 38.2512 208.075 38.2512H209.55V34.9012C209.548 34.4324 209.639 33.9678 209.818 33.5341C209.996 33.1004 210.258 32.7062 210.589 32.3741C210.92 32.042 211.313 31.7784 211.746 31.5986C212.179 31.4188 212.644 31.3262 213.113 31.3263H219.675C221.65 31.3263 223.25 29.7375 223.25 27.7625V23.075C223.25 22.1269 222.873 21.2175 222.203 20.5471C221.532 19.8767 220.623 19.5 219.675 19.5H214.325ZM213.425 21.5125C213.925 21.5125 214.325 21.6625 214.325 22.4C214.325 23.1375 213.925 23.5138 213.425 23.5138C212.938 23.5138 212.538 23.1388 212.538 22.4013C212.538 21.6638 212.938 21.5125 213.425 21.5125Z" fill="#0288D1"/>
<path d="M224.449 25.75V29.1C224.45 29.5688 224.359 30.0332 224.181 30.4668C224.002 30.9003 223.74 31.2943 223.409 31.6263C223.078 31.9583 222.685 32.2218 222.252 32.4015C221.819 32.5812 221.355 32.6738 220.886 32.6737H214.325C213.856 32.6721 213.392 32.763 212.958 32.9413C212.524 33.1196 212.13 33.3818 211.798 33.7128C211.466 34.0437 211.202 34.437 211.022 34.87C210.843 35.3031 210.75 35.7674 210.75 36.2362V40.9237C210.75 41.8719 211.127 42.7812 211.797 43.4517C212.468 44.1221 213.377 44.4988 214.325 44.4988H219.675C220.623 44.4988 221.532 44.1223 222.202 43.4521C222.873 42.7819 223.25 41.8729 223.25 40.925V38.825H217.886C217.399 38.825 217 38.1125 217 37.625H225.925C226.873 37.625 227.782 37.2484 228.453 36.5779C229.123 35.9075 229.5 34.9981 229.5 34.05V29.325C229.5 28.3769 229.123 27.4675 228.453 26.7971C227.782 26.1267 226.873 25.75 225.925 25.75H224.449ZM212.4 31.3912L212.395 31.3963L212.443 31.3912H212.4ZM220.575 40.4862C221.062 40.4862 221.462 40.8613 221.462 41.5988C221.462 41.7153 221.44 41.8307 221.395 41.9384C221.35 42.0461 221.285 42.1439 221.203 42.2263C221.12 42.3087 221.022 42.3741 220.915 42.4187C220.807 42.4633 220.692 42.4862 220.575 42.4862C220.075 42.4862 219.675 42.3363 219.675 41.5988C219.675 40.8613 220.075 40.4862 220.575 40.4862Z" fill="#FDD835"/>
<path d="M118.16 37.9969C118.16 37.9969 117.043 38.6471 118.956 38.8665C121.275 39.1313 122.459 39.0933 125.014 38.6105C125.014 38.6105 125.686 39.0312 126.624 39.3959C120.897 41.8498 113.662 39.2536 118.16 37.9969ZM117.46 34.7942C117.46 34.7942 116.206 35.7221 118.121 35.9204C120.598 36.1761 122.553 36.1969 125.939 35.5454C125.939 35.5454 126.406 36.02 127.141 36.2792C120.218 38.3042 112.506 36.4386 117.46 34.7942Z" fill="#0074BD"/>
<path d="M123.359 29.3605C124.772 30.9859 122.989 32.4472 122.989 32.4472C122.989 32.4472 126.573 30.5977 124.927 28.2807C123.39 26.1209 122.212 25.0482 128.592 21.3479C128.592 21.3481 118.577 23.8487 123.359 29.3605Z" fill="#EA2D2E"/>
<path d="M130.935 40.3661C130.935 40.3661 131.763 41.0482 130.024 41.5753C126.719 42.5765 116.265 42.8784 113.362 41.6154C112.318 41.1611 114.275 40.5314 114.891 40.3985C115.533 40.2595 115.9 40.2848 115.9 40.2848C114.739 39.4675 108.397 41.8903 112.679 42.5852C124.355 44.478 133.964 41.7328 130.935 40.3661ZM118.698 31.4751C118.698 31.4751 113.381 32.7382 116.816 33.1973C118.266 33.3914 121.156 33.3468 123.85 33.1209C126.05 32.936 128.259 32.5411 128.259 32.5411C128.259 32.5411 127.484 32.8736 126.922 33.2566C121.522 34.6772 111.091 34.0155 114.094 32.5633C116.633 31.3354 118.698 31.4751 118.698 31.4751ZM128.237 36.8065C133.726 33.9548 131.188 31.2143 129.416 31.5834C128.983 31.6736 128.789 31.7522 128.789 31.7522C128.789 31.7522 128.95 31.4993 129.258 31.3905C132.762 30.1589 135.457 35.024 128.127 36.9511C128.127 36.9506 128.211 36.8744 128.237 36.8065Z" fill="#0074BD"/>
<path d="M124.928 15.3721C124.928 15.3721 127.967 18.4133 122.045 23.0884C117.295 26.8398 120.961 28.9782 122.043 31.4225C119.27 28.9211 117.236 26.7186 118.6 24.669C120.604 21.6611 126.154 20.2021 124.928 15.3721Z" fill="#EA2D2E"/>
<path d="M119.238 44.5363C124.505 44.8731 132.597 44.3488 132.788 41.856C132.788 41.856 132.42 42.801 128.434 43.5507C123.938 44.3973 118.391 44.2986 115.102 43.7556C115.102 43.7558 115.775 44.3136 119.238 44.5363Z" fill="#0074BD"/>
<path d="M14 21.9688L28.649 17L43.6835 21.8918L41.2538 40.355L28.649 47L16.2488 40.4412L14 21.9688Z" fill="#E23237"/>
<path d="M44.0004 21.892L28.9658 17V47L41.5706 40.355L44.0004 21.892Z" fill="#B52E31"/>
<path d="M28.8844 20.2915L19.7559 39.6415L23.1624 39.5758L25.0018 35.2035H33.1663L35.1652 39.6097L38.4132 39.6753L28.8844 20.2915ZM28.9069 26.5033L31.9957 32.6506H26.2137L28.9159 26.5033H28.9069Z" fill="white"/>
<path d="M167 34.3193C168.294 34.3193 169.344 33.27 169.344 31.9756C169.344 30.6812 168.294 29.6318 167 29.6318C165.706 29.6318 164.656 30.6812 164.656 31.9756C164.656 33.27 165.706 34.3193 167 34.3193Z" fill="#00D8FF"/>
<path d="M167 37.3493C164.183 37.4172 161.373 37.0375 158.675 36.2243C157.429 35.8293 156.266 35.2069 155.247 34.3887C154.857 34.1093 154.533 33.749 154.296 33.3324C154.06 32.9159 153.916 32.453 153.875 31.9756C153.875 30.4259 155.577 28.9072 158.429 27.9134C161.2 27.0336 164.094 26.6068 167 26.6497C169.868 26.61 172.723 27.0291 175.458 27.8909C176.658 28.274 177.781 28.8662 178.775 29.6403C179.157 29.9072 179.476 30.2546 179.709 30.6581C179.942 31.0616 180.084 31.5113 180.125 31.9756C180.125 33.5862 178.222 35.2184 175.156 36.2328C172.511 37.0197 169.76 37.3963 167 37.3493ZM167 27.7709C164.22 27.7346 161.451 28.1403 158.798 28.9728C156.173 29.8887 154.996 31.1412 154.996 31.9728C154.996 32.8428 156.261 34.2106 159.038 35.1603C161.619 35.9347 164.306 36.2951 167 36.2281C169.64 36.2753 172.272 35.918 174.805 35.1687C177.688 34.2134 179 32.8437 179 31.9756C178.953 31.6777 178.844 31.3929 178.681 31.1391C178.518 30.8853 178.304 30.668 178.053 30.5009C177.164 29.814 176.161 29.2891 175.09 28.9503C172.473 28.1294 169.742 27.7313 167 27.7709Z" fill="#00D8FF"/>
<path d="M161.675 43.6653C161.237 43.6753 160.805 43.5692 160.422 43.3578C159.08 42.5834 158.615 40.3503 159.178 37.3831C159.8 34.5437 160.876 31.8234 162.366 29.3272C163.763 26.8234 165.553 24.5592 167.665 22.6203C168.597 21.772 169.671 21.095 170.838 20.6206C171.26 20.4233 171.721 20.321 172.187 20.321C172.653 20.321 173.114 20.4233 173.536 20.6206C174.932 21.425 175.394 23.8887 174.742 27.0509C174.102 29.7365 173.054 32.3079 171.634 34.6756C170.285 37.1499 168.552 39.3944 166.5 41.3253C165.535 42.2073 164.415 42.9031 163.197 43.3775C162.71 43.5589 162.195 43.6563 161.675 43.6653ZM163.337 29.884C161.916 32.2744 160.885 34.8753 160.281 37.5894C159.762 40.3222 160.26 41.9656 160.984 42.3837C161.734 42.8178 163.554 42.4062 165.765 40.475C167.724 38.6253 169.378 36.4768 170.665 34.1094C172.026 31.8458 173.031 29.3873 173.647 26.8194C174.261 23.8428 173.731 22.0203 172.979 21.5872C172.697 21.4794 172.396 21.4311 172.095 21.4455C171.793 21.4598 171.498 21.5365 171.228 21.6706C170.189 22.0995 169.234 22.7082 168.406 23.4687C166.388 25.3261 164.679 27.4937 163.343 29.8897L163.337 29.884Z" fill="#00D8FF"/>
<path d="M172.322 43.6776C171.052 43.6776 169.438 42.9089 167.758 41.4642C165.609 39.5074 163.789 37.2163 162.37 34.6795C160.9 32.2178 159.832 29.5367 159.207 26.7379C158.937 25.5064 158.887 24.2369 159.059 22.9879C159.1 22.5248 159.241 22.0761 159.473 21.6733C159.705 21.2705 160.023 20.9234 160.404 20.6564C161.798 19.8492 164.163 20.6789 166.577 22.822C168.584 24.7178 170.288 26.9101 171.63 29.3226C173.1 31.7268 174.179 34.3491 174.827 37.0917C175.109 38.3683 175.153 39.6861 174.955 40.9785C174.909 41.4552 174.759 41.9161 174.517 42.3296C174.276 42.7431 173.947 43.0993 173.555 43.3739C173.178 43.5822 172.753 43.687 172.322 43.6776ZM163.341 34.1151C164.702 36.5394 166.44 38.7321 168.489 40.611C170.598 42.4251 172.27 42.8151 172.989 42.3923C173.739 41.9564 174.293 40.177 173.723 37.2979C173.098 34.6794 172.063 32.1762 170.656 29.8814C169.375 27.5724 167.749 25.4731 165.833 23.6564C163.56 21.6389 161.717 21.1879 160.966 21.6229C160.732 21.8132 160.54 22.0499 160.402 22.3181C160.264 22.5862 160.183 22.8801 160.164 23.181C160.016 24.2949 160.064 25.4262 160.308 26.5232C160.909 29.1998 161.933 31.7632 163.342 34.117L163.341 34.1151Z" fill="#00D8FF"/>
<path fill-rule="evenodd" clip-rule="evenodd" d="M81.6338 26.0342C82.0099 27.1224 82.2809 28.2333 82.3699 29.3848C82.4805 30.8133 82.4299 32.2318 82.1288 33.6368C82.1205 33.6755 82.1032 33.7118 82.0903 33.7493C81.9959 33.7496 81.8995 33.7379 81.8072 33.7521C81.027 33.8747 80.2474 34.0018 79.4679 34.1281C78.6621 34.2586 77.8552 34.384 77.0508 34.5235C76.7658 34.5727 76.413 34.5139 76.298 34.9081C76.2947 34.9189 76.2619 34.9207 76.2429 34.9268L76.2818 32.5711L76.2422 26.8871L76.6177 26.8226C77.2317 26.7221 77.8458 26.6201 78.4603 26.5224C79.1937 26.4059 79.9277 26.2927 80.6616 26.179C80.9852 26.1286 81.3094 26.0825 81.6338 26.0342Z" fill="#439934"/>
<path fill-rule="evenodd" clip-rule="evenodd" d="M75.4677 41.7938C75.0716 41.4533 74.6616 41.1277 74.2819 40.7696C72.2389 38.8426 70.7445 36.5745 70.0086 33.8401C69.8059 33.0875 69.6706 32.3227 69.6273 31.5451C69.5968 31.0008 69.5527 30.4517 69.5912 29.9103C69.6936 28.4703 69.9017 27.0441 70.3241 25.6571L70.3473 25.6248C70.3883 25.6794 70.4473 25.7276 70.4682 25.7893C70.8804 27.0033 71.2899 28.2183 71.6968 29.4341C72.976 33.2544 74.2536 37.0756 75.5349 40.895C75.56 40.9695 75.6249 41.0307 75.6716 41.098L75.4677 41.7938Z" fill="#45A538"/>
<path fill-rule="evenodd" clip-rule="evenodd" d="M81.6337 26.034C81.3093 26.0823 80.9849 26.1285 80.6613 26.1784C79.9274 26.2921 79.1934 26.4053 78.46 26.5217C77.8455 26.6195 77.2314 26.7214 76.6174 26.822L76.2419 26.8864L76.2391 26.6415C76.2266 26.4402 76.2053 26.2391 76.203 26.0378C76.1868 24.7538 76.1767 23.4699 76.1608 22.186C76.1509 21.3824 76.1362 20.5789 76.1198 19.7755C76.1097 19.2763 76.0989 18.7768 76.0764 18.2783C76.0642 18.0104 76.0211 17.7439 76.0035 17.476C75.9937 17.3221 76.0073 17.1669 76.0103 17.0122C76.2018 17.3832 76.3891 17.7571 76.5859 18.1253C76.897 18.7074 77.3924 19.1363 77.8384 19.6044C79.6016 21.4541 80.8534 23.6047 81.6337 26.034Z" fill="#46A037"/>
<path fill-rule="evenodd" clip-rule="evenodd" d="M76.2432 34.9265C76.2622 34.9204 76.2952 34.9186 76.2983 34.9078C76.4134 34.5136 76.7661 34.5724 77.0511 34.5232C77.8555 34.384 78.6624 34.2583 79.4682 34.1278C80.2477 34.0015 81.0273 33.8744 81.8075 33.7518C81.8998 33.7373 81.9962 33.7493 82.0906 33.749C81.9448 34.2693 81.83 34.8009 81.6451 35.3069C81.4351 35.8809 81.181 36.4411 80.9113 36.9902C80.5077 37.8094 80.0078 38.5776 79.4223 39.2784C78.9725 39.8193 78.4712 40.3193 77.9687 40.8131C77.6909 41.0861 77.3635 41.3086 77.0588 41.554L76.9798 41.5L76.6953 41.2568L76.4009 40.6115C76.1999 39.8588 76.0902 39.0847 76.0742 38.3057L76.0796 38.1743L76.1197 37.6057C76.133 37.4116 76.1509 37.2178 76.1591 37.0232C76.1893 36.3243 76.2155 35.6254 76.2432 34.9265Z" fill="#409433"/>
<path fill-rule="evenodd" clip-rule="evenodd" d="M76.2429 34.9265C76.2152 35.6254 76.1889 36.3243 76.1592 37.0234C76.151 37.218 76.1332 37.4118 76.1198 37.6059L75.9405 37.6736C75.5423 36.5012 75.1439 35.3413 74.7541 34.1783C74.1096 32.2544 73.4728 30.3273 72.8292 28.4029C72.3094 26.8496 71.7859 25.2974 71.2589 23.7466C71.2343 23.6739 71.1635 23.6172 71.1143 23.553L72.2618 21.4431C72.3011 21.5116 72.3532 21.5755 72.378 21.6491C72.9095 23.2199 73.4382 24.7917 73.9643 26.3643C74.6477 28.4104 75.3269 30.4581 76.0099 32.5044C76.0371 32.5862 76.0821 32.6617 76.125 32.7534L76.282 32.5705L76.2429 34.9265Z" fill="#4FAA41"/>
<path fill-rule="evenodd" clip-rule="evenodd" d="M71.1145 23.5532C71.1637 23.6174 71.2343 23.6742 71.2591 23.7468C71.7862 25.2977 72.3096 26.8498 72.8295 28.4031C73.473 30.3276 74.1098 32.2546 74.7544 34.1786C75.1439 35.3413 75.5423 36.5015 75.9408 37.6738L76.1201 37.6061L76.08 38.1747L76.0437 38.3057C75.9813 38.9282 75.9288 39.5521 75.8529 40.1732C75.8147 40.4845 75.7336 40.7901 75.672 41.0983C75.6255 41.031 75.5604 40.9699 75.5353 40.8953C74.254 37.0757 72.9764 33.2547 71.6972 29.4344C71.2902 28.2186 70.8807 27.0037 70.4686 25.7896C70.4477 25.728 70.3889 25.6797 70.3477 25.6251L71.1145 23.5532Z" fill="#4AA73C"/>
<path fill-rule="evenodd" clip-rule="evenodd" d="M76.282 32.5709L76.1249 32.7537C76.082 32.6621 76.037 32.5863 76.0098 32.5048C75.3271 30.4585 74.6477 28.4107 73.9642 26.3646C73.4382 24.792 72.9094 23.2203 72.378 21.6495C72.3534 21.5759 72.3013 21.5117 72.2617 21.4435L73.6809 19.5767C73.7256 19.6364 73.7894 19.6896 73.8126 19.7569C74.2063 20.9103 74.5972 22.0649 74.9852 23.2205C75.3477 24.2996 75.7049 25.3803 76.0717 26.4579C76.0963 26.5301 76.1819 26.5812 76.2391 26.6421L76.2419 26.8871C76.2555 28.7814 76.2688 30.676 76.282 32.5709Z" fill="#57AE47"/>
<path fill-rule="evenodd" clip-rule="evenodd" d="M76.2389 26.6417C76.1817 26.5807 76.0961 26.5296 76.0715 26.4575C75.7047 25.3798 75.3475 24.2991 74.985 23.22C74.597 22.0646 74.2061 20.91 73.8124 19.7564C73.7892 19.6892 73.7254 19.636 73.6807 19.5762C74.1421 19.1243 74.5893 18.6563 75.0693 18.2253C75.4961 17.8423 75.8393 17.4317 75.855 16.8265C75.8557 16.8014 75.8688 16.7764 75.8889 16.7061L76.0106 17.0121C76.0075 17.1671 75.9937 17.322 76.0038 17.476C76.0214 17.7439 76.0645 18.0104 76.0767 18.2782C76.0992 18.7768 76.11 19.2762 76.12 19.7754C76.1362 20.5789 76.151 21.3823 76.1611 22.186C76.1768 23.4699 76.1871 24.7538 76.2032 26.0377C76.2051 26.2395 76.2262 26.4404 76.2389 26.6417Z" fill="#60B24F"/>
<path fill-rule="evenodd" clip-rule="evenodd" d="M75.6717 41.0981C75.7333 40.7899 75.8144 40.4841 75.8526 40.1731C75.9288 39.5522 75.9811 38.9281 76.0434 38.3056L76.0589 38.3032L76.0743 38.3058C76.0903 39.0847 76.2 39.8589 76.4011 40.6116C76.3598 40.666 76.3014 40.7145 76.2796 40.7759C76.1093 41.2563 75.9487 41.7406 75.7774 42.221C75.7539 42.2867 75.6888 42.3378 75.6429 42.3954L75.4678 41.794L75.6717 41.0981Z" fill="#A9AA88"/>
<path fill-rule="evenodd" clip-rule="evenodd" d="M75.6426 42.3956C75.6885 42.338 75.7539 42.2869 75.7771 42.2213C75.9484 41.7408 76.1092 41.2568 76.2794 40.7761C76.3012 40.7147 76.3593 40.6662 76.4008 40.6118L76.6949 41.2573C76.6368 41.3398 76.5566 41.4141 76.5243 41.506L75.9609 43.1604C75.9377 43.2267 75.8584 43.2736 75.8055 43.3296L75.6426 42.3956Z" fill="#B6B598"/>
<path fill-rule="evenodd" clip-rule="evenodd" d="M75.8057 43.3292C75.8589 43.2734 75.9379 43.2263 75.9611 43.16L76.5245 41.5055C76.5566 41.4139 76.637 41.3393 76.6951 41.2568L76.9799 41.4999C76.8423 41.6358 76.7659 41.7929 76.8118 41.9914L76.7254 42.2745C76.686 42.323 76.629 42.3652 76.6096 42.4207C76.4129 42.9839 76.2252 43.5502 76.0271 44.1134C76.0021 44.1849 75.9325 44.2409 75.8832 44.3037C75.8576 43.9789 75.8318 43.654 75.8057 43.3292Z" fill="#C2C1A7"/>
<path fill-rule="evenodd" clip-rule="evenodd" d="M75.8833 44.3039C75.9323 44.2408 76.0019 44.1848 76.0272 44.1136C76.2252 43.5506 76.413 42.9843 76.6096 42.4209C76.6291 42.3656 76.6858 42.3232 76.7254 42.2747L76.6061 43.5743C76.5742 43.6111 76.528 43.6432 76.5128 43.6861C76.378 44.0643 76.251 44.4454 76.1158 44.8237C76.0879 44.9018 76.0345 44.9707 75.9927 45.0436C75.9557 44.995 75.8894 44.9482 75.8863 44.8975C75.8744 44.7004 75.8826 44.5019 75.8833 44.3039Z" fill="#CECDB7"/>
<path fill-rule="evenodd" clip-rule="evenodd" d="M75.9932 45.0435C76.0349 44.9704 76.0883 44.9015 76.1162 44.8237C76.2517 44.4456 76.3785 44.0645 76.5132 43.686C76.5285 43.6431 76.5749 43.6113 76.6065 43.5742L76.6093 44.4273L76.3239 45.1595L75.9932 45.0435Z" fill="#DBDAC7"/>
<path fill-rule="evenodd" clip-rule="evenodd" d="M76.3232 45.1597L76.6087 44.4275L76.6675 45.2937L76.3232 45.1597Z" fill="#EBE9DC"/>
<path fill-rule="evenodd" clip-rule="evenodd" d="M76.8122 41.9917C76.7663 41.7932 76.8425 41.6359 76.9803 41.5002L77.0593 41.5541L76.8122 41.9917Z" fill="#CECDB7"/>
<path fill-rule="evenodd" clip-rule="evenodd" d="M76.0739 38.3061L76.0584 38.3035L76.043 38.3058L76.0793 38.1748L76.0739 38.3061Z" fill="#4FAA41"/>
<defs>
<radialGradient id="paint0_radial_491_1279" cx="0" cy="0" r="1" gradientUnits="userSpaceOnUse" gradientTransform="translate(32.42 2.80395e-06) rotate(90) scale(63)">
<stop stop-color="#7D7D7D"/>
<stop offset="0.601917" stop-color="#1E1D28"/>
</radialGradient>
<radialGradient id="paint1_radial_491_1279" cx="0" cy="0" r="1" gradientUnits="userSpaceOnUse" gradientTransform="translate(77.42 1) rotate(90) scale(63)">
<stop stop-color="#7D7D7D"/>
<stop offset="0.601917" stop-color="#1E1D28"/>
</radialGradient>
<radialGradient id="paint2_radial_491_1279" cx="0" cy="0" r="1" gradientUnits="userSpaceOnUse" gradientTransform="translate(126.42 1) rotate(90) scale(63)">
<stop stop-color="#7D7D7D"/>
<stop offset="0.601917" stop-color="#1E1D28"/>
</radialGradient>
<radialGradient id="paint3_radial_491_1279" cx="0" cy="0" r="1" gradientUnits="userSpaceOnUse" gradientTransform="translate(170.42 1) rotate(90) scale(63)">
<stop stop-color="#7D7D7D"/>
<stop offset="0.601917" stop-color="#1E1D28"/>
</radialGradient>
<radialGradient id="paint4_radial_491_1279" cx="0" cy="0" r="1" gradientUnits="userSpaceOnUse" gradientTransform="translate(218.42 1) rotate(90) scale(63)">
<stop stop-color="#7D7D7D"/>
<stop offset="0.601917" stop-color="#1E1D28"/>
</radialGradient>
<radialGradient id="paint5_radial_491_1279" cx="0" cy="0" r="1" gradientUnits="userSpaceOnUse" gradientTransform="translate(268.42 1) rotate(90) scale(63)">
<stop stop-color="#7D7D7D"/>
<stop offset="0.601917" stop-color="#1E1D28"/>
</radialGradient>
</defs>
</svg>
