<svg width="134" height="54" viewBox="0 0 134 54" fill="none" xmlns="http://www.w3.org/2000/svg">
<path d="M28.5 1C43.2116 1 55.1006 12.6612 55.1006 27C55.1006 41.3388 43.2116 53 28.5 53C13.7886 52.9998 1.90039 41.3387 1.90039 27C1.90039 12.6613 13.7886 1.00021 28.5 1Z" fill="url(#paint0_radial_491_1280)" stroke="#FFFEFE" stroke-width="2"/>
<path d="M67.7197 1C82.4313 1 94.3203 12.6612 94.3203 27C94.3203 41.3388 82.4313 53 67.7197 53C53.0083 52.9998 41.1201 41.3387 41.1201 27C41.1201 12.6613 53.0083 1.00021 67.7197 1Z" fill="url(#paint1_radial_491_1280)" stroke="#FFF4F4" stroke-width="2"/>
<path d="M105.5 1C120.212 1 132.101 12.6612 132.101 27C132.101 41.3388 120.212 53 105.5 53C90.7886 52.9998 78.9004 41.3387 78.9004 27C78.9004 12.6613 90.7886 1.00021 105.5 1Z" fill="url(#paint2_radial_491_1280)" stroke="#FFFEFE" stroke-width="2"/>
<g clip-path="url(#clip0_491_1280)">
<path d="M24.191 39.9293C26.5702 39.9293 28.5011 37.9984 28.5011 35.6192V31.3091H24.191C21.8118 31.3091 19.8809 33.24 19.8809 35.6192C19.8809 37.9984 21.8118 39.9293 24.191 39.9293Z" fill="#0ACF83"/>
<path d="M19.8809 26.9991C19.8809 24.6199 21.8118 22.689 24.191 22.689H28.5011V31.3092H24.191C21.8118 31.3092 19.8809 29.3783 19.8809 26.9991Z" fill="#A259FF"/>
<path d="M19.8799 18.379C19.8799 15.9998 21.8108 14.0688 24.19 14.0688H28.5001V22.6891H24.19C21.8108 22.6891 19.8799 20.7581 19.8799 18.379Z" fill="#F24E1E"/>
<path d="M28.501 14.0688H32.8111C35.1903 14.0688 37.1212 15.9998 37.1212 18.379C37.1212 20.7581 35.1903 22.6891 32.8111 22.6891H28.501V14.0688Z" fill="#FF7262"/>
<path d="M37.1212 26.9991C37.1212 29.3783 35.1903 31.3092 32.8111 31.3092C30.4319 31.3092 28.501 29.3783 28.501 26.9991C28.501 24.6199 30.4319 22.689 32.8111 22.689C35.1903 22.689 37.1212 24.6199 37.1212 26.9991Z" fill="#1ABCFE"/>
</g>
<path d="M62.1108 18C61.7161 18 61.3213 18 60.9136 18.0169C60.5055 18.0334 60.1239 18.0334 59.7686 18.0503C59.4134 18.0669 59.0845 18.0669 58.7688 18.0834C58.4661 18.1 58.2556 18.1 58.0319 18.1C57.9399 18.1 57.9004 18.1666 57.9004 18.2834V35.4334C57.9004 35.5834 57.9529 35.6503 58.0583 35.6503H60.6109C60.7029 35.6334 60.7687 35.5334 60.7554 35.4169V30.0669C61.0053 30.0669 61.1896 30.0669 61.3213 30.0834C61.4528 30.1 61.6633 30.1 61.979 30.1C63.0581 30.1 64.0449 29.95 64.9394 29.5334C65.7947 29.1334 66.5316 28.4334 67.0578 27.5C67.5841 26.5667 67.8472 25.3833 67.8472 23.95C67.8472 23.2 67.7421 22.4834 67.5448 21.7834C67.3357 21.0703 67.0081 20.4223 66.5841 19.8834C66.0838 19.2677 65.4815 18.8008 64.821 18.5166C64.0841 18.1666 63.1896 18 62.1108 18ZM62.4043 21.2828C62.8731 21.2941 63.3295 21.3978 63.7553 21.6166C64.1369 21.8 64.4527 22.1334 64.6764 22.5666C64.8863 23.0148 64.9913 23.5294 64.9791 24.0503C64.9791 24.7834 64.8474 25.3503 64.5711 25.7669C64.2815 26.1834 63.9131 26.5003 63.4923 26.6503C63.0053 26.8503 62.4922 26.95 61.979 26.95H61.2816C61.1237 26.95 60.953 26.9334 60.7687 26.9169V21.3169C60.8608 21.3 61.045 21.2834 61.3083 21.3003C61.5582 21.2834 61.8606 21.2834 62.2028 21.2834C62.2702 21.2814 62.3374 21.2811 62.4043 21.2828ZM73.4391 22.1337C72.5049 22.1337 71.7285 22.3169 71.1103 22.7169C70.5446 23.0503 70.0576 23.5834 69.7288 24.25C69.4394 24.8669 69.2813 25.55 69.2813 26.2669C69.27 26.8565 69.374 27.4405 69.584 27.9669C69.8301 28.5274 70.1717 29.0113 70.5841 29.3834C71.1629 29.8849 71.791 30.2883 72.4523 30.5834C73.097 30.9 73.5311 31.15 73.7418 31.3666C73.9523 31.5834 74.0576 31.8 74.0576 32.0334C74.0576 32.3334 73.9128 32.6169 73.7024 32.7334C73.4655 32.8834 73.1103 32.9669 72.6102 32.9669C72.084 32.9669 71.5576 32.8834 71.0575 32.7169C70.4833 32.5544 69.9328 32.2789 69.4261 31.9003C69.3866 31.8669 69.3472 31.8503 69.3077 31.8838C69.2682 31.9169 69.2551 31.9834 69.2551 32.0334V34.9334C69.2421 35.0669 69.3077 35.1834 69.4 35.25C69.8266 35.5025 70.2779 35.6819 70.742 35.7834C71.3341 35.9334 71.9259 36 72.531 36C73.4784 36 74.268 35.8169 74.9127 35.4669C75.5047 35.1669 76.0179 34.6503 76.3862 33.9834C76.7311 33.3278 76.9101 32.5546 76.8993 31.7669C76.9123 31.1718 76.8084 30.5819 76.5969 30.0503C76.3467 29.4834 75.9915 29.0169 75.5573 28.6669C74.9221 28.1616 74.242 27.7531 73.5311 27.45C73.2137 27.2836 72.902 27.1001 72.5969 26.9C72.4259 26.7834 72.2681 26.6334 72.1496 26.45C72.0707 26.3166 72.0182 26.1669 72.0182 26.0169C72.0182 25.8669 72.0576 25.7003 72.1232 25.5669C72.2155 25.4003 72.3601 25.2834 72.531 25.2334C72.7812 25.1503 73.0575 25.1 73.3205 25.1166C73.8205 25.1166 74.3073 25.2 74.7942 25.3334C75.2417 25.45 75.6626 25.6334 76.0573 25.9003C76.1099 25.9334 76.1757 25.9334 76.2942 25.9003C76.3147 25.881 76.3314 25.8558 76.3428 25.8268C76.3543 25.7979 76.3602 25.7659 76.36 25.7334V23.0169C76.36 22.95 76.3467 22.8834 76.3336 22.8169C76.3072 22.7503 76.2547 22.6834 76.2021 22.6669C75.8392 22.479 75.459 22.3502 75.0705 22.2834C74.5303 22.1838 73.9851 22.134 73.4391 22.1337Z" fill="#31A8FF"/>
<path d="M114.567 14V22.3337H106.234L97.9004 14H114.567ZM97.9004 22.3337H106.234L114.567 30.6663H106.234V39L97.9004 30.6663V22.3337Z" fill="#E6E6E6"/>
<defs>
<radialGradient id="paint0_radial_491_1280" cx="0" cy="0" r="1" gradientUnits="userSpaceOnUse" gradientTransform="translate(28.8684 2.40339e-06) rotate(90) scale(54 55.2)">
<stop stop-color="#7D7D7D"/>
<stop offset="0.601917" stop-color="#1E1D28"/>
</radialGradient>
<radialGradient id="paint1_radial_491_1280" cx="0" cy="0" r="1" gradientUnits="userSpaceOnUse" gradientTransform="translate(68.0881 2.40339e-06) rotate(90) scale(54 55.2)">
<stop stop-color="#7D7D7D"/>
<stop offset="0.601917" stop-color="#1E1D28"/>
</radialGradient>
<radialGradient id="paint2_radial_491_1280" cx="0" cy="0" r="1" gradientUnits="userSpaceOnUse" gradientTransform="translate(105.868 2.40339e-06) rotate(90) scale(54 55.2)">
<stop stop-color="#7D7D7D"/>
<stop offset="0.601917" stop-color="#1E1D28"/>
</radialGradient>
<clipPath id="clip0_491_1280">
<rect width="17.2417" height="25.8607" fill="white" transform="translate(19.8799 14.0688)"/>
</clipPath>
</defs>
</svg>
