<svg width="336" height="65" viewBox="0 0 336 65" fill="none" xmlns="http://www.w3.org/2000/svg">
<path d="M30.0002 37.1437C33.1172 37.1437 35.6439 34.6169 35.6439 31.5C35.6439 28.383 33.1172 25.8562 30.0002 25.8562C26.8832 25.8562 24.3564 28.383 24.3564 31.5C24.3564 34.6169 26.8832 37.1437 30.0002 37.1437Z" fill="#4E8EF7"/>
<path d="M41.5174 21.9235C41.518 21.5513 41.4113 21.1868 41.2103 20.8736C41.0092 20.5604 40.7222 20.3116 40.3836 20.1572C40.045 20.0027 39.669 19.949 39.3007 20.0024C38.9324 20.0559 38.5872 20.2143 38.3065 20.4587C35.5101 18.3545 32.0198 17.3888 28.5396 17.7565C25.0593 18.1241 21.8479 19.7977 19.5528 22.4397C17.2578 25.0817 16.0498 28.4956 16.1726 31.9931C16.2953 35.4906 17.7396 38.8114 20.2142 41.2861C22.6889 43.7607 26.0097 45.205 29.5072 45.3277C33.0047 45.4505 36.4186 44.2425 39.0606 41.9475C41.7026 39.6524 43.3762 36.441 43.7438 32.9607C44.1114 29.4804 43.1458 25.9902 41.0416 23.1938C41.3486 22.8418 41.5176 22.3905 41.5174 21.9235ZM30.0002 44.8594C27.8836 44.8612 25.7969 44.3599 23.9119 43.3971C22.027 42.4342 20.3979 41.0372 19.1587 39.3212C17.9195 37.6053 17.1058 35.6194 16.7846 33.5273C16.4634 31.4352 16.644 29.2967 17.3113 27.2881C17.9786 25.2794 19.1137 23.4581 20.623 21.9741C22.1322 20.4901 23.9725 19.386 25.9922 18.7527C28.0118 18.1194 30.1531 17.9751 32.2394 18.3316C34.3258 18.6881 36.2976 19.5352 37.9924 20.8032C37.7276 21.1765 37.6034 21.6315 37.642 22.0876C37.6805 22.5437 37.8791 22.9715 38.2028 23.2952C38.5264 23.6188 38.9542 23.8175 39.4103 23.856C39.8664 23.8945 40.3214 23.7703 40.6947 23.5055C42.1776 25.4909 43.0791 27.8495 43.2984 30.3178C43.5177 32.7861 43.0462 35.2668 41.9365 37.4824C40.8269 39.6981 39.1228 41.5615 37.0149 42.8642C34.907 44.167 32.4782 44.8578 30.0002 44.8594Z" fill="#4E8EF7"/>
<circle cx="31.5" cy="33.5" r="30" fill="url(#paint0_radial_491_1277)" stroke="white" stroke-width="3"/>
<circle cx="78.5" cy="33.5" r="30" fill="url(#paint1_radial_491_1277)" stroke="white" stroke-width="3"/>
<circle cx="121.5" cy="31.5" r="30" fill="url(#paint2_radial_491_1277)" stroke="white" stroke-width="3"/>
<circle cx="168.5" cy="31.5" r="30" fill="url(#paint3_radial_491_1277)" stroke="white" stroke-width="3"/>
<circle cx="214.5" cy="31.5" r="30" fill="url(#paint4_radial_491_1277)" stroke="white" stroke-width="3"/>
<circle cx="261.5" cy="31.5" r="30" fill="url(#paint5_radial_491_1277)" stroke="white" stroke-width="3"/>
<circle cx="304.5" cy="31.5" r="30" fill="url(#paint6_radial_491_1277)" stroke="white" stroke-width="3"/>
<path d="M242.883 32.0469L257.883 17H267.117L247.523 36.5938L242.883 32.0469ZM257.883 47H267.117L259.125 39.0078L267.117 30.8516H257.883L249.891 38.9141L257.883 47Z" fill="#3FB6D3"/>
<path d="M259.125 39.0078L254.437 34.3203L249.891 38.9141L254.437 43.5078L259.125 39.0078Z" fill="#27AACD"/>
<path d="M267.117 47L259.125 39.0078L254.438 43.5078L257.883 47H267.117Z" fill="#19599A"/>
<path d="M254.438 43.5078L261.656 41.5391L259.125 39.0078L254.438 43.5078Z" fill="url(#paint7_linear_491_1277)"/>
<path d="M205.898 17.0022C205.401 17.0212 204.928 17.1568 204.5 17.4332C203.645 17.9867 203.135 19.0022 202.905 20.204C202.676 21.4061 202.7 22.8355 202.929 24.4352C203.017 25.0521 203.146 25.7007 203.295 26.3637C202.708 26.5503 202.142 26.7501 201.622 26.9729C200.272 27.5511 199.156 28.2423 198.343 29.0662C197.529 29.8901 197 30.8927 197 31.9996C197 33.1066 197.529 34.11 198.343 34.9336C199.156 35.7578 200.272 36.449 201.622 37.0272C202.142 37.25 202.708 37.4492 203.294 37.6361C203.145 38.2992 203.016 38.9478 202.928 39.5643C202.7 41.1648 202.676 42.5937 202.905 43.7955C203.135 44.9979 203.645 46.0131 204.5 46.5666C205.355 47.1201 206.394 47.108 207.437 46.7295C208.48 46.3511 209.572 45.6134 210.693 44.5913C211.126 44.1976 211.562 43.7488 212 43.272C212.437 43.7488 212.874 44.1976 213.306 44.5913C214.428 45.6136 215.519 46.3513 216.563 46.7298C217.606 47.1082 218.645 47.1201 219.5 46.5668C220.355 46.0131 220.865 44.9979 221.095 43.7958C221.324 42.5937 221.3 41.1646 221.071 39.5646C220.983 38.9478 220.854 38.2992 220.705 37.6361C221.292 37.4495 221.858 37.2498 222.378 37.0272C223.728 36.4493 224.844 35.7578 225.657 34.9339C226.471 34.11 227 33.1066 227 31.9996C227 30.8927 226.471 29.8898 225.657 29.0662C224.844 28.2425 223.728 27.5508 222.378 26.9729C221.858 26.7503 221.292 26.5503 220.706 26.3637C220.855 25.7007 220.983 25.0518 221.071 24.4352C221.3 22.8355 221.324 21.4061 221.094 20.204C220.865 19.0019 220.355 17.9867 219.5 17.4332C218.645 16.8798 217.606 16.8919 216.563 17.2703C215.52 17.6487 214.428 18.3867 213.306 19.4085C212.874 19.8027 212.437 20.2516 211.999 20.7283C211.562 20.2519 211.125 19.8025 210.693 19.4085C209.572 18.3867 208.481 17.6482 207.438 17.2698C206.916 17.0806 206.395 16.9838 205.898 17.0022ZM205.958 18.4595C206.27 18.4495 206.627 18.5139 207.036 18.6619C207.854 18.9588 208.835 19.6001 209.87 20.5436C210.269 20.9068 210.677 21.3273 211.089 21.7761C210.23 22.8169 209.378 24.0003 208.554 25.3067C207.133 25.4539 205.793 25.6894 204.56 26.0032C204.419 25.3792 204.298 24.7732 204.217 24.2037C204.006 22.7267 204.001 21.4534 204.181 20.5105C204.361 19.5678 204.697 18.9948 205.152 18.7002C205.38 18.5531 205.646 18.469 205.958 18.4595ZM218.042 18.4595C218.354 18.4692 218.62 18.5528 218.848 18.7002C219.303 18.9946 219.639 19.5675 219.819 20.5102C219.999 21.4529 219.995 22.7265 219.784 24.2037C219.703 24.7727 219.582 25.3795 219.441 26.0029C218.208 25.6894 216.868 25.4536 215.446 25.3067C214.622 24.0006 213.77 22.8169 212.911 21.7759C213.322 21.3273 213.731 20.9065 214.13 20.5433C215.165 19.5993 216.146 18.9591 216.964 18.6621C217.373 18.5139 217.73 18.4495 218.042 18.4595ZM212 22.8282C212.614 23.5791 213.196 24.3619 213.744 25.174C213.171 25.1451 212.591 25.1256 212 25.1256C211.409 25.1256 210.829 25.1448 210.256 25.174C210.804 24.3617 211.386 23.5789 212 22.8282ZM212 26.5884C212.934 26.5884 213.845 26.6297 214.727 26.7041C215.24 27.5465 215.724 28.4103 216.18 29.2935C216.634 30.1774 217.059 31.08 217.453 31.9996C217.059 32.9191 216.634 33.8216 216.18 34.7053C215.724 35.5888 215.24 36.4528 214.726 37.2955C213.845 37.3699 212.934 37.4114 212 37.4114C211.09 37.4112 210.18 37.3726 209.273 37.2958C208.76 36.453 208.275 35.5889 207.82 34.7053C207.366 33.8218 206.941 32.9194 206.547 32.0002C206.941 31.0806 207.366 30.1779 207.821 29.294C208.276 28.4106 208.761 27.5467 209.274 26.7041C210.181 26.6272 211.09 26.5887 212 26.5884ZM207.6 26.8941C207.286 27.4426 206.983 27.999 206.691 28.5629C206.401 29.1282 206.123 29.7007 205.856 30.2801C205.503 29.3417 205.189 28.3853 204.916 27.4139C205.757 27.2037 206.653 27.0276 207.6 26.8941ZM216.4 26.8941C217.302 27.0202 218.197 27.1937 219.084 27.4139C218.811 28.3854 218.497 29.3421 218.144 30.2806C217.877 29.701 217.599 29.1281 217.31 28.5626C217.018 27.9987 216.714 27.4426 216.4 26.8941ZM203.648 27.7721C204.023 29.1266 204.511 30.5458 205.108 31.9991C204.511 33.453 204.023 34.8727 203.648 36.2272C203.096 36.0524 202.568 35.8661 202.087 35.6606C200.84 35.1271 199.855 34.4942 199.216 33.8477C198.578 33.2017 198.304 32.5889 198.304 31.9994C198.304 31.4102 198.578 30.7978 199.216 30.1518C199.855 29.5053 200.841 28.8728 202.087 28.3393C202.568 28.1335 203.096 27.9471 203.648 27.7721ZM220.352 27.7721C220.904 27.9471 221.433 28.1337 221.913 28.3398C223.16 28.8733 224.145 29.5056 224.784 30.1518C225.422 30.7984 225.696 31.4107 225.696 31.9996C225.696 32.5891 225.422 33.202 224.784 33.848C224.145 34.4945 223.16 35.1268 221.913 35.6606C221.433 35.8661 220.904 36.0522 220.352 36.2272C219.977 34.8729 219.489 33.4538 218.892 32.0002C219.49 30.5463 219.977 29.1269 220.352 27.7721ZM212 29.0015C211.291 29.0017 210.611 29.3176 210.11 29.8798C209.608 30.442 209.326 31.2045 209.326 31.9996C209.326 32.7948 209.608 33.5573 210.11 34.1196C210.611 34.6818 211.291 34.9977 212 34.9978C212.709 34.9976 213.389 34.6817 213.891 34.1195C214.392 33.5573 214.674 32.7948 214.674 31.9996C214.674 31.2045 214.392 30.442 213.891 29.8797C213.389 29.3175 212.709 29.0016 212 29.0015ZM218.144 33.7192C218.497 34.6578 218.811 35.6144 219.084 36.5859C218.243 36.7962 217.347 36.9725 216.401 37.1063C216.715 36.5575 217.018 36.0008 217.309 35.4367C217.599 34.8713 217.877 34.2987 218.144 33.7192ZM205.856 33.7197C206.123 34.299 206.401 34.8715 206.691 35.4367C206.983 36.0007 207.286 36.5573 207.6 37.106C206.699 36.9802 205.803 36.8066 204.916 36.5859C205.189 35.6146 205.503 34.6581 205.856 33.7197ZM204.559 37.9969C205.792 38.3102 207.133 38.5454 208.554 38.6923C209.378 39.9993 210.23 41.183 211.089 42.2245C210.678 42.6726 210.27 43.093 209.871 43.457C208.835 44.4005 207.854 45.0418 207.035 45.3387C206.218 45.6352 205.607 45.5945 205.152 45.2998C204.697 45.005 204.361 44.4326 204.181 43.4899C204.001 42.5469 204.005 41.2736 204.217 39.7959C204.298 39.2269 204.418 38.6203 204.559 37.9969ZM219.441 37.9969C219.581 38.6203 219.702 39.2269 219.784 39.7959C219.995 41.2736 219.999 42.5469 219.819 43.4899C219.639 44.4328 219.303 45.0055 218.848 45.3006C218.393 45.595 217.782 45.6352 216.964 45.3382C216.146 45.0412 215.165 44.4 214.13 43.4565C213.731 43.093 213.323 42.6726 212.912 42.2239C213.77 41.1832 214.622 39.999 215.446 38.6923C216.867 38.5454 218.207 38.3102 219.441 37.9969ZM210.256 38.8253C210.837 38.8564 211.419 38.8727 212 38.8742C212.582 38.8727 213.163 38.8564 213.744 38.8253C213.196 39.638 212.614 40.4212 212 41.1722C211.386 40.4211 210.804 39.638 210.256 38.8253Z" fill="#61DAFB"/>
<path d="M112.367 20.2344H125.609C128.445 20.2344 130.742 22.5313 130.742 25.3672V38.6094C130.742 41.4453 128.445 43.7422 125.609 43.7422H112.367C109.531 43.7422 107.234 41.4453 107.234 38.6094V25.3672C107.234 22.5313 109.531 20.2344 112.367 20.2344Z" fill="url(#paint8_linear_491_1277)"/>
<path d="M125.211 21.5H112.766C110.398 21.5 108.477 23.4219 108.477 25.7891V38.2344C108.477 40.6016 110.398 42.5234 112.766 42.5234H125.211C127.578 42.5234 129.5 40.6016 129.5 38.2344V25.7656C129.5 23.3984 127.578 21.5 125.211 21.5ZM129.148 38.2813C129.148 40.4375 127.414 42.1719 125.258 42.1719H112.719C110.586 42.1719 108.828 40.4375 108.828 38.2813V25.7188C108.828 23.5625 110.563 21.8281 112.719 21.8281H125.281C127.414 21.8281 129.172 23.5625 129.172 25.7188V38.2813H129.148Z" fill="white"/>
<path d="M119.023 22.3438C113.727 22.3438 109.414 26.6562 109.414 31.9531C109.414 37.25 113.727 41.5625 119.023 41.5625C124.344 41.5625 128.633 37.25 128.633 31.9531C128.633 26.6562 124.32 22.3438 119.023 22.3438ZM119.023 41.4219C113.797 41.4219 109.555 37.1797 109.555 31.9531C109.555 26.7266 113.797 22.4844 119.023 22.4844C124.25 22.4844 128.492 26.7266 128.492 31.9531C128.492 37.1797 124.25 41.4219 119.023 41.4219Z" fill="#69C5F3"/>
<path d="M119.023 24.3125C114.781 24.3125 111.359 27.7344 111.359 31.9766C111.359 36.2188 114.781 39.6172 119.023 39.6172C123.266 39.6172 126.688 36.1953 126.688 31.9531C126.688 27.7109 123.242 24.3125 119.023 24.3125ZM119.023 39.4531C114.875 39.4531 111.523 36.1016 111.523 31.9531C111.523 27.8047 114.875 24.4531 119.023 24.4531C123.172 24.4531 126.523 27.8047 126.523 31.9531C126.523 36.1016 123.148 39.4531 119.023 39.4531Z" fill="#68C5F4"/>
<path d="M111.687 33.7109H126.312C126.922 33.7109 127.39 34.2031 127.39 34.7891C127.39 35.3984 126.898 35.8672 126.312 35.8672H111.687C111.078 35.8672 110.609 35.375 110.609 34.7891C110.586 34.2031 111.078 33.7109 111.687 33.7109Z" fill="white"/>
<path d="M111.641 33.9219H126.312C126.781 33.9219 127.18 34.2969 127.18 34.7891V34.8125C127.18 35.2813 126.805 35.6797 126.312 35.6797H111.641C111.172 35.6797 110.773 35.3047 110.773 34.8125V34.7656C110.797 34.2969 111.172 33.9219 111.641 33.9219Z" fill="#0A93E9"/>
<path d="M111.289 35.5859H126.688L126.805 35.5156H111.172L111.289 35.5859Z" fill="#1694EA"/>
<path d="M110.938 35.3047H127.016L127.062 35.2344H110.891L110.938 35.3047Z" fill="#319DEC"/>
<path d="M110.797 34.8594H127.18V34.7656H110.797V34.8594Z" fill="#65B1EE"/>
<path d="M110.961 34.2734H127.039L127.062 34.3203L127.086 34.3672H110.914L110.938 34.3203L110.961 34.2734Z" fill="#8EC6F3"/>
<path d="M111.313 33.9922H126.688L126.758 34.0156L126.828 34.0625H111.172L111.242 34.0156L111.313 33.9922Z" fill="#95CAF3"/>
<path d="M125.891 33.9219H125.773C125.773 33.9219 126.172 34.2031 126.172 34.8359C126.172 35.4219 125.773 35.6797 125.773 35.6797H125.891C125.891 35.6797 126.289 35.4922 126.289 34.8359C126.289 34.1328 125.891 33.9219 125.891 33.9219Z" fill="url(#paint9_linear_491_1277)"/>
<path d="M124.766 33.9219H124.648C124.648 33.9219 125 34.25 125 34.8359C125 35.3516 124.648 35.6797 124.648 35.6797H124.766C124.766 35.6797 125.117 35.4219 125.117 34.8359C125.094 34.2031 124.766 33.9219 124.766 33.9219Z" fill="url(#paint10_linear_491_1277)"/>
<path d="M118.93 33.9219H119.047V35.6797H118.93V33.9219Z" fill="url(#paint11_linear_491_1277)"/>
<path d="M117.781 33.9219H117.898C117.898 33.9219 117.852 34.3672 117.852 34.8359C117.852 35.2578 117.898 35.6797 117.898 35.6797H117.781C117.781 35.6797 117.734 35.2578 117.734 34.8359C117.734 34.3672 117.781 33.9219 117.781 33.9219Z" fill="url(#paint12_linear_491_1277)"/>
<path d="M116.656 33.9219H116.773C116.773 33.9219 116.656 34.3672 116.656 34.8359C116.656 35.2578 116.773 35.6797 116.773 35.6797H116.656C116.656 35.6797 116.539 35.2578 116.539 34.8359C116.539 34.3672 116.656 33.9219 116.656 33.9219Z" fill="url(#paint13_linear_491_1277)"/>
<path d="M115.508 33.9219H115.625C115.625 33.9219 115.461 34.3672 115.461 34.8359C115.461 35.2578 115.625 35.6797 115.625 35.6797H115.508C115.508 35.6797 115.344 35.2578 115.344 34.8359C115.344 34.3672 115.508 33.9219 115.508 33.9219Z" fill="url(#paint14_linear_491_1277)"/>
<path d="M114.359 33.9219H114.477C114.477 33.9219 114.242 34.2969 114.242 34.8359C114.242 35.3047 114.477 35.6797 114.477 35.6797H114.359C114.359 35.6797 114.125 35.3047 114.125 34.8359C114.125 34.2969 114.359 33.9219 114.359 33.9219Z" fill="url(#paint15_linear_491_1277)"/>
<path d="M113.211 33.9219H113.328C113.328 33.9219 112.977 34.25 112.977 34.8359C112.977 35.3516 113.328 35.6797 113.328 35.6797H113.211C113.211 35.6797 112.859 35.4219 112.859 34.8359C112.883 34.2031 113.211 33.9219 113.211 33.9219Z" fill="url(#paint16_linear_491_1277)"/>
<path d="M112.086 33.9219H112.203C112.203 33.9219 111.805 34.2031 111.805 34.8359C111.805 35.4219 112.203 35.6797 112.203 35.6797H112.086C112.086 35.6797 111.688 35.4922 111.688 34.8359C111.688 34.1328 112.086 33.9219 112.086 33.9219Z" fill="url(#paint17_linear_491_1277)"/>
<path d="M118.532 24.9922L125.844 37.6485C126.149 38.1641 125.961 38.8203 125.446 39.125C124.93 39.4297 124.274 39.2422 123.969 38.7266L116.657 26.0703C116.352 25.5547 116.539 24.8985 117.055 24.5938C117.571 24.2891 118.227 24.4766 118.532 24.9922Z" fill="white"/>
<path d="M118.344 25.0861L125.68 37.7892C125.915 38.1876 125.774 38.7267 125.375 38.9611L125.329 38.9845C124.93 39.2189 124.391 39.0782 124.157 38.6798L116.821 25.9532C116.586 25.5548 116.727 25.0157 117.125 24.7814L117.149 24.7579C117.571 24.5236 118.11 24.6642 118.344 25.0861Z" fill="url(#paint18_linear_491_1277)"/>
<path d="M116.703 25.6016L124.391 38.9375L124.437 38.9609L124.484 38.9844L124.531 39.0078L116.703 25.4609V25.6016Z" fill="url(#paint19_linear_491_1277)"/>
<path d="M116.773 25.1562L124.813 39.0781H124.906L116.82 25.0859L116.797 25.1328L116.773 25.1562Z" fill="url(#paint20_linear_491_1277)"/>
<path d="M117.102 24.8047L125.305 38.9844L125.375 38.9375L117.172 24.7578L117.102 24.8047Z" fill="url(#paint21_linear_491_1277)"/>
<path d="M117.688 24.6641L125.703 38.5625L125.68 38.6094L125.656 38.6563L117.57 24.6406H117.617L117.688 24.6641Z" fill="url(#paint22_linear_491_1277)"/>
<path d="M118.109 24.8047L125.797 38.1172V38.2578L117.969 24.7344L118.016 24.7578L118.063 24.7813L118.109 24.8047Z" fill="url(#paint23_linear_491_1277)"/>
<path d="M125.445 37.3672L125.398 37.2734C125.398 37.2734 125.352 37.7422 124.836 38.0703C124.344 38.375 123.898 38.1641 123.898 38.1641L123.945 38.2578C123.945 38.2578 124.32 38.5156 124.883 38.1641C125.445 37.8359 125.445 37.3672 125.445 37.3672ZM124.859 36.3828L124.813 36.2891C124.813 36.2891 124.695 36.7578 124.203 37.0391C123.758 37.3203 123.312 37.1797 123.312 37.1797L123.359 37.2734C123.359 37.2734 123.758 37.4375 124.273 37.1328C124.789 36.8281 124.859 36.3828 124.859 36.3828Z" fill="#3C98EA"/>
<path d="M124.297 35.3984L124.25 35.3047C124.25 35.3047 124.039 35.7031 123.594 35.9609C123.195 36.1953 122.75 36.1953 122.75 36.1953L122.797 36.2891C122.797 36.2891 123.219 36.2891 123.641 36.0547C124.086 35.7969 124.297 35.3984 124.297 35.3984Z" fill="#4CA4ED"/>
<path d="M123.734 34.4141L123.688 34.3203C123.688 34.3203 123.383 34.7187 122.984 34.9297C122.609 35.1406 122.164 35.2109 122.164 35.2109L122.211 35.3047C122.211 35.3047 122.656 35.2344 123.031 35.0234C123.406 34.8125 123.734 34.4141 123.734 34.4141Z" fill="#4DA7EE"/>
<path d="M121.414 30.4297L121.461 30.5234C121.461 30.5234 121.062 30.7109 120.664 30.9219C120.289 31.1328 119.961 31.4141 119.961 31.4141L119.914 31.3203C119.914 31.3203 120.266 31.0391 120.617 30.8281C121.016 30.6172 121.414 30.4297 121.414 30.4297Z" fill="url(#paint24_linear_491_1277)"/>
<path d="M120.852 29.4453L120.898 29.5391C120.898 29.5391 120.453 29.6797 120.078 29.9141C119.703 30.125 119.398 30.4531 119.398 30.4531L119.352 30.3594C119.352 30.3594 119.656 30.0313 120.031 29.8203C120.406 29.5625 120.852 29.4453 120.852 29.4453Z" fill="url(#paint25_linear_491_1277)"/>
<path d="M119.797 28.6719C120.101 28.5781 120.336 28.5313 120.336 28.5313L120.289 28.4375C120.289 28.4375 120.078 28.4609 119.844 28.5547C119.703 28.6016 119.68 28.7188 119.797 28.6719Z" fill="#9DD4F7"/>
<path d="M119.141 26.4921L119.188 26.5859C119.188 26.5859 118.742 26.4687 118.227 26.7499C117.781 27.0312 117.688 27.4765 117.688 27.4765L117.641 27.3827C117.641 27.3827 117.687 26.9843 118.18 26.6796C118.695 26.3515 119.141 26.4921 119.141 26.4921Z" fill="url(#paint26_linear_491_1277)"/>
<path d="M118.578 25.4844L118.648 25.5781C118.648 25.5781 118.18 25.3906 117.641 25.6953C117.125 26.0235 117.125 26.4688 117.125 26.4688L117.055 26.375C117.055 26.375 117.008 25.9766 117.57 25.625C118.156 25.2735 118.578 25.4844 118.578 25.4844Z" fill="url(#paint27_linear_491_1277)"/>
<path d="M117.008 33.711C119.047 30.1953 121.391 26.1172 121.391 26.1172C121.696 25.6016 121.508 24.9453 120.992 24.6406C120.477 24.336 119.821 24.5235 119.516 25.0391C119.516 25.0391 116.657 30.0078 114.5 33.711H117.008ZM115.742 35.8672C114.758 37.5547 114.078 38.7735 114.078 38.7735C113.774 39.2891 113.117 39.4766 112.602 39.1719C112.086 38.8672 111.899 38.211 112.203 37.6953C112.203 37.6953 112.602 36.9688 113.235 35.8906C114.032 35.8672 115.485 35.8672 115.742 35.8672Z" fill="white"/>
<path d="M116.75 33.7109C118.813 30.1484 121.204 26 121.204 26C121.438 25.6015 121.297 25.0625 120.899 24.8281L120.875 24.8046C120.477 24.5703 119.938 24.7109 119.704 25.1093C119.704 25.1093 116.891 29.9843 114.735 33.7109H116.75ZM115.508 35.8671C114.571 37.5078 113.891 38.6796 113.891 38.6796C113.657 39.0781 113.141 39.2187 112.719 38.9843H112.672C112.274 38.75 112.133 38.2343 112.368 37.8125C112.368 37.8125 112.813 37.039 113.493 35.8671H115.508Z" fill="url(#paint28_linear_491_1277)"/>
<path d="M116.68 33.7109L121.344 25.6484V25.5078C121.344 25.5078 118.766 29.9844 116.609 33.7109H116.68ZM115.414 35.8672L113.633 38.9609L113.562 39.0078L113.492 39.0312C113.492 39.0312 114.289 37.6484 115.32 35.8672H115.414Z" fill="url(#paint29_linear_491_1277)"/>
<path d="M116.328 33.7109L121.25 25.2031L121.227 25.1563L121.203 25.1094C121.203 25.1094 118.508 29.7734 116.258 33.6875L116.328 33.7109ZM115.086 35.8672L113.211 39.1016H113.117C113.117 39.1016 113.914 37.7188 114.992 35.8438C115.039 35.8672 115.086 35.8672 115.086 35.8672Z" fill="url(#paint30_linear_491_1277)"/>
<path d="M115.813 33.7109C118.133 29.7031 120.922 24.8516 120.922 24.8516L120.852 24.8047L115.695 33.7109H115.813ZM114.547 35.8906C113.516 37.6953 112.742 39.0312 112.742 39.0312L112.672 38.9844C112.672 38.9844 113.422 37.6719 114.453 35.8906C114.5 35.8672 114.477 35.8672 114.547 35.8906Z" fill="url(#paint31_linear_491_1277)"/>
<path d="M115.25 33.7109C117.57 29.7031 120.453 24.6875 120.453 24.6875H120.359C120.359 24.6875 117.477 29.6797 115.156 33.7109H115.25ZM113.891 35.8672C112.953 37.4844 112.32 38.5859 112.32 38.5859L112.344 38.6328L112.367 38.6797C112.367 38.6797 113.047 37.5078 114.008 35.8672H113.891Z" fill="url(#paint32_linear_491_1277)"/>
<path d="M114.898 33.7109L120.055 24.7812L120.008 24.8047L119.961 24.8281L119.938 24.8516C119.938 24.8516 117.078 29.7969 114.828 33.7109H114.898ZM113.656 35.8672C112.836 37.2969 112.25 38.3047 112.25 38.3047V38.1172C112.25 38.1172 112.766 37.2266 113.562 35.8438C113.609 35.8672 113.609 35.8672 113.656 35.8672Z" fill="url(#paint33_linear_491_1277)"/>
<path d="M119.469 25.4844L119.422 25.5782C119.422 25.5782 119.844 25.3672 120.406 25.6719C120.922 25.9532 120.945 26.4454 120.945 26.4454L120.992 26.3516C120.992 26.3516 121.039 25.9063 120.453 25.5782C119.867 25.25 119.469 25.4844 119.469 25.4844Z" fill="url(#paint34_linear_491_1277)"/>
<path d="M118.906 26.4921L118.859 26.5859C118.859 26.5859 119.328 26.4452 119.82 26.7265C120.289 26.9843 120.383 27.4296 120.383 27.4296L120.43 27.3359C120.43 27.3359 120.383 26.914 119.867 26.6327C119.328 26.328 118.906 26.4921 118.906 26.4921Z" fill="url(#paint35_linear_491_1277)"/>
<path d="M118.32 27.4766L118.273 27.5703C118.273 27.5703 118.695 27.5469 119.164 27.8281C119.586 28.0625 119.797 28.4375 119.797 28.4375L119.844 28.3438C119.844 28.3438 119.633 27.9687 119.211 27.7344C118.766 27.4766 118.32 27.4766 118.32 27.4766Z" fill="url(#paint36_linear_491_1277)"/>
<path d="M117.758 28.4844L117.711 28.5781C117.711 28.5781 118.18 28.6484 118.578 28.8828C118.953 29.0938 119.234 29.4453 119.234 29.4453L119.281 29.3516C119.281 29.3516 119 29 118.625 28.7891C118.227 28.5547 117.758 28.4844 117.758 28.4844Z" fill="url(#paint37_linear_491_1277)"/>
<path d="M117.172 29.4688L117.125 29.5625C117.125 29.5625 117.57 29.6797 117.969 29.9141C118.344 30.125 118.648 30.4297 118.648 30.4297L118.695 30.3359C118.695 30.3359 118.391 30.0312 118.016 29.8203C117.641 29.6094 117.172 29.4688 117.172 29.4688Z" fill="url(#paint38_linear_491_1277)"/>
<path d="M116.609 30.4531L116.539 30.5469C116.539 30.5469 116.961 30.7109 117.359 30.9453C117.734 31.1562 118.063 31.4141 118.063 31.4141L118.109 31.3203C118.109 31.3203 117.781 31.0625 117.406 30.8516C117.031 30.6406 116.609 30.4531 116.609 30.4531Z" fill="url(#paint39_linear_491_1277)"/>
<path d="M115.977 31.5547L116.023 31.4609L117.547 32.3281L117.5 32.4219L115.977 31.5547Z" fill="url(#paint40_linear_491_1277)"/>
<path d="M115.414 32.5625L115.461 32.4688C115.461 32.4688 115.836 32.75 116.234 32.9609C116.609 33.1719 116.984 33.3359 116.984 33.3359L116.938 33.4062C116.938 33.4062 116.539 33.2422 116.164 33.0313C115.766 32.8203 115.414 32.5625 115.414 32.5625Z" fill="url(#paint41_linear_491_1277)"/>
<path d="M115.039 33.7109C114.922 33.6172 114.852 33.5469 114.852 33.5469L114.898 33.4531C114.898 33.4531 115.039 33.5703 115.227 33.7109H115.039Z" fill="#73B9F1"/>
<path d="M114.125 35.8672C114.219 35.9375 114.313 36.0078 114.43 36.0781C114.852 36.3125 115.273 36.2891 115.273 36.2891L115.227 36.3828C115.227 36.3828 114.805 36.4063 114.383 36.1719C114.219 36.0781 114.078 35.9609 113.984 35.8672H114.125Z" fill="url(#paint42_linear_491_1277)"/>
<path d="M113.117 36.5234L113.164 36.4297C113.164 36.4297 113.281 36.8984 113.797 37.1797C114.266 37.4375 114.687 37.2969 114.687 37.2969L114.641 37.3906C114.641 37.3906 114.266 37.5547 113.75 37.2734C113.211 36.9687 113.117 36.5234 113.117 36.5234Z" fill="url(#paint43_linear_491_1277)"/>
<path d="M112.531 37.5313L112.578 37.4375C112.578 37.4375 112.625 37.9297 113.187 38.2344C113.703 38.5156 114.102 38.3047 114.102 38.3047L114.031 38.3984C114.031 38.3984 113.68 38.6563 113.117 38.3281C112.531 38 112.531 37.5313 112.531 37.5313Z" fill="url(#paint44_linear_491_1277)"/>
<path d="M120.125 43.7656L130.156 22.6953L127.625 21.5L117.172 43.4141C117.172 43.4141 117.5 43.5781 117.922 43.7656H120.125Z" fill="url(#paint45_linear_491_1277)"/>
<path d="M126.055 20.2344L130.742 22.4609V29.1875C129.125 28.4141 118.297 23.2578 118.297 23.2578C118.297 23.2578 119.047 21.6875 119.75 20.2344H126.055Z" fill="url(#paint46_radial_491_1277)"/>
<path d="M114.43 42.8282C114.359 42.9688 114.242 43.1328 114.266 43.3907C114.289 44.3516 115.859 45.2422 116.774 45.2422C117.406 45.2422 117.617 44.9844 117.852 44.5157C118.086 44.0469 114.688 42.2657 114.43 42.8282Z" fill="url(#paint47_radial_491_1277)"/>
<path d="M125.234 22.8828C125.234 22.8828 127.648 23.4687 127.836 23.6328C128.023 23.7969 127.531 24.7344 127.437 24.875C126.664 25.8125 124.25 30.9922 124.25 30.9922L122.023 29.7266C122.023 29.7266 124.016 26.0234 124.719 24.7109C125.164 23.8203 125.234 22.8828 125.234 22.8828Z" fill="url(#paint48_linear_491_1277)"/>
<path d="M130.812 21.664C131.234 21.9687 131.796 21.8984 132.242 21.8281C132.546 21.7812 132.078 22.2265 131.562 23.2578C131.046 24.289 131.07 24.3593 131 24.289C130.929 24.2187 128.609 22.9062 128.679 22.789C128.773 22.6718 129.148 20.1171 129.336 20.1875C130.015 20.3515 130.132 21.1718 130.812 21.664Z" fill="url(#paint49_linear_491_1277)"/>
<path d="M127.203 24.5469C127.368 24.2891 128.118 22.6953 129.313 22.6953C129.852 22.6953 130.883 24.0547 130.977 24.2422C131.047 24.4062 130.813 25.0625 130.696 24.7578C130.555 24.4062 129.969 23.6562 129.336 23.6562C128.703 23.6562 127.836 24.3828 127.625 24.6406C127.414 24.875 127.039 24.8047 127.203 24.5469Z" fill="url(#paint50_linear_491_1277)"/>
<path d="M127.156 24.4532C127.274 24.2657 127.813 23.4454 128.07 23.1876C128.328 22.9297 128.985 22.2501 129.547 22.1563C130.11 22.0626 130.695 23.211 130.508 23.4454C130.367 23.6094 130.133 23.4219 129.852 23.1876C129.57 22.9766 129.383 22.5547 128.492 23.2344C128.188 23.4688 127.883 23.6563 127.18 24.6641C126.992 24.9219 127.039 24.6407 127.156 24.4532Z" fill="url(#paint51_linear_491_1277)"/>
<path d="M124.25 31.2968C124.344 31.1093 124.461 30.828 124.203 30.6171C123.922 30.4061 122.61 29.703 122.375 29.6561C122.141 29.6093 121.953 29.6561 121.86 29.8202C121.766 29.9843 114.57 42.3124 114.43 42.664C114.289 43.0155 114.266 43.2733 114.477 43.3436C114.688 43.414 117.102 44.5624 117.336 44.8202C117.57 45.078 117.688 44.7968 117.781 44.6561C118.227 44.0936 124.133 31.4843 124.25 31.2968Z" fill="url(#paint52_linear_491_1277)"/>
<path d="M127.32 24.4062C127.438 24.2422 127.719 23.7734 128.07 23.3516C128.305 23.0703 129.57 22.4609 129.852 21.4766C130.016 20.9375 129.758 20.3984 129.406 20.1641C128.211 19.4375 126.148 18.2891 123.125 18.2891C121.086 18.2891 120.219 18.9687 120.219 18.9687H121.25L124.836 20.375L125.281 22.25C125.281 22.25 125.328 22.8828 125.117 23.6094C124.977 24.1953 124.93 24.5469 124.719 25.1328C124.883 25.2031 125.258 24.9453 125.68 25.0625C126.055 25.1563 126.289 25.6719 126.547 25.3672C126.992 24.7812 127.133 24.6641 127.32 24.4062Z" fill="url(#paint53_linear_491_1277)"/>
<path d="M125.211 22.9531C125.023 21.2187 124.602 19.5781 120.195 19.6015C120.477 19.3202 121.156 19.039 121.156 19.039L120.195 18.9687C120.195 18.9687 120.336 18.8515 120.617 18.8281C123.195 18.6171 125.492 19.1562 125.328 22.5077C125.305 23.0468 125.258 23.2812 125.211 22.9531Z" fill="url(#paint54_linear_491_1277)"/>
<path d="M120.195 19.6016C120.5 19.4844 120.922 19.4141 121.719 19.461C122.703 19.5079 123.945 19.8829 124.461 20.3516C124.719 20.586 124.695 20.3985 124.414 20.0938C123.688 19.2501 122.586 19.0626 121.156 19.0391C120.992 19.0157 120.453 19.3204 120.195 19.6016Z" fill="url(#paint55_linear_491_1277)"/>
<path d="M132.289 21.8281L133.578 22.4844C133.578 22.4844 133.086 23.1406 132.688 23.8906C132.266 24.6875 131.984 25.5547 131.984 25.5547L130.742 24.8047C130.742 24.8047 131.047 23.9609 131.492 23.1406C131.844 22.4609 132.289 21.8281 132.289 21.8281Z" fill="url(#paint56_linear_491_1277)"/>
<path d="M133.579 22.4843C133.672 22.5312 133.368 23.2577 132.922 24.1015C132.477 24.9452 132.055 25.6015 131.985 25.5546C131.891 25.5077 132.196 24.7812 132.641 23.9374C133.063 23.0937 133.485 22.4374 133.579 22.4843Z" fill="#BFC0D0"/>
<path d="M72.023 21.1484H65.4371C64.1246 21.1484 63.0465 22.2266 63.0465 23.5625C62.9996 24.8516 64.0308 25.9297 65.3199 25.9766H72.0933L72.023 21.1484Z" fill="#073042"/>
<path d="M86.9531 42.6172H65.4375C64.1016 42.6172 63.0469 41.5391 63.0469 40.2031V23.5391C63.0469 24.875 64.125 25.9531 65.4375 25.9766H83.4609C83.4609 25.9766 86.9766 25.6719 86.9766 28.3203V42.6172H86.9531Z" fill="#4285F4"/>
<path d="M76.9219 34.086C77.8828 33.3594 78.0703 32.0001 77.3437 31.0626C76.9453 30.5469 76.3359 30.2188 75.6797 30.1954H75.75C75.8672 30.1719 76.0078 30.1719 76.125 30.1954V28.8594C76.125 28.6954 76.0547 28.5547 75.9141 28.4844C75.7031 28.3672 75.4453 28.4376 75.3281 28.6485C75.2812 28.7188 75.2578 28.7891 75.2812 28.8829V30.2422C74.1094 30.4297 73.2891 31.5313 73.4766 32.7266V32.7501C73.5703 33.3126 73.875 33.8282 74.3438 34.1563L70.3828 42.6407H72.9609L74.7891 38.7501C75 38.2813 75.5625 38.0704 76.0547 38.3047C76.2422 38.3985 76.4062 38.5626 76.5 38.7501L78.3984 42.6407H81.0234L76.9219 34.086ZM75.5859 33.711C74.8359 33.711 74.25 33.1016 74.25 32.3516C74.25 31.6016 74.8594 31.0157 75.6094 31.0391C75.9609 31.0391 76.2656 31.1797 76.5234 31.4141C77.0625 31.9297 77.0625 32.7735 76.5469 33.3126C76.3125 33.5469 75.9609 33.711 75.5859 33.711Z" fill="#3870B2"/>
<path d="M70.5938 22.3203H79.8281V24.0078H70.5938V22.3203Z" fill="white"/>
<path d="M74.8828 31.0157C75.6093 31.0157 76.2187 31.6251 76.1953 32.3751C76.1953 33.1016 75.5859 33.711 74.8359 33.6876C74.1093 33.6876 73.5234 33.0782 73.5234 32.3516C73.5234 32.0001 73.664 31.6719 73.9218 31.4141C74.1797 31.1563 74.5312 31.0157 74.8828 31.0157ZM75.3984 30.2422V28.836C75.3984 28.6719 75.3281 28.5313 75.1875 28.461C74.9765 28.3438 74.7187 28.4141 74.6015 28.6251C74.5547 28.6954 74.5312 28.7657 74.5547 28.8594V30.2188C73.3828 30.4063 72.5625 31.5079 72.75 32.7032V32.7266C72.8437 33.2891 73.1484 33.8047 73.6172 34.1329L68.625 44.8438C68.4375 45.2188 68.4609 45.6876 68.7187 46.0391C69.0937 46.5782 69.8203 46.7188 70.3593 46.3438C70.5468 46.2266 70.6875 46.0391 70.7812 45.8516L74.1093 38.7266C74.3203 38.2579 74.8828 38.0469 75.375 38.2813C75.5625 38.3751 75.7265 38.5391 75.8203 38.7266L79.2187 45.7813C79.5 46.3672 80.2031 46.6016 80.789 46.3204C81.375 46.0391 81.6093 45.336 81.3281 44.7501L76.1953 34.086C77.1328 33.336 77.2968 31.9532 76.5468 31.0157C76.2656 30.6407 75.8672 30.3829 75.3984 30.2422Z" fill="#073042"/>
<path d="M78.4688 23.8203C78.1172 23.8203 77.8359 23.5625 77.8359 23.2109C77.8359 23.0469 77.9062 22.8594 78.0234 22.7422C78.2812 22.5078 78.6562 22.5078 78.9141 22.7422C79.0312 22.8594 79.1016 23.0234 79.1016 23.1875C79.0781 23.5391 78.8203 23.7969 78.4688 23.8203ZM71.5313 23.7969C71.1797 23.7969 70.8984 23.5156 70.8984 23.1875C70.8984 23.0234 70.9688 22.8594 71.0859 22.7422C71.2969 22.4844 71.6953 22.4375 71.9531 22.6484H71.9766C72.2344 22.8828 72.2578 23.2812 72.0234 23.5391L71.9531 23.6328C71.8359 23.75 71.6719 23.8203 71.5078 23.8203M78.6562 20.0234L79.8984 17.8672C79.9688 17.75 79.9219 17.6094 79.8281 17.5156C79.7109 17.4688 79.5938 17.4922 79.5234 17.5859L78.2344 19.8125C76.1719 18.8984 73.8281 18.8984 71.7891 19.8125L70.5234 17.6094C70.4766 17.5391 70.3828 17.4688 70.2891 17.4688C70.1953 17.4688 70.1016 17.5156 70.0547 17.6094C70.0078 17.6797 70.0078 17.7969 70.0547 17.8672L71.3203 20.0234C69.1172 21.2188 67.6875 23.4688 67.4766 25.9531H82.5234C82.3359 23.4453 80.8828 21.2188 78.6797 20.0234" fill="#3DDC84"/>
<path d="M84.75 30.6172H83.7656C83.7188 30.6406 83.6719 30.6875 83.6719 30.7578V46.3437C83.6719 46.4141 83.7187 46.4609 83.7891 46.4609H84.8203C86.0156 46.4609 86.9766 45.4766 86.9766 44.3047V28.4375C86.9766 29.6328 86.0156 30.5938 84.8203 30.5938H84.75V30.6172Z" fill="#073042"/>
<path d="M301.1 40.375C302.196 40.8156 303.387 41.0781 304.643 41.125C306.34 41.1812 307.943 40.8343 309.387 40.1687C307.662 39.4937 306.096 38.5 304.765 37.2625C303.895 38.6512 302.619 39.738 301.109 40.375H301.1Z" fill="#FF9100"/>
<path d="M304.756 37.2626C301.71 34.4501 299.863 30.3719 300.022 25.9001C300.022 25.7594 300.031 25.6094 300.041 25.4688C298.688 25.1238 297.269 25.1399 295.925 25.5157C295.11 26.9407 294.622 28.5719 294.556 30.3251C294.397 34.8438 297.135 38.7907 301.1 40.3844C302.614 39.7545 303.893 38.666 304.756 37.2719V37.2626Z" fill="#FFC400"/>
<path d="M304.756 37.2626C305.487 36.0924 305.898 34.7508 305.947 33.372C306.078 29.6032 303.547 26.3688 300.04 25.4595C300.04 25.6001 300.022 25.7501 300.022 25.8907C299.943 28.0142 300.326 30.1295 301.143 32.091C301.961 34.0525 303.193 35.8137 304.756 37.2532V37.2626Z" fill="#FF9100"/>
<path d="M305.554 14.875C303.557 16.4688 301.982 18.5781 301.025 21.0062C300.466 22.43 300.134 23.9327 300.041 25.4594C301.779 25.9087 303.312 26.9378 304.386 28.3766C305.46 29.8154 306.011 31.5776 305.947 33.3719C305.904 34.7516 305.493 36.0947 304.757 37.2625C306.104 38.5093 307.671 39.4947 309.379 40.1687C312.847 38.5656 315.304 35.125 315.444 31.0469C315.538 28.4031 314.525 26.05 313.091 24.0625C311.572 21.9625 305.554 14.8844 305.554 14.8844V14.875Z" fill="#DD2C00"/>
<path d="M155.925 36.3575C154.627 36.3582 153.572 35.3021 153.572 34.0044L153.571 26.7999C153.571 25.5034 154.625 24.4475 155.922 24.4473C156.552 24.4468 157.142 24.6913 157.587 25.1356C158.032 25.58 158.276 26.1711 158.277 26.7995L158.276 34.0041C158.278 34.313 158.218 34.6191 158.1 34.9046C157.982 35.1901 157.808 35.4492 157.589 35.6668C157.371 35.8865 157.112 36.0607 156.826 36.1793C156.541 36.2978 156.234 36.3584 155.925 36.3575ZM155.923 25.0794C154.973 25.0789 154.203 25.8507 154.203 26.7999L154.204 34.0037C154.204 34.4602 154.385 34.898 154.708 35.2209C155.03 35.5439 155.468 35.7255 155.924 35.7259C156.15 35.7258 156.374 35.6813 156.583 35.5947C156.792 35.5081 156.982 35.3812 157.141 35.2213C157.301 35.0614 157.428 34.8716 157.514 34.6627C157.6 34.4538 157.645 34.2299 157.644 34.0039V26.799C157.644 26.3427 157.462 25.9053 157.14 25.5828C156.817 25.2604 156.379 25.0793 155.923 25.0794Z" fill="white"/>
<path d="M174.377 25.4359L173.745 25.4357L158.248 25.4378L157.616 25.438L157.615 24.8055C157.614 22.2086 159.029 19.7934 161.346 18.3665L160.445 16.7219C160.335 16.5292 160.307 16.2852 160.371 16.0621C160.404 15.9508 160.458 15.8471 160.531 15.757C160.604 15.6669 160.694 15.5922 160.796 15.5373C160.923 15.4678 161.065 15.4317 161.209 15.4326C161.528 15.4326 161.82 15.6058 161.974 15.8856L162.917 17.6034C163.901 17.2432 164.94 17.0603 165.987 17.0631C167.067 17.0627 168.102 17.2452 169.082 17.6048L170.024 15.8842C170.098 15.7469 170.209 15.6324 170.344 15.5527C170.478 15.473 170.632 15.4311 170.788 15.4314C170.932 15.4308 171.074 15.4661 171.201 15.5341C171.303 15.5889 171.394 15.6637 171.466 15.7541C171.539 15.8445 171.593 15.9486 171.625 16.0602C171.657 16.1703 171.667 16.2856 171.654 16.3996C171.642 16.5135 171.606 16.6238 171.551 16.724L170.65 18.3677C172.964 19.7976 174.377 22.2109 174.377 24.8034L174.377 25.4359ZM169.796 18.61L170.997 16.4174C171.014 16.3899 171.025 16.3591 171.03 16.327C171.035 16.295 171.033 16.2622 171.025 16.2308C171.017 16.1995 171.002 16.1701 170.983 16.1445C170.963 16.1189 170.938 16.0976 170.909 16.082C170.881 16.0663 170.85 16.0566 170.817 16.0535C170.785 16.0504 170.752 16.0538 170.721 16.0637C170.691 16.0736 170.662 16.0897 170.637 16.1109C170.613 16.1322 170.593 16.1583 170.579 16.1875L169.366 18.4023C168.345 17.9491 167.203 17.6943 165.995 17.6955C164.79 17.6943 163.649 17.9481 162.632 18.3998L161.418 16.1898C161.403 16.1622 161.383 16.1379 161.358 16.1181C161.334 16.0984 161.306 16.0837 161.276 16.0749C161.246 16.066 161.214 16.0632 161.183 16.0667C161.152 16.0701 161.122 16.0797 161.095 16.0949C160.978 16.1573 160.935 16.3037 161 16.4181L162.201 18.6091C159.841 19.8264 158.246 22.1444 158.248 24.8057L173.744 24.8038C173.745 22.1434 172.153 19.8302 169.796 18.61ZM162.471 21.9984C162.298 21.9983 162.133 21.9297 162.011 21.8078C161.889 21.6859 161.821 21.5205 161.821 21.3482C161.821 21.1759 161.89 21.0106 162.012 20.8888C162.134 20.767 162.299 20.6987 162.471 20.6987C162.644 20.6991 162.809 20.7676 162.931 20.8895C163.053 21.0114 163.121 21.1765 163.122 21.3489C163.121 21.5214 163.053 21.6867 162.931 21.8084C162.808 21.9302 162.643 21.9985 162.471 21.9984ZM169.527 21.997C169.442 21.9971 169.357 21.9804 169.278 21.9478C169.199 21.9153 169.128 21.8674 169.067 21.8071C169.007 21.7468 168.959 21.6751 168.926 21.5962C168.894 21.5174 168.877 21.4328 168.877 21.3475C168.878 21.1752 168.947 21.0102 169.068 20.8883C169.19 20.7664 169.355 20.6975 169.527 20.6964C169.699 20.6978 169.864 20.767 169.985 20.8889C170.107 21.0108 170.175 21.1757 170.176 21.3477C170.176 21.5198 170.107 21.6849 169.986 21.8066C169.864 21.9284 169.699 21.9968 169.527 21.997ZM163.12 44.5684C161.823 44.5682 160.768 43.5135 160.768 42.2158L160.767 39.036L160.149 39.0367C159.825 39.0379 159.503 38.9746 159.204 38.8506C158.904 38.7266 158.632 38.5443 158.403 38.3144C158.173 38.0857 157.991 37.8135 157.866 37.5137C157.742 37.2138 157.679 36.8923 157.681 36.5678L157.678 25.4052V24.7722H158.311L173.691 24.7698L174.324 24.7694V25.402L174.326 36.5659C174.326 37.9274 173.218 39.0353 171.857 39.0351L171.235 39.0355L171.236 42.2141C171.236 43.5112 170.181 44.567 168.884 44.567C168.575 44.5685 168.269 44.5084 167.983 44.3902C167.698 44.272 167.439 44.0981 167.221 43.8787C167.001 43.6611 166.827 43.402 166.708 43.1165C166.59 42.8309 166.529 42.5247 166.53 42.2155V39.0355H165.473V42.2148C165.472 43.5121 164.418 44.5687 163.12 44.5684Z" fill="white"/>
<path d="M158.313 36.5676C158.313 36.8089 158.36 37.0478 158.452 37.2708C158.544 37.4938 158.679 37.6965 158.85 37.8671C159.02 38.0378 159.223 38.1731 159.446 38.2653C159.669 38.3575 159.908 38.4048 160.149 38.4044H161.399L161.4 42.2163C161.4 43.1655 162.171 43.9368 163.119 43.9371C163.345 43.937 163.569 43.8924 163.778 43.8058C163.987 43.7192 164.176 43.5923 164.336 43.4324C164.496 43.2724 164.622 43.0826 164.709 42.8737C164.795 42.6648 164.839 42.4409 164.839 42.2149L164.839 38.4042L167.162 38.4035L167.161 42.2151C167.162 43.1646 167.934 43.9368 168.883 43.935C169.833 43.9357 170.604 43.1634 170.604 42.2137L170.602 38.403L171.857 38.4028C172.869 38.403 173.693 37.5806 173.693 36.566L173.69 25.4015L158.311 25.4043L158.313 36.5676ZM176.077 36.3543C174.779 36.3546 173.724 35.3001 173.724 34.0022L173.722 26.7979C173.723 25.5002 174.777 24.4446 176.073 24.4446C177.372 24.4443 178.428 25.4997 178.428 26.7972L178.428 34.001C178.429 35.298 177.374 36.3546 176.077 36.3543ZM176.075 25.0772C175.125 25.0762 174.355 25.8475 174.355 26.7979L174.356 34.0019C174.356 34.2279 174.4 34.4517 174.486 34.6605C174.573 34.8693 174.7 35.059 174.859 35.2188C175.019 35.3786 175.209 35.5053 175.418 35.5917C175.627 35.6781 175.85 35.7224 176.076 35.7222C176.302 35.7222 176.526 35.6776 176.735 35.5911C176.943 35.5046 177.133 35.3778 177.293 35.218C177.453 35.0581 177.579 34.8684 177.666 34.6597C177.752 34.4509 177.796 34.2272 177.796 34.0012L177.794 26.7975C177.795 26.5716 177.75 26.3478 177.664 26.1391C177.577 25.9303 177.451 25.7406 177.291 25.5808C177.131 25.4211 176.942 25.2944 176.733 25.2079C176.524 25.1215 176.3 25.0771 176.075 25.0772Z" fill="white"/>
<path d="M155.923 25.0793C154.973 25.0789 154.203 25.8507 154.203 26.7999L154.204 34.0036C154.204 34.2297 154.249 34.4535 154.335 34.6623C154.422 34.8711 154.548 35.0609 154.708 35.2207C154.868 35.3805 155.058 35.5073 155.266 35.5938C155.475 35.6802 155.699 35.7247 155.925 35.7247C156.151 35.7249 156.375 35.6806 156.584 35.5942C156.793 35.5078 156.982 35.381 157.142 35.2211C157.302 35.0613 157.428 34.8715 157.515 34.6626C157.601 34.4537 157.645 34.2299 157.645 34.0039V26.799C157.644 26.3427 157.463 25.9053 157.14 25.5828C156.817 25.2604 156.379 25.0793 155.923 25.0793ZM169.796 18.6101L170.997 16.4176C171.028 16.3619 171.035 16.2965 171.017 16.2355C171 16.1745 170.959 16.123 170.903 16.0922C170.847 16.062 170.782 16.0551 170.721 16.073C170.661 16.0909 170.61 16.1321 170.579 16.1876L169.366 18.4032C168.346 17.949 167.204 17.6944 165.995 17.6956C164.79 17.6944 163.648 17.9483 162.632 18.3999L161.418 16.19C161.403 16.1624 161.383 16.138 161.359 16.1183C161.334 16.0985 161.306 16.0838 161.276 16.075C161.246 16.0661 161.215 16.0633 161.184 16.0667C161.152 16.0701 161.122 16.0797 161.095 16.0948C161.067 16.1096 161.043 16.1298 161.023 16.1541C161.003 16.1785 160.988 16.2065 160.98 16.2367C160.971 16.2668 160.968 16.2983 160.972 16.3295C160.975 16.3607 160.985 16.3909 161 16.4183L162.201 18.6094C159.841 19.8265 158.247 22.1445 158.248 24.8058L173.744 24.804C173.745 22.1436 172.153 19.8303 169.796 18.6101ZM162.471 21.9985C162.298 21.9984 162.133 21.9298 162.011 21.8079C161.89 21.686 161.821 21.5207 161.821 21.3483C161.821 21.176 161.89 21.0108 162.012 20.889C162.134 20.7672 162.299 20.6988 162.471 20.6989C162.644 20.6992 162.809 20.7678 162.931 20.8896C163.053 21.0115 163.121 21.1767 163.122 21.349C163.122 21.5215 163.053 21.6868 162.931 21.8086C162.809 21.9304 162.643 21.9987 162.471 21.9985ZM169.527 21.9971C169.442 21.9971 169.357 21.9804 169.278 21.9478C169.2 21.9152 169.128 21.8673 169.068 21.807C169.007 21.7467 168.959 21.6751 168.927 21.5963C168.894 21.5174 168.877 21.4329 168.877 21.3476C168.878 21.1754 168.947 21.0105 169.069 20.8887C169.19 20.7668 169.355 20.6978 169.527 20.6965C169.699 20.698 169.864 20.7671 169.985 20.889C170.107 21.011 170.175 21.1758 170.176 21.3479C170.176 21.4331 170.159 21.5175 170.127 21.5963C170.094 21.6751 170.046 21.7467 169.986 21.807C169.926 21.8673 169.854 21.9151 169.775 21.9477C169.697 21.9803 169.612 21.9971 169.527 21.9971ZM158.311 25.4044L158.314 36.5689C158.313 36.81 158.361 37.0489 158.453 37.2717C158.545 37.4946 158.68 37.697 158.851 37.8675C159.021 38.038 159.224 38.1732 159.447 38.2653C159.669 38.3574 159.908 38.4046 160.149 38.4043L161.399 38.4047L161.401 42.2166C161.401 43.1658 162.172 43.9374 163.12 43.9374C164.071 43.9374 164.841 43.1651 164.841 42.2154L164.84 38.4045L167.162 38.4038L167.163 42.2154C167.163 43.164 167.935 43.9372 168.883 43.9353C169.834 43.936 170.604 43.1637 170.604 42.214L170.603 38.4033L171.857 38.4024C172.099 38.4024 172.337 38.355 172.56 38.2627C172.783 38.1704 172.985 38.0352 173.156 37.8647C173.327 37.6942 173.462 37.4918 173.554 37.269C173.646 37.0462 173.694 36.8075 173.694 36.5663L173.692 25.4018L158.311 25.4044ZM177.796 26.7973C177.796 26.5714 177.751 26.3477 177.665 26.139C177.578 25.9303 177.452 25.7407 177.292 25.5809C177.132 25.4212 176.942 25.2945 176.734 25.2081C176.525 25.1217 176.301 25.0772 176.075 25.0772C175.125 25.0763 174.356 25.8476 174.356 26.798L174.357 34.0022C174.357 34.2282 174.401 34.4519 174.488 34.6607C174.574 34.8694 174.701 35.0591 174.86 35.2189C175.02 35.3786 175.21 35.5053 175.419 35.5917C175.627 35.6781 175.851 35.7225 176.077 35.7223C176.303 35.7223 176.527 35.6778 176.736 35.5914C176.944 35.5049 177.134 35.3781 177.294 35.2182C177.453 35.0584 177.58 34.8687 177.666 34.6599C177.753 34.451 177.797 34.2273 177.797 34.0013L177.796 26.7973Z" fill="#A4C439"/>
<path d="M21 28.25V25.75H23.5V28.25H21ZM21 38.25V30.75H23.5V38.25H21ZM29.75 38.25H27.25C26.5625 38.25 25.9742 38.0054 25.485 37.5163C24.9958 37.0271 24.7508 36.4383 24.75 35.75V28.25C24.75 27.5625 24.995 26.9742 25.485 26.485C25.975 25.9958 26.5633 25.7508 27.25 25.75H29.75C30.4375 25.75 31.0262 25.995 31.5163 26.485C32.0063 26.975 32.2508 27.5633 32.25 28.25V35.75C32.25 36.4375 32.0054 37.0262 31.5163 37.5163C31.0271 38.0063 30.4383 38.2508 29.75 38.25ZM27.25 35.75H29.75V28.25H27.25V35.75ZM33.5 38.25V35.75H38.5V33.25H36C35.3125 33.25 34.7242 33.0054 34.235 32.5163C33.7458 32.0271 33.5008 31.4383 33.5 30.75V28.25C33.5 27.5625 33.745 26.9742 34.235 26.485C34.725 25.9958 35.3133 25.7508 36 25.75H41V28.25H36V30.75H38.5C39.1875 30.75 39.7763 30.995 40.2663 31.485C40.7563 31.975 41.0008 32.5633 41 33.25V35.75C41 36.4375 40.7554 37.0262 40.2663 37.5163C39.7771 38.0063 39.1883 38.2508 38.5 38.25H33.5Z" fill="#E6E6E6"/>
<defs>
<radialGradient id="paint0_radial_491_1277" cx="0" cy="0" r="1" gradientUnits="userSpaceOnUse" gradientTransform="translate(31.92 2) rotate(90) scale(63)">
<stop stop-color="#7D7D7D"/>
<stop offset="0.601917" stop-color="#1E1D28"/>
</radialGradient>
<radialGradient id="paint1_radial_491_1277" cx="0" cy="0" r="1" gradientUnits="userSpaceOnUse" gradientTransform="translate(78.92 2) rotate(90) scale(63)">
<stop stop-color="#7D7D7D"/>
<stop offset="0.601917" stop-color="#1E1D28"/>
</radialGradient>
<radialGradient id="paint2_radial_491_1277" cx="0" cy="0" r="1" gradientUnits="userSpaceOnUse" gradientTransform="translate(121.92 2.80395e-06) rotate(90) scale(63)">
<stop stop-color="#7D7D7D"/>
<stop offset="0.601917" stop-color="#1E1D28"/>
</radialGradient>
<radialGradient id="paint3_radial_491_1277" cx="0" cy="0" r="1" gradientUnits="userSpaceOnUse" gradientTransform="translate(168.92 2.80395e-06) rotate(90) scale(63)">
<stop stop-color="#7D7D7D"/>
<stop offset="0.601917" stop-color="#1E1D28"/>
</radialGradient>
<radialGradient id="paint4_radial_491_1277" cx="0" cy="0" r="1" gradientUnits="userSpaceOnUse" gradientTransform="translate(214.92 2.80395e-06) rotate(90) scale(63)">
<stop stop-color="#7D7D7D"/>
<stop offset="0.601917" stop-color="#1E1D28"/>
</radialGradient>
<radialGradient id="paint5_radial_491_1277" cx="0" cy="0" r="1" gradientUnits="userSpaceOnUse" gradientTransform="translate(261.92 2.80395e-06) rotate(90) scale(63)">
<stop stop-color="#7D7D7D"/>
<stop offset="0.601917" stop-color="#1E1D28"/>
</radialGradient>
<radialGradient id="paint6_radial_491_1277" cx="0" cy="0" r="1" gradientUnits="userSpaceOnUse" gradientTransform="translate(304.92 2.80395e-06) rotate(90) scale(63)">
<stop stop-color="#7D7D7D"/>
<stop offset="0.601917" stop-color="#1E1D28"/>
</radialGradient>
<linearGradient id="paint7_linear_491_1277" x1="253.914" y1="44.2719" x2="260.35" y2="40.2966" gradientUnits="userSpaceOnUse">
<stop stop-color="#1B4E94"/>
<stop offset="0.63" stop-color="#1A5497"/>
<stop offset="1" stop-color="#195A9B"/>
</linearGradient>
<linearGradient id="paint8_linear_491_1277" x1="118.988" y1="43.7574" x2="118.988" y2="20.2306" gradientUnits="userSpaceOnUse">
<stop stop-color="#1578E4"/>
<stop offset="1" stop-color="#00C3F2"/>
</linearGradient>
<linearGradient id="paint9_linear_491_1277" x1="126.04" y1="35.6717" x2="126.04" y2="33.9181" gradientUnits="userSpaceOnUse">
<stop stop-color="#1492E7"/>
<stop offset="1" stop-color="#DBEDFB"/>
</linearGradient>
<linearGradient id="paint10_linear_491_1277" x1="124.869" y1="35.6717" x2="124.869" y2="33.9181" gradientUnits="userSpaceOnUse">
<stop stop-color="#1492E7"/>
<stop offset="1" stop-color="#DBEDFB"/>
</linearGradient>
<linearGradient id="paint11_linear_491_1277" x1="118.988" y1="35.6717" x2="118.988" y2="33.9181" gradientUnits="userSpaceOnUse">
<stop stop-color="#1492E7"/>
<stop offset="1" stop-color="#DBEDFB"/>
</linearGradient>
<linearGradient id="paint12_linear_491_1277" x1="117.817" y1="35.6717" x2="117.817" y2="33.9181" gradientUnits="userSpaceOnUse">
<stop stop-color="#1492E7"/>
<stop offset="1" stop-color="#DBEDFB"/>
</linearGradient>
<linearGradient id="paint13_linear_491_1277" x1="116.646" y1="35.6717" x2="116.646" y2="33.9181" gradientUnits="userSpaceOnUse">
<stop stop-color="#1492E7"/>
<stop offset="1" stop-color="#DBEDFB"/>
</linearGradient>
<linearGradient id="paint14_linear_491_1277" x1="115.476" y1="35.6717" x2="115.476" y2="33.9181" gradientUnits="userSpaceOnUse">
<stop stop-color="#1492E7"/>
<stop offset="1" stop-color="#DBEDFB"/>
</linearGradient>
<linearGradient id="paint15_linear_491_1277" x1="114.305" y1="35.6717" x2="114.305" y2="33.9181" gradientUnits="userSpaceOnUse">
<stop stop-color="#1492E7"/>
<stop offset="1" stop-color="#DBEDFB"/>
</linearGradient>
<linearGradient id="paint16_linear_491_1277" x1="113.106" y1="35.6717" x2="113.106" y2="33.9181" gradientUnits="userSpaceOnUse">
<stop stop-color="#1492E7"/>
<stop offset="1" stop-color="#DBEDFB"/>
</linearGradient>
<linearGradient id="paint17_linear_491_1277" x1="111.935" y1="35.6717" x2="111.935" y2="33.9181" gradientUnits="userSpaceOnUse">
<stop stop-color="#1492E7"/>
<stop offset="1" stop-color="#DBEDFB"/>
</linearGradient>
<linearGradient id="paint18_linear_491_1277" x1="121.246" y1="39.09" x2="121.246" y2="24.6506" gradientUnits="userSpaceOnUse">
<stop stop-color="#1285E7"/>
<stop offset="1" stop-color="#00B5EF"/>
</linearGradient>
<linearGradient id="paint19_linear_491_1277" x1="124.499" y1="39.0261" x2="116.675" y2="25.4741" gradientUnits="userSpaceOnUse">
<stop stop-color="#2B90E7"/>
<stop offset="1" stop-color="#00B6EF"/>
</linearGradient>
<linearGradient id="paint20_linear_491_1277" x1="124.876" y1="39.1079" x2="116.793" y2="25.1068" gradientUnits="userSpaceOnUse">
<stop stop-color="#3795EA"/>
<stop offset="1" stop-color="#49C4F2"/>
</linearGradient>
<linearGradient id="paint21_linear_491_1277" x1="125.334" y1="38.9691" x2="117.142" y2="24.7796" gradientUnits="userSpaceOnUse">
<stop stop-color="#3696EA"/>
<stop offset="1" stop-color="#90D9F6"/>
</linearGradient>
<linearGradient id="paint22_linear_491_1277" x1="125.699" y1="38.6403" x2="117.609" y2="24.6282" gradientUnits="userSpaceOnUse">
<stop stop-color="#3097EA"/>
<stop offset="1" stop-color="#B5E5F9"/>
</linearGradient>
<linearGradient id="paint23_linear_491_1277" x1="125.816" y1="38.2545" x2="118.002" y2="24.7194" gradientUnits="userSpaceOnUse">
<stop stop-color="#3A98EA"/>
<stop offset="1" stop-color="#BCE7FA"/>
</linearGradient>
<linearGradient id="paint24_linear_491_1277" x1="119.933" y1="31.3498" x2="121.451" y2="30.4735" gradientUnits="userSpaceOnUse">
<stop stop-color="#00A4EC"/>
<stop offset="1" stop-color="#B9DFF6"/>
</linearGradient>
<linearGradient id="paint25_linear_491_1277" x1="119.349" y1="30.3373" x2="120.866" y2="29.461" gradientUnits="userSpaceOnUse">
<stop stop-color="#00A4EC"/>
<stop offset="1" stop-color="#B9DFF6"/>
</linearGradient>
<linearGradient id="paint26_linear_491_1277" x1="117.577" y1="27.27" x2="119.085" y2="26.3995" gradientUnits="userSpaceOnUse">
<stop stop-color="#00B4EF"/>
<stop offset="1" stop-color="#C3E9FA"/>
</linearGradient>
<linearGradient id="paint27_linear_491_1277" x1="116.99" y1="26.2524" x2="118.508" y2="25.3761" gradientUnits="userSpaceOnUse">
<stop stop-color="#00B4EF"/>
<stop offset="1" stop-color="#C3E9FA"/>
</linearGradient>
<linearGradient id="paint28_linear_491_1277" x1="116.789" y1="39.1252" x2="116.789" y2="24.6861" gradientUnits="userSpaceOnUse">
<stop stop-color="#1285E7"/>
<stop offset="1" stop-color="#00B5EF"/>
</linearGradient>
<linearGradient id="paint29_linear_491_1277" x1="113.535" y1="39.062" x2="121.359" y2="25.5104" gradientUnits="userSpaceOnUse">
<stop stop-color="#3194E9"/>
<stop offset="1" stop-color="#71CFF4"/>
</linearGradient>
<linearGradient id="paint30_linear_491_1277" x1="113.155" y1="39.1442" x2="121.24" y2="25.1413" gradientUnits="userSpaceOnUse">
<stop stop-color="#5AA6EC"/>
<stop offset="1" stop-color="#A2DEF8"/>
</linearGradient>
<linearGradient id="paint31_linear_491_1277" x1="112.7" y1="39.0043" x2="120.892" y2="24.8148" gradientUnits="userSpaceOnUse">
<stop stop-color="#66ABEE"/>
<stop offset="1" stop-color="#BEE8FA"/>
</linearGradient>
<linearGradient id="paint32_linear_491_1277" x1="112.336" y1="38.6755" x2="120.426" y2="24.6634" gradientUnits="userSpaceOnUse">
<stop stop-color="#7BB6F0"/>
<stop offset="1" stop-color="#B1E3F9"/>
</linearGradient>
<linearGradient id="paint33_linear_491_1277" x1="112.216" y1="38.2981" x2="120.035" y2="24.7559" gradientUnits="userSpaceOnUse">
<stop stop-color="#5AA6EC"/>
<stop offset="1" stop-color="#AFE3F9"/>
</linearGradient>
<linearGradient id="paint34_linear_491_1277" x1="119.554" y1="25.3647" x2="121.071" y2="26.241" gradientUnits="userSpaceOnUse">
<stop stop-color="#C1E7FA"/>
<stop offset="1" stop-color="#89D4F5"/>
</linearGradient>
<linearGradient id="paint35_linear_491_1277" x1="118.966" y1="26.382" x2="120.484" y2="27.258" gradientUnits="userSpaceOnUse">
<stop stop-color="#C1E7FA"/>
<stop offset="1" stop-color="#89D4F5"/>
</linearGradient>
<linearGradient id="paint36_linear_491_1277" x1="118.361" y1="27.4309" x2="119.878" y2="28.307" gradientUnits="userSpaceOnUse">
<stop stop-color="#C1E7FA"/>
<stop offset="1" stop-color="#89D4F5"/>
</linearGradient>
<linearGradient id="paint37_linear_491_1277" x1="117.772" y1="28.4504" x2="119.29" y2="29.3267" gradientUnits="userSpaceOnUse">
<stop stop-color="#B0DFF8"/>
<stop offset="1" stop-color="#52BDF2"/>
</linearGradient>
<linearGradient id="paint38_linear_491_1277" x1="117.184" y1="29.4697" x2="118.702" y2="30.346" gradientUnits="userSpaceOnUse">
<stop stop-color="#B4DEF8"/>
<stop offset="1" stop-color="#4EB5F0"/>
</linearGradient>
<linearGradient id="paint39_linear_491_1277" x1="116.595" y1="30.489" x2="118.113" y2="31.3651" gradientUnits="userSpaceOnUse">
<stop stop-color="#B4DEF8"/>
<stop offset="1" stop-color="#4EB5F0"/>
</linearGradient>
<linearGradient id="paint40_linear_491_1277" x1="116.009" y1="31.5045" x2="117.526" y2="32.3806" gradientUnits="userSpaceOnUse">
<stop stop-color="#B5DDF8"/>
<stop offset="1" stop-color="#46AEEE"/>
</linearGradient>
<linearGradient id="paint41_linear_491_1277" x1="115.422" y1="32.5203" x2="116.94" y2="33.3966" gradientUnits="userSpaceOnUse">
<stop stop-color="#96CEF4"/>
<stop offset="1" stop-color="#46AAEE"/>
</linearGradient>
<linearGradient id="paint42_linear_491_1277" x1="114.012" y1="35.7816" x2="115.175" y2="36.4531" gradientUnits="userSpaceOnUse">
<stop stop-color="#8FC1F2"/>
<stop offset="1" stop-color="#3193EA"/>
</linearGradient>
<linearGradient id="paint43_linear_491_1277" x1="113.055" y1="36.6212" x2="114.573" y2="37.4975" gradientUnits="userSpaceOnUse">
<stop stop-color="#8FC1F2"/>
<stop offset="1" stop-color="#3193EA"/>
</linearGradient>
<linearGradient id="paint44_linear_491_1277" x1="112.467" y1="37.6398" x2="113.984" y2="38.5161" gradientUnits="userSpaceOnUse">
<stop stop-color="#8FC1F2"/>
<stop offset="1" stop-color="#3193EA"/>
</linearGradient>
<linearGradient id="paint45_linear_491_1277" x1="121.982" y1="32.2187" x2="124.901" y2="33.6425" gradientUnits="userSpaceOnUse">
<stop offset="0.001"/>
<stop offset="1" stop-opacity="0"/>
</linearGradient>
<radialGradient id="paint46_radial_491_1277" cx="0" cy="0" r="1" gradientUnits="userSpaceOnUse" gradientTransform="translate(126.322 22.8899) rotate(116.706) scale(3.79232 6.5621)">
<stop/>
<stop offset="1" stop-opacity="0"/>
</radialGradient>
<radialGradient id="paint47_radial_491_1277" cx="0" cy="0" r="1" gradientUnits="userSpaceOnUse" gradientTransform="translate(116.002 43.9432) rotate(26.1166) scale(1.8518 1.0541)">
<stop offset="0.417" stop-color="#0C0C12"/>
<stop offset="1" stop-color="#3D4651"/>
</radialGradient>
<linearGradient id="paint48_linear_491_1277" x1="123.865" y1="26.1814" x2="126.154" y2="27.3474" gradientUnits="userSpaceOnUse">
<stop stop-color="#344351"/>
<stop offset="0.1" stop-color="#9697A0"/>
<stop offset="0.181" stop-color="#8B8C95"/>
<stop offset="0.351" stop-color="#787A83"/>
<stop offset="0.47" stop-color="#71747D"/>
<stop offset="0.591" stop-color="#777982"/>
<stop offset="0.749" stop-color="#87898F"/>
<stop offset="0.8" stop-color="#8E8F94"/>
<stop offset="0.849" stop-color="#3D3B42"/>
<stop offset="0.9" stop-color="#606E84"/>
</linearGradient>
<linearGradient id="paint49_linear_491_1277" x1="131.629" y1="23.8571" x2="129.046" y2="20.3665" gradientUnits="userSpaceOnUse">
<stop offset="0.27" stop-color="#262B33"/>
<stop offset="0.45" stop-color="#74747E"/>
<stop offset="0.54" stop-color="#B0B0BC"/>
<stop offset="0.73" stop-color="#74747E"/>
</linearGradient>
<linearGradient id="paint50_linear_491_1277" x1="127.096" y1="24.1306" x2="130.91" y2="23.638" gradientUnits="userSpaceOnUse">
<stop offset="0.14" stop-color="#606E84"/>
<stop offset="0.4" stop-color="#9899A5"/>
<stop offset="0.73" stop-color="#475768"/>
<stop offset="0.92" stop-color="#262B33"/>
</linearGradient>
<linearGradient id="paint51_linear_491_1277" x1="128.874" y1="24.4551" x2="128.504" y2="22.3565" gradientUnits="userSpaceOnUse">
<stop stop-color="#101215" stop-opacity="0.1"/>
<stop offset="0.46" stop-color="#101215" stop-opacity="0.7"/>
<stop offset="0.7" stop-color="#474951"/>
<stop offset="0.91" stop-color="#7B7D88"/>
</linearGradient>
<linearGradient id="paint52_linear_491_1277" x1="117.625" y1="36.1533" x2="121.165" y2="37.8954" gradientUnits="userSpaceOnUse">
<stop offset="0.115" stop-color="#2C3952"/>
<stop offset="0.374" stop-color="#3D414E"/>
<stop offset="0.55" stop-color="#474A54"/>
<stop offset="0.754" stop-color="#4E5057"/>
<stop offset="0.892" stop-color="#323945"/>
<stop offset="1" stop-color="#143052"/>
</linearGradient>
<linearGradient id="paint53_linear_491_1277" x1="123.103" y1="24.4248" x2="125.841" y2="18.4173" gradientUnits="userSpaceOnUse">
<stop offset="0.118" stop-color="#6D7078" stop-opacity="0"/>
<stop offset="0.2" stop-color="#6D7078" stop-opacity="0.7"/>
<stop offset="0.34" stop-color="#35363A"/>
<stop offset="0.374" stop-color="#1D1F22"/>
<stop offset="0.4" stop-color="#101215"/>
<stop offset="0.5" stop-color="#16171A"/>
<stop offset="0.56" stop-color="#292A2E"/>
<stop offset="0.688" stop-color="#4B4D51"/>
<stop offset="0.807" stop-color="#63666B"/>
<stop offset="0.915" stop-color="#72757B"/>
<stop offset="1" stop-color="#777A80"/>
</linearGradient>
<linearGradient id="paint54_linear_491_1277" x1="120.187" y1="20.9461" x2="125.334" y2="20.9461" gradientUnits="userSpaceOnUse">
<stop stop-color="#4A4D56"/>
<stop offset="1" stop-color="#29292D"/>
</linearGradient>
<linearGradient id="paint55_linear_491_1277" x1="120.187" y1="19.7415" x2="124.638" y2="19.7415" gradientUnits="userSpaceOnUse">
<stop stop-color="#767880"/>
<stop offset="0.41" stop-color="#0C0A0B"/>
</linearGradient>
<linearGradient id="paint56_linear_491_1277" x1="131.265" y1="25.1459" x2="132.994" y2="22.152" gradientUnits="userSpaceOnUse">
<stop stop-color="#858997"/>
<stop offset="0.23" stop-color="#244668"/>
<stop offset="0.282" stop-color="#1A3249"/>
<stop offset="0.4" stop-color="#040506"/>
<stop offset="0.464" stop-color="#313236"/>
<stop offset="0.546" stop-color="#65656E"/>
<stop offset="0.607" stop-color="#868691"/>
<stop offset="0.64" stop-color="#92929E"/>
</linearGradient>
</defs>
</svg>
