<svg width="25" height="24" viewBox="0 0 25 24" fill="none" xmlns="http://www.w3.org/2000/svg">
<path d="M23.4976 2.9998C22.5399 3.67528 21.4797 4.19191 20.3576 4.5298C19.7553 3.83731 18.9549 3.34649 18.0646 3.12373C17.1743 2.90096 16.2371 2.957 15.3796 3.28426C14.5222 3.61151 13.786 4.1942 13.2705 4.95352C12.7551 5.71283 12.4853 6.61214 12.4976 7.5298V8.5298C10.7402 8.57537 8.99883 8.18561 7.42857 7.39525C5.8583 6.60488 4.50788 5.43844 3.49756 3.9998C3.49756 3.9998 -0.502441 12.9998 8.49756 16.9998C6.43809 18.3978 3.98472 19.0987 1.49756 18.9998C10.4976 23.9998 21.4976 18.9998 21.4976 7.4998C21.4966 7.22126 21.4699 6.9434 21.4176 6.6698C22.4382 5.6633 23.1584 4.39251 23.4976 2.9998Z" fill="white"/>
</svg>
