<svg width="33" height="30" viewBox="0 0 33 30" fill="none" xmlns="http://www.w3.org/2000/svg">
<ellipse cx="16.2377" cy="15.002" rx="15.9799" ry="15" fill="#1E1D28"/>
<path d="M24.6524 10.4274C24.0657 10.6617 23.4273 10.8304 22.7697 10.896C23.4524 10.5205 23.9637 9.92717 24.2076 9.2274C23.5669 9.58028 22.8651 9.82773 22.1332 9.95876C21.8273 9.65597 21.4573 9.41475 21.0463 9.25014C20.6353 9.08553 20.1921 9.00104 19.7443 9.00196C17.9325 9.00196 16.4755 10.3617 16.4755 12.0304C16.4755 12.2647 16.5061 12.499 16.556 12.7244C13.8431 12.5931 11.4236 11.3931 9.81504 9.55581C9.52195 10.0193 9.36835 10.5471 9.37025 11.0842C9.37025 12.1351 9.94733 13.0617 10.8273 13.6067C10.3087 13.5878 9.80228 13.4558 9.34916 13.2215V13.2588C9.34916 14.7304 10.4726 15.9499 11.97 16.2304C11.6889 16.298 11.3996 16.3326 11.1092 16.3333C10.8964 16.3333 10.695 16.3138 10.4918 16.2872C10.9059 17.4872 12.1119 18.3588 13.5479 18.3872C12.4244 19.202 11.0171 19.6812 9.48911 19.6812C9.21495 19.6812 8.96188 19.6724 8.69922 19.644C10.1486 20.5049 11.8684 21.002 13.7204 21.002C19.7328 21.002 23.0228 16.3901 23.0228 12.3872C23.0228 12.2558 23.0228 12.1244 23.0132 11.9931C23.6497 11.5617 24.2076 11.0274 24.6524 10.4274Z" fill="white"/>
</svg>
