<svg width="353" height="300" viewBox="0 0 353 300" fill="none" xmlns="http://www.w3.org/2000/svg">
<path d="M197.781 187.007C197.504 187.007 197.242 186.844 197.128 186.574L177.029 139.366L159.647 143.942C159.569 143.964 159.491 143.971 159.413 143.964C159.413 143.964 142.974 142.679 126.536 141.388C118.313 140.743 110.097 140.097 103.932 139.6C100.846 139.352 98.2777 139.146 96.4827 139.004C95.1773 138.898 94.3543 138.827 93.8435 138.749C93.808 138.749 93.7655 138.756 93.73 138.756V138.728C92.9921 138.6 92.9921 138.43 93.0134 138.018C93.0276 137.585 93.4746 137.266 93.8861 137.351C95.7733 137.55 137.348 140.806 159.413 142.531L177.27 137.834C177.611 137.749 177.965 137.919 178.1 138.245L198.164 185.368L226.366 173.811C226.415 173.79 226.465 173.776 226.515 173.768L268.714 166.433L247.408 144.219C247.267 144.07 247.196 143.864 247.217 143.666L249.856 115.109L231.907 135.684C231.658 135.968 231.233 136.01 230.935 135.776L207.756 117.805C207.593 117.678 207.494 117.486 207.479 117.28L206.131 92.5199L177.845 111.683C177.653 111.818 177.405 111.839 177.185 111.754C176.965 111.669 176.809 111.477 176.752 111.25L171.325 86.83L138.632 113.534C138.448 113.691 138.193 113.733 137.965 113.662L116.206 106.567C116.014 106.504 115.858 106.362 115.773 106.177C115.695 105.993 115.695 105.78 115.773 105.595L122.492 90.8172L69.4661 81.0478C69.1468 80.991 68.9056 80.7214 68.8843 80.3951C68.863 80.0687 69.0688 79.7707 69.3739 79.6714L111.282 66.1702L105.805 47.9155C105.727 47.653 105.805 47.3692 106.011 47.1847L128.239 27.3196C128.451 27.128 128.764 27.0854 129.019 27.206C129.274 27.3337 129.438 27.5963 129.416 27.8871L127.55 60.5015L145.301 68.2418L174.851 59.3309C174.986 59.2883 175.128 59.2883 175.262 59.3309L205.344 68.4476L198.568 34.5704L166.366 26.1702C165.99 26.0709 165.763 25.6807 165.855 25.3047C165.954 24.9286 166.344 24.7016 166.72 24.7938L199.356 33.3075C199.618 33.3784 199.817 33.5913 199.874 33.8538L206.969 69.3273C207.018 69.5685 206.933 69.8239 206.749 69.9942C206.564 70.1645 206.309 70.2213 206.068 70.1503L175.057 60.7498L145.465 69.675C145.301 69.7246 145.131 69.7104 144.975 69.6466L126.529 61.6083C126.259 61.4877 126.089 61.211 126.103 60.9201L127.898 29.526L107.281 47.951L112.829 66.4398C112.942 66.8087 112.737 67.1989 112.368 67.3195L72.4813 80.1751L123.634 89.5969C123.847 89.6395 124.031 89.7743 124.138 89.9658C124.237 90.1574 124.244 90.3915 124.152 90.5902L117.384 105.475L138.015 112.201L171.296 85.0137C171.488 84.8576 171.743 84.8151 171.978 84.8931C172.212 84.9711 172.382 85.1698 172.439 85.411L177.887 109.93L206.351 90.6469C206.564 90.505 206.834 90.4837 207.068 90.5973C207.295 90.7108 207.444 90.9378 207.458 91.1932L208.863 116.883L231.254 134.251L250.204 112.527C250.402 112.293 250.736 112.222 251.02 112.343C251.303 112.463 251.474 112.754 251.445 113.059L248.636 143.481L270.644 166.425C270.828 166.617 270.885 166.887 270.807 167.135C270.722 167.383 270.516 167.568 270.253 167.61L226.813 175.166L198.029 186.958C197.944 186.993 197.852 187.007 197.76 187.007H197.781Z" fill="url(#paint0_radial_864_3277)"/>
<path d="M182.171 249.205C181.994 249.205 181.824 249.142 181.689 249.021L149.997 219.933C149.841 219.784 149.756 219.578 149.77 219.358C149.784 219.145 149.897 218.947 150.075 218.826L198.532 185.715C198.744 185.566 199.021 185.552 199.255 185.672L251.891 212.767L226.038 174.874C225.875 174.633 225.875 174.314 226.038 174.073L246.293 144.679L231.664 136.414L178.432 140.181C178.078 140.195 177.765 139.968 177.687 139.621C177.616 139.273 177.808 138.925 178.134 138.805L244.697 114.442L208.258 118.918C208.188 118.925 208.109 118.918 208.031 118.911L176.815 112.739C176.623 112.703 176.453 112.583 176.346 112.412C176.24 112.242 176.212 112.044 176.268 111.852L185.257 79.6065L171.103 86.1975C170.855 86.311 170.571 86.2756 170.359 86.1053C170.146 85.935 170.053 85.6583 170.11 85.3958L175.743 60.9829L174.296 55.9812L128.273 95.6548L139.475 113.079C139.582 113.243 139.617 113.448 139.568 113.633C139.518 113.824 139.397 113.987 139.227 114.08L95.9493 138.202C95.6655 138.358 95.3108 138.308 95.0908 138.067C94.8709 137.833 94.8354 137.471 95.0057 137.201L115.814 104.566C115.85 104.509 115.9 104.452 115.949 104.41L126.414 95.3852L123.385 90.6672C123.385 90.6672 123.356 90.6175 123.342 90.5962L111.515 66.4742C111.402 66.2472 111.423 65.9776 111.558 65.7719C111.7 65.559 111.934 65.4455 112.189 65.4526L144.172 67.283L127.577 27.1767C127.492 26.9638 127.507 26.7226 127.634 26.5239C127.755 26.3324 127.968 26.2047 128.202 26.1976L166.038 24.3033C166.371 24.2891 166.662 24.4949 166.754 24.8141L175.048 53.4625L198.248 33.4626C198.482 33.2568 198.83 33.2355 199.092 33.3987C199.355 33.569 199.482 33.8882 199.397 34.1862L187.457 77.017L205.037 68.8297C205.25 68.7303 205.499 68.7445 205.704 68.8652C205.91 68.9858 206.038 69.2057 206.045 69.4398L206.939 89.5746L230.529 76.421C230.692 76.3288 230.891 76.3075 231.068 76.3572C231.252 76.4068 231.401 76.5345 231.494 76.6977L251.359 112.639C251.359 112.639 251.38 112.675 251.387 112.696C251.387 112.696 251.394 112.718 251.401 112.732L270.777 166.609L289.202 202.515C289.266 202.636 289.287 202.764 289.28 202.898L285.967 241.685C285.945 241.948 285.775 242.175 285.534 242.281C285.293 242.38 285.009 242.338 284.803 242.168L253.459 215.967L182.448 249.12C182.356 249.163 182.249 249.184 182.15 249.184L182.171 249.205ZM151.621 219.493L182.306 247.659L252.714 214.789L198.993 187.134L151.621 219.5V219.493ZM254.637 215.101L284.69 240.224L287.868 202.998L269.514 167.233C269.514 167.233 269.486 167.176 269.479 167.148L250.33 113.902L183.356 138.415L231.785 134.988C231.926 134.981 232.061 135.009 232.182 135.08L247.67 143.828C247.84 143.927 247.968 144.09 248.01 144.289C248.053 144.481 248.01 144.686 247.904 144.849L227.485 174.484L254.644 214.285C254.814 214.534 254.807 214.867 254.629 215.108L254.637 215.101ZM116.971 105.417L97.7301 135.598L137.893 113.214L127.209 96.5984L116.971 105.424V105.417ZM177.858 111.497L208.209 117.499L249.621 112.412L230.607 78.0102L206.634 91.3766C206.421 91.4973 206.158 91.4973 205.946 91.3766C205.733 91.256 205.591 91.0361 205.584 90.7878L204.683 70.5608L186.967 78.8119L177.858 111.49V111.497ZM124.612 89.9364L127.514 94.4487L173.878 54.4771L165.563 25.7435L129.287 27.5598L145.931 67.7797C146.024 68.0067 145.995 68.2621 145.853 68.4608C145.712 68.6594 145.47 68.7658 145.236 68.7587L113.338 66.9354L124.612 89.9293V89.9364ZM175.495 54.9595L177.177 60.763C177.212 60.8765 177.212 61.0042 177.184 61.1177L171.834 84.2961L185.775 77.8045L197.411 36.0663L175.495 54.9595Z" fill="url(#paint1_radial_864_3277)"/>
<path d="M181.23 248.97C180.981 248.97 180.747 248.836 180.62 248.623C180.485 248.396 180.485 248.112 180.627 247.885L226.395 175.129L177.966 139.102C177.803 138.981 177.697 138.79 177.682 138.584L175.965 114.129L160.57 143.593C160.407 143.905 160.038 144.054 159.704 143.933C159.371 143.813 159.172 143.472 159.243 143.125L170.474 86.5088L113.007 67.197L117.626 105.572C117.661 105.835 117.541 106.09 117.321 106.246C117.101 106.395 116.817 106.409 116.583 106.289L72.021 82.4294L96.2565 137.3C96.37 137.562 96.3203 137.867 96.1217 138.073C95.923 138.279 95.618 138.35 95.3554 138.243L40.4992 116.959C40.1374 116.817 39.9529 116.406 40.0948 116.044C40.2367 115.675 40.6482 115.498 41.01 115.64L94.277 136.307L69.9067 81.1097C69.7861 80.8331 69.85 80.5067 70.0699 80.301C70.2899 80.0952 70.6162 80.0526 70.8858 80.1945L116.058 104.38L111.468 66.2393C111.439 65.998 111.538 65.7568 111.723 65.6078C111.914 65.4517 112.163 65.4092 112.397 65.4872L171.517 85.3524C171.858 85.4659 172.056 85.8135 171.985 86.1612L161.592 138.548L175.859 111.234C176.008 110.95 176.32 110.801 176.632 110.865C176.945 110.929 177.172 111.191 177.193 111.511L179.059 138.144L227.75 174.37C228.048 174.59 228.126 175.001 227.927 175.313L182.549 247.459L284.961 241.216L272.68 209.559L253.794 215.81C253.589 215.881 253.362 215.845 253.177 215.725C252.993 215.604 252.879 215.405 252.865 215.193L247.189 143.77C247.161 143.423 247.395 143.103 247.735 143.025C248.076 142.947 248.431 143.132 248.551 143.458L273.503 207.786L289.048 202.635C289.424 202.514 289.821 202.713 289.942 203.082C290.062 203.451 289.864 203.855 289.495 203.976L274.014 209.098L286.622 241.592C286.707 241.805 286.678 242.039 286.558 242.23C286.437 242.422 286.231 242.543 286.004 242.557L181.237 248.942C181.237 248.942 181.208 248.942 181.194 248.942L181.23 248.97ZM249.012 148.509L254.234 214.199L272.191 208.254L249.012 148.509Z" fill="url(#paint2_radial_864_3277)"/>
<path d="M38.3918 115.59C38.2216 115.59 38.0442 115.526 37.9094 115.399C37.6256 115.129 37.6043 114.682 37.8739 114.398L70.0342 79.8683C70.3038 79.5845 70.7508 79.5632 71.0346 79.8328C71.3184 80.1024 71.3396 80.5493 71.07 80.8331L38.9097 115.363C38.7679 115.512 38.5834 115.59 38.3918 115.59Z" fill="url(#paint3_radial_864_3277)"/>
<path d="M226.635 175.187C226.337 175.187 226.053 174.996 225.961 174.698L207.99 118.884C207.933 118.699 207.947 118.501 208.039 118.33L229.401 78.3942L205.123 70.1501C205.01 70.1076 204.903 70.0437 204.825 69.9515L165.826 26.3049L146.911 69.2065L139.405 113.293L160.044 142.381C160.271 142.701 160.193 143.14 159.873 143.368C159.554 143.595 159.114 143.516 158.887 143.197L138.078 113.875C137.972 113.719 137.929 113.534 137.958 113.343L145.528 68.8802C145.535 68.8234 145.556 68.7667 145.577 68.7099L164.974 24.7298C165.074 24.5099 165.272 24.3538 165.514 24.3183C165.755 24.2829 165.989 24.368 166.152 24.5454L205.755 68.866L230.643 77.3229C230.842 77.3867 230.998 77.5428 231.076 77.7344C231.154 77.9259 231.14 78.1459 231.04 78.3303L209.423 118.742L227.301 174.265C227.422 174.641 227.216 175.038 226.847 175.159C226.776 175.18 226.698 175.194 226.627 175.194L226.635 175.187Z" fill="url(#paint4_radial_864_3277)"/>
<path d="M282.449 82.4803C282.3 82.4803 282.151 82.4377 282.023 82.3384L247.621 56.7691L232.899 78.8478C232.679 79.1742 232.239 79.2593 231.913 79.0465C231.587 78.8265 231.502 78.3867 231.714 78.0603L246.847 55.3573C246.954 55.1941 247.124 55.0877 247.316 55.0522C247.507 55.0167 247.706 55.0664 247.862 55.1799L282.86 81.1962C283.172 81.4303 283.243 81.8773 283.009 82.1894C282.867 82.3739 282.654 82.4732 282.442 82.4732L282.449 82.4803Z" fill="url(#paint5_radial_864_3277)"/>
<path d="M312.247 174.676C312.211 174.676 312.176 174.676 312.14 174.669L271.934 168.05C271.566 167.986 271.317 167.645 271.381 167.276C271.438 166.907 271.786 166.666 272.154 166.723L312.36 173.342C312.729 173.406 312.977 173.747 312.914 174.116C312.857 174.442 312.573 174.676 312.254 174.676H312.247Z" fill="url(#paint6_radial_864_3277)"/>
<path d="M237.042 274.946C236.83 274.946 236.617 274.839 236.482 274.648C236.276 274.343 236.354 273.924 236.659 273.711L284.903 241.076C285.208 240.87 285.627 240.948 285.84 241.253C286.046 241.558 285.967 241.977 285.662 242.189L237.418 274.825C237.305 274.903 237.17 274.939 237.042 274.939V274.946Z" fill="url(#paint7_radial_864_3277)"/>
<path d="M147 70.9999C148.657 70.9999 150 69.6567 150 67.9999C150 66.343 148.657 64.9999 147 64.9999C145.343 64.9999 144 66.343 144 67.9999C144 69.6567 145.343 70.9999 147 70.9999Z" fill="url(#paint8_radial_864_3277)"/>
<path d="M172 87.9999C173.657 87.9999 175 86.6567 175 84.9999C175 83.343 173.657 81.9999 172 81.9999C170.343 81.9999 169 83.343 169 84.9999C169 86.6567 170.343 87.9999 172 87.9999Z" fill="url(#paint9_radial_864_3277)"/>
<path d="M176 62.9999C177.657 62.9999 179 61.6567 179 59.9999C179 58.343 177.657 56.9999 176 56.9999C174.343 56.9999 173 58.343 173 59.9999C173 61.6567 174.343 62.9999 176 62.9999Z" fill="url(#paint10_radial_864_3277)"/>
<path d="M207 92.9999C208.657 92.9999 210 91.6567 210 89.9999C210 88.343 208.657 86.9999 207 86.9999C205.343 86.9999 204 88.343 204 89.9999C204 91.6567 205.343 92.9999 207 92.9999Z" fill="url(#paint11_radial_864_3277)"/>
<path d="M177 115C178.657 115 180 113.657 180 112C180 110.343 178.657 109 177 109C175.343 109 174 110.343 174 112C174 113.657 175.343 115 177 115Z" fill="url(#paint12_radial_864_3277)"/>
<path d="M139 116C140.657 116 142 114.657 142 113C142 111.343 140.657 110 139 110C137.343 110 136 111.343 136 113C136 114.657 137.343 116 139 116Z" fill="url(#paint13_radial_864_3277)"/>
<path d="M124 92.9999C125.657 92.9999 127 91.6567 127 89.9999C127 88.343 125.657 86.9999 124 86.9999C122.343 86.9999 121 88.343 121 89.9999C121 91.6567 122.343 92.9999 124 92.9999Z" fill="url(#paint14_radial_864_3277)"/>
<path d="M128 62.9999C129.657 62.9999 131 61.6567 131 59.9999C131 58.343 129.657 56.9999 128 56.9999C126.343 56.9999 125 58.343 125 59.9999C125 61.6567 126.343 62.9999 128 62.9999Z" fill="url(#paint15_radial_864_3277)"/>
<path d="M112 67.9999C113.657 67.9999 115 66.6567 115 64.9999C115 63.343 113.657 61.9999 112 61.9999C110.343 61.9999 109 63.343 109 64.9999C109 66.6567 110.343 67.9999 112 67.9999Z" fill="url(#paint16_radial_864_3277)"/>
<path d="M167 27.9999C168.657 27.9999 170 26.6567 170 24.9999C170 23.343 168.657 21.9999 167 21.9999C165.343 21.9999 164 23.343 164 24.9999C164 26.6567 165.343 27.9999 167 27.9999Z" fill="url(#paint17_radial_864_3277)"/>
<path d="M207 71.9999C208.657 71.9999 210 70.6567 210 68.9999C210 67.343 208.657 65.9999 207 65.9999C205.343 65.9999 204 67.343 204 68.9999C204 70.6567 205.343 71.9999 207 71.9999Z" fill="url(#paint18_radial_864_3277)"/>
<path d="M232 80.9999C233.657 80.9999 235 79.6567 235 77.9999C235 76.343 233.657 74.9999 232 74.9999C230.343 74.9999 229 76.343 229 77.9999C229 79.6567 230.343 80.9999 232 80.9999Z" fill="url(#paint19_radial_864_3277)"/>
<path d="M208 120C209.657 120 211 118.657 211 117C211 115.343 209.657 114 208 114C206.343 114 205 115.343 205 117C205 118.657 206.343 120 208 120Z" fill="url(#paint20_radial_864_3277)"/>
<path d="M160 145C161.657 145 163 143.657 163 142C163 140.343 161.657 139 160 139C158.343 139 157 140.343 157 142C157 143.657 158.343 145 160 145Z" fill="url(#paint21_radial_864_3277)"/>
<path d="M117 108C118.657 108 120 106.657 120 105C120 103.343 118.657 102 117 102C115.343 102 114 103.343 114 105C114 106.657 115.343 108 117 108Z" fill="url(#paint22_radial_864_3277)"/>
<path d="M199 35.9999C200.657 35.9999 202 34.6567 202 32.9999C202 31.343 200.657 29.9999 199 29.9999C197.343 29.9999 196 31.343 196 32.9999C196 34.6567 197.343 35.9999 199 35.9999Z" fill="url(#paint23_radial_864_3277)"/>
<path d="M129 29.9999C130.657 29.9999 132 28.6567 132 26.9999C132 25.343 130.657 23.9999 129 23.9999C127.343 23.9999 126 25.343 126 26.9999C126 28.6567 127.343 29.9999 129 29.9999Z" fill="url(#paint24_radial_864_3277)"/>
<path d="M108 49.9999C109.657 49.9999 111 48.6567 111 46.9999C111 45.343 109.657 43.9999 108 43.9999C106.343 43.9999 105 45.343 105 46.9999C105 48.6567 106.343 49.9999 108 49.9999Z" fill="url(#paint25_radial_864_3277)"/>
<path d="M251 116C252.657 116 254 114.657 254 113C254 111.343 252.657 110 251 110C249.343 110 248 111.343 248 113C248 114.657 249.343 116 251 116Z" fill="url(#paint26_radial_864_3277)"/>
<path d="M182 250C183.657 250 185 248.657 185 247C185 245.343 183.657 244 182 244C180.343 244 179 245.343 179 247C179 248.657 180.343 250 182 250Z" fill="url(#paint27_radial_864_3277)"/>
<path d="M199 189C200.657 189 202 187.657 202 186C202 184.343 200.657 183 199 183C197.343 183 196 184.343 196 186C196 187.657 197.343 189 199 189Z" fill="url(#paint28_radial_864_3277)"/>
<path d="M271 170C272.657 170 274 168.657 274 167C274 165.343 272.657 164 271 164C269.343 164 268 165.343 268 167C268 168.657 269.343 170 271 170Z" fill="url(#paint29_radial_864_3277)"/>
<path d="M254 217C255.657 217 257 215.657 257 214C257 212.343 255.657 211 254 211C252.343 211 251 212.343 251 214C251 215.657 252.343 217 254 217Z" fill="url(#paint30_radial_864_3277)"/>
<path d="M289 206C290.657 206 292 204.657 292 203C292 201.343 290.657 200 289 200C287.343 200 286 201.343 286 203C286 204.657 287.343 206 289 206Z" fill="url(#paint31_radial_864_3277)"/>
<path d="M286 243C287.657 243 289 241.657 289 240C289 238.343 287.657 237 286 237C284.343 237 283 238.343 283 240C283 241.657 284.343 243 286 243Z" fill="url(#paint32_radial_864_3277)"/>
<path d="M232 138C233.657 138 235 136.657 235 135C235 133.343 233.657 132 232 132C230.343 132 229 133.343 229 135C229 136.657 230.343 138 232 138Z" fill="url(#paint33_radial_864_3277)"/>
<path d="M227 177C228.657 177 230 175.657 230 174C230 172.343 228.657 171 227 171C225.343 171 224 172.343 224 174C224 175.657 225.343 177 227 177Z" fill="url(#paint34_radial_864_3277)"/>
<path d="M179 142C180.657 142 182 140.657 182 139C182 137.343 180.657 136 179 136C177.343 136 176 137.343 176 139C176 140.657 177.343 142 179 142Z" fill="url(#paint35_radial_864_3277)"/>
<path d="M71 82.9999C72.6569 82.9999 74 81.6567 74 79.9999C74 78.343 72.6569 76.9999 71 76.9999C69.3431 76.9999 68 78.343 68 79.9999C68 81.6567 69.3431 82.9999 71 82.9999Z" fill="url(#paint36_radial_864_3277)"/>
<path d="M96 140C97.6569 140 99 138.657 99 137C99 135.343 97.6569 134 96 134C94.3431 134 93 135.343 93 137C93 138.657 94.3431 140 96 140Z" fill="url(#paint37_radial_864_3277)"/>
<path d="M248 146C249.657 146 251 144.657 251 143C251 141.343 249.657 140 248 140C246.343 140 245 141.343 245 143C245 144.657 246.343 146 248 146Z" fill="url(#paint38_radial_864_3277)"/>
<path d="M151 222C152.657 222 154 220.657 154 219C154 217.343 152.657 216 151 216C149.343 216 148 217.343 148 219C148 220.657 149.343 222 151 222Z" fill="url(#paint39_radial_864_3277)"/>
<path d="M39 118C40.6569 118 42 116.657 42 115C42 113.343 40.6569 112 39 112C37.3431 112 36 113.343 36 115C36 116.657 37.3431 118 39 118Z" fill="url(#paint40_radial_864_3277)"/>
<path d="M247 57.9999C248.657 57.9999 250 56.6567 250 54.9999C250 53.343 248.657 51.9999 247 51.9999C245.343 51.9999 244 53.343 244 54.9999C244 56.6567 245.343 57.9999 247 57.9999Z" fill="url(#paint41_radial_864_3277)"/>
<path d="M283 83.9999C284.657 83.9999 286 82.6567 286 80.9999C286 79.343 284.657 77.9999 283 77.9999C281.343 77.9999 280 79.343 280 80.9999C280 82.6567 281.343 83.9999 283 83.9999Z" fill="url(#paint42_radial_864_3277)"/>
<path d="M237 277C238.657 277 240 275.657 240 274C240 272.343 238.657 271 237 271C235.343 271 234 272.343 234 274C234 275.657 235.343 277 237 277Z" fill="url(#paint43_radial_864_3277)"/>
<path d="M312 176C313.657 176 315 174.657 315 173C315 171.343 313.657 170 312 170C310.343 170 309 171.343 309 173C309 174.657 310.343 176 312 176Z" fill="url(#paint44_radial_864_3277)"/>
<rect x="29" width="303" height="283" fill="url(#paint45_linear_864_3277)"/>
<defs>
<radialGradient id="paint0_radial_864_3277" cx="0" cy="0" r="1" gradientUnits="userSpaceOnUse" gradientTransform="translate(170.446 16.0822) rotate(-1.73346) scale(95.7696 76.8732)">
<stop stop-color="#C3A5E9"/>
<stop offset="1" stop-color="#A16FFF"/>
</radialGradient>
<radialGradient id="paint1_radial_864_3277" cx="0" cy="0" r="1" gradientUnits="userSpaceOnUse" gradientTransform="translate(192.652 12.2542) rotate(-2.49591) scale(92.2227 106.516)">
<stop stop-color="#C3A5E9"/>
<stop offset="1" stop-color="#A16FFF"/>
</radialGradient>
<radialGradient id="paint2_radial_864_3277" cx="0" cy="0" r="1" gradientUnits="userSpaceOnUse" gradientTransform="translate(165.734 55.6176) rotate(-1.58461) scale(118.509 86.9667)">
<stop stop-color="#C3A5E9"/>
<stop offset="1" stop-color="#A16FFF"/>
</radialGradient>
<radialGradient id="paint3_radial_864_3277" cx="0" cy="0" r="1" gradientUnits="userSpaceOnUse" gradientTransform="translate(54.569 77.7167) rotate(-2.30973) scale(15.9279 17.0275)">
<stop stop-color="#C3A5E9"/>
<stop offset="1" stop-color="#A16FFF"/>
</radialGradient>
<radialGradient id="paint4_radial_864_3277" cx="0" cy="0" r="1" gradientUnits="userSpaceOnUse" gradientTransform="translate(184.807 16.2274) rotate(-3.49111) scale(44.2468 71.3951)">
<stop stop-color="#C3A5E9"/>
<stop offset="1" stop-color="#A16FFF"/>
</radialGradient>
<radialGradient id="paint5_radial_864_3277" cx="0" cy="0" r="1" gradientUnits="userSpaceOnUse" gradientTransform="translate(257.522 53.5709) rotate(-1.14882) scale(24.439 13.0053)">
<stop stop-color="#C3A5E9"/>
<stop offset="1" stop-color="#A16FFF"/>
</radialGradient>
<radialGradient id="paint6_radial_864_3277" cx="0" cy="0" r="1" gradientUnits="userSpaceOnUse" gradientTransform="translate(292.267 166.288) rotate(-0.413574) scale(19.6959 3.77409)">
<stop stop-color="#C3A5E9"/>
<stop offset="1" stop-color="#A16FFF"/>
</radialGradient>
<radialGradient id="paint7_radial_864_3277" cx="0" cy="0" r="1" gradientUnits="userSpaceOnUse" gradientTransform="translate(261.304 239.14) rotate(-1.47906) scale(23.5117 16.1055)">
<stop stop-color="#C3A5E9"/>
<stop offset="1" stop-color="#A16FFF"/>
</radialGradient>
<radialGradient id="paint8_radial_864_3277" cx="0" cy="0" r="1" gradientUnits="userSpaceOnUse" gradientTransform="translate(147.017 64.6784) rotate(-2.15755) scale(2.84595 2.84234)">
<stop stop-color="#C3A5E9"/>
<stop offset="1" stop-color="#A16FFF"/>
</radialGradient>
<radialGradient id="paint9_radial_864_3277" cx="0" cy="0" r="1" gradientUnits="userSpaceOnUse" gradientTransform="translate(172.017 81.6784) rotate(-2.15755) scale(2.84595 2.84234)">
<stop stop-color="#C3A5E9"/>
<stop offset="1" stop-color="#A16FFF"/>
</radialGradient>
<radialGradient id="paint10_radial_864_3277" cx="0" cy="0" r="1" gradientUnits="userSpaceOnUse" gradientTransform="translate(176.017 56.6784) rotate(-2.15755) scale(2.84595 2.84234)">
<stop stop-color="#C3A5E9"/>
<stop offset="1" stop-color="#A16FFF"/>
</radialGradient>
<radialGradient id="paint11_radial_864_3277" cx="0" cy="0" r="1" gradientUnits="userSpaceOnUse" gradientTransform="translate(207.017 86.6784) rotate(-2.15755) scale(2.84595 2.84234)">
<stop stop-color="#C3A5E9"/>
<stop offset="1" stop-color="#A16FFF"/>
</radialGradient>
<radialGradient id="paint12_radial_864_3277" cx="0" cy="0" r="1" gradientUnits="userSpaceOnUse" gradientTransform="translate(177.017 108.678) rotate(-2.15755) scale(2.84595 2.84234)">
<stop stop-color="#C3A5E9"/>
<stop offset="1" stop-color="#A16FFF"/>
</radialGradient>
<radialGradient id="paint13_radial_864_3277" cx="0" cy="0" r="1" gradientUnits="userSpaceOnUse" gradientTransform="translate(139.017 109.678) rotate(-2.15755) scale(2.84595 2.84234)">
<stop stop-color="#C3A5E9"/>
<stop offset="1" stop-color="#A16FFF"/>
</radialGradient>
<radialGradient id="paint14_radial_864_3277" cx="0" cy="0" r="1" gradientUnits="userSpaceOnUse" gradientTransform="translate(124.017 86.6784) rotate(-2.15755) scale(2.84595 2.84234)">
<stop stop-color="#C3A5E9"/>
<stop offset="1" stop-color="#A16FFF"/>
</radialGradient>
<radialGradient id="paint15_radial_864_3277" cx="0" cy="0" r="1" gradientUnits="userSpaceOnUse" gradientTransform="translate(128.017 56.6784) rotate(-2.15755) scale(2.84595 2.84234)">
<stop stop-color="#C3A5E9"/>
<stop offset="1" stop-color="#A16FFF"/>
</radialGradient>
<radialGradient id="paint16_radial_864_3277" cx="0" cy="0" r="1" gradientUnits="userSpaceOnUse" gradientTransform="translate(112.017 61.6784) rotate(-2.15755) scale(2.84595 2.84234)">
<stop stop-color="#C3A5E9"/>
<stop offset="1" stop-color="#A16FFF"/>
</radialGradient>
<radialGradient id="paint17_radial_864_3277" cx="0" cy="0" r="1" gradientUnits="userSpaceOnUse" gradientTransform="translate(167.017 21.6784) rotate(-2.15755) scale(2.84595 2.84234)">
<stop stop-color="#C3A5E9"/>
<stop offset="1" stop-color="#A16FFF"/>
</radialGradient>
<radialGradient id="paint18_radial_864_3277" cx="0" cy="0" r="1" gradientUnits="userSpaceOnUse" gradientTransform="translate(207.017 65.6784) rotate(-2.15755) scale(2.84595 2.84234)">
<stop stop-color="#C3A5E9"/>
<stop offset="1" stop-color="#A16FFF"/>
</radialGradient>
<radialGradient id="paint19_radial_864_3277" cx="0" cy="0" r="1" gradientUnits="userSpaceOnUse" gradientTransform="translate(232.017 74.6784) rotate(-2.15755) scale(2.84595 2.84234)">
<stop stop-color="#C3A5E9"/>
<stop offset="1" stop-color="#A16FFF"/>
</radialGradient>
<radialGradient id="paint20_radial_864_3277" cx="0" cy="0" r="1" gradientUnits="userSpaceOnUse" gradientTransform="translate(208.017 113.678) rotate(-2.15755) scale(2.84595 2.84234)">
<stop stop-color="#C3A5E9"/>
<stop offset="1" stop-color="#A16FFF"/>
</radialGradient>
<radialGradient id="paint21_radial_864_3277" cx="0" cy="0" r="1" gradientUnits="userSpaceOnUse" gradientTransform="translate(160.017 138.678) rotate(-2.15755) scale(2.84595 2.84234)">
<stop stop-color="#C3A5E9"/>
<stop offset="1" stop-color="#A16FFF"/>
</radialGradient>
<radialGradient id="paint22_radial_864_3277" cx="0" cy="0" r="1" gradientUnits="userSpaceOnUse" gradientTransform="translate(117.017 101.678) rotate(-2.15755) scale(2.84595 2.84234)">
<stop stop-color="#C3A5E9"/>
<stop offset="1" stop-color="#A16FFF"/>
</radialGradient>
<radialGradient id="paint23_radial_864_3277" cx="0" cy="0" r="1" gradientUnits="userSpaceOnUse" gradientTransform="translate(199.017 29.6784) rotate(-2.15755) scale(2.84595 2.84234)">
<stop stop-color="#C3A5E9"/>
<stop offset="1" stop-color="#A16FFF"/>
</radialGradient>
<radialGradient id="paint24_radial_864_3277" cx="0" cy="0" r="1" gradientUnits="userSpaceOnUse" gradientTransform="translate(129.017 23.6784) rotate(-2.15755) scale(2.84595 2.84234)">
<stop stop-color="#C3A5E9"/>
<stop offset="1" stop-color="#A16FFF"/>
</radialGradient>
<radialGradient id="paint25_radial_864_3277" cx="0" cy="0" r="1" gradientUnits="userSpaceOnUse" gradientTransform="translate(108.017 43.6784) rotate(-2.15755) scale(2.84595 2.84234)">
<stop stop-color="#C3A5E9"/>
<stop offset="1" stop-color="#A16FFF"/>
</radialGradient>
<radialGradient id="paint26_radial_864_3277" cx="0" cy="0" r="1" gradientUnits="userSpaceOnUse" gradientTransform="translate(251.017 109.678) rotate(-2.15755) scale(2.84595 2.84234)">
<stop stop-color="#C3A5E9"/>
<stop offset="1" stop-color="#A16FFF"/>
</radialGradient>
<radialGradient id="paint27_radial_864_3277" cx="0" cy="0" r="1" gradientUnits="userSpaceOnUse" gradientTransform="translate(182.017 243.678) rotate(-2.15755) scale(2.84595 2.84234)">
<stop stop-color="#C3A5E9"/>
<stop offset="1" stop-color="#A16FFF"/>
</radialGradient>
<radialGradient id="paint28_radial_864_3277" cx="0" cy="0" r="1" gradientUnits="userSpaceOnUse" gradientTransform="translate(199.017 182.678) rotate(-2.15755) scale(2.84595 2.84234)">
<stop stop-color="#C3A5E9"/>
<stop offset="1" stop-color="#A16FFF"/>
</radialGradient>
<radialGradient id="paint29_radial_864_3277" cx="0" cy="0" r="1" gradientUnits="userSpaceOnUse" gradientTransform="translate(271.017 163.678) rotate(-2.15755) scale(2.84595 2.84234)">
<stop stop-color="#C3A5E9"/>
<stop offset="1" stop-color="#A16FFF"/>
</radialGradient>
<radialGradient id="paint30_radial_864_3277" cx="0" cy="0" r="1" gradientUnits="userSpaceOnUse" gradientTransform="translate(254.017 210.678) rotate(-2.15755) scale(2.84595 2.84234)">
<stop stop-color="#C3A5E9"/>
<stop offset="1" stop-color="#A16FFF"/>
</radialGradient>
<radialGradient id="paint31_radial_864_3277" cx="0" cy="0" r="1" gradientUnits="userSpaceOnUse" gradientTransform="translate(289.017 199.678) rotate(-2.15755) scale(2.84595 2.84234)">
<stop stop-color="#C3A5E9"/>
<stop offset="1" stop-color="#A16FFF"/>
</radialGradient>
<radialGradient id="paint32_radial_864_3277" cx="0" cy="0" r="1" gradientUnits="userSpaceOnUse" gradientTransform="translate(286.017 236.678) rotate(-2.15755) scale(2.84595 2.84234)">
<stop stop-color="#C3A5E9"/>
<stop offset="1" stop-color="#A16FFF"/>
</radialGradient>
<radialGradient id="paint33_radial_864_3277" cx="0" cy="0" r="1" gradientUnits="userSpaceOnUse" gradientTransform="translate(232.017 131.678) rotate(-2.15755) scale(2.84595 2.84234)">
<stop stop-color="#C3A5E9"/>
<stop offset="1" stop-color="#A16FFF"/>
</radialGradient>
<radialGradient id="paint34_radial_864_3277" cx="0" cy="0" r="1" gradientUnits="userSpaceOnUse" gradientTransform="translate(227.017 170.678) rotate(-2.15755) scale(2.84595 2.84234)">
<stop stop-color="#C3A5E9"/>
<stop offset="1" stop-color="#A16FFF"/>
</radialGradient>
<radialGradient id="paint35_radial_864_3277" cx="0" cy="0" r="1" gradientUnits="userSpaceOnUse" gradientTransform="translate(179.017 135.678) rotate(-2.15755) scale(2.84595 2.84234)">
<stop stop-color="#C3A5E9"/>
<stop offset="1" stop-color="#A16FFF"/>
</radialGradient>
<radialGradient id="paint36_radial_864_3277" cx="0" cy="0" r="1" gradientUnits="userSpaceOnUse" gradientTransform="translate(71.0173 76.6784) rotate(-2.15755) scale(2.84595 2.84234)">
<stop stop-color="#C3A5E9"/>
<stop offset="1" stop-color="#A16FFF"/>
</radialGradient>
<radialGradient id="paint37_radial_864_3277" cx="0" cy="0" r="1" gradientUnits="userSpaceOnUse" gradientTransform="translate(96.0173 133.678) rotate(-2.15755) scale(2.84595 2.84234)">
<stop stop-color="#C3A5E9"/>
<stop offset="1" stop-color="#A16FFF"/>
</radialGradient>
<radialGradient id="paint38_radial_864_3277" cx="0" cy="0" r="1" gradientUnits="userSpaceOnUse" gradientTransform="translate(248.017 139.678) rotate(-2.15755) scale(2.84595 2.84234)">
<stop stop-color="#C3A5E9"/>
<stop offset="1" stop-color="#A16FFF"/>
</radialGradient>
<radialGradient id="paint39_radial_864_3277" cx="0" cy="0" r="1" gradientUnits="userSpaceOnUse" gradientTransform="translate(151.017 215.678) rotate(-2.15755) scale(2.84595 2.84234)">
<stop stop-color="#C3A5E9"/>
<stop offset="1" stop-color="#A16FFF"/>
</radialGradient>
<radialGradient id="paint40_radial_864_3277" cx="0" cy="0" r="1" gradientUnits="userSpaceOnUse" gradientTransform="translate(39.0173 111.678) rotate(-2.15755) scale(2.84595 2.84234)">
<stop stop-color="#C3A5E9"/>
<stop offset="1" stop-color="#A16FFF"/>
</radialGradient>
<radialGradient id="paint41_radial_864_3277" cx="0" cy="0" r="1" gradientUnits="userSpaceOnUse" gradientTransform="translate(247.017 51.6784) rotate(-2.15755) scale(2.84595 2.84234)">
<stop stop-color="#C3A5E9"/>
<stop offset="1" stop-color="#A16FFF"/>
</radialGradient>
<radialGradient id="paint42_radial_864_3277" cx="0" cy="0" r="1" gradientUnits="userSpaceOnUse" gradientTransform="translate(283.017 77.6784) rotate(-2.15755) scale(2.84595 2.84234)">
<stop stop-color="#C3A5E9"/>
<stop offset="1" stop-color="#A16FFF"/>
</radialGradient>
<radialGradient id="paint43_radial_864_3277" cx="0" cy="0" r="1" gradientUnits="userSpaceOnUse" gradientTransform="translate(237.017 270.678) rotate(-2.15755) scale(2.84595 2.84234)">
<stop stop-color="#C3A5E9"/>
<stop offset="1" stop-color="#A16FFF"/>
</radialGradient>
<radialGradient id="paint44_radial_864_3277" cx="0" cy="0" r="1" gradientUnits="userSpaceOnUse" gradientTransform="translate(312.017 169.678) rotate(-2.15755) scale(2.84595 2.84234)">
<stop stop-color="#C3A5E9"/>
<stop offset="1" stop-color="#A16FFF"/>
</radialGradient>
<linearGradient id="paint45_linear_864_3277" x1="180.5" y1="0" x2="180.5" y2="283" gradientUnits="userSpaceOnUse">
<stop stop-color="white" stop-opacity="0"/>
<stop offset="1" stop-color="white"/>
</linearGradient>
</defs>
</svg>
